NotoSerifTamil-SemiBold.ufo
<glyph name="exclam" format="2">
  <advance width="382"/>
  <unicode hex="0021"/>
  <outline>
    <contour>
      <point x="163" y="228" type="line"/>
      <point x="219" y="228" type="line"/>
      <point x="278" y="714" type="line"/>
      <point x="104" y="714" type="line"/>
    </contour>
    <contour>
      <point x="192" y="-8" type="curve" smooth="yes"/>
      <point x="236" y="-8"/>
      <point x="274" y="12"/>
      <point x="274" y="72" type="curve" smooth="yes"/>
      <point x="274" y="133"/>
      <point x="236" y="152"/>
      <point x="192" y="152" type="curve" smooth="yes"/>
      <point x="146" y="152"/>
      <point x="110" y="133"/>
      <point x="110" y="72" type="curve" smooth="yes"/>
      <point x="110" y="12"/>
      <point x="146" y="-8"/>
    </contour>
  </outline>
</glyph>
<glyph name="quotedbl" format="2">
  <advance width="508"/>
  <unicode hex="0022"/>
  <outline>
    <contour>
      <point x="340" y="439" type="line"/>
      <point x="406" y="439" type="line"/>
      <point x="441" y="714" type="line"/>
      <point x="285" y="714" type="line"/>
    </contour>
    <contour>
      <point x="112" y="439" type="line"/>
      <point x="178" y="439" type="line"/>
      <point x="223" y="714" type="line"/>
      <point x="67" y="714" type="line"/>
    </contour>
  </outline>
</glyph>
<glyph name="numbersign" format="2">
  <advance width="559"/>
  <unicode hex="0023"/>
  <outline>
    <contour>
      <point x="90" y="0" type="line"/>
      <point x="161" y="0" type="line"/>
      <point x="199" y="200" type="line"/>
      <point x="303" y="200" type="line"/>
      <point x="266" y="0" type="line"/>
      <point x="337" y="0" type="line"/>
      <point x="374" y="200" type="line"/>
      <point x="499" y="200" type="line"/>
      <point x="499" y="269" type="line"/>
      <point x="388" y="269" type="line"/>
      <point x="422" y="450" type="line"/>
      <point x="531" y="450" type="line"/>
      <point x="531" y="520" type="line"/>
      <point x="435" y="520" type="line"/>
      <point x="472" y="714" type="line"/>
      <point x="401" y="714" type="line"/>
      <point x="364" y="520" type="line"/>
      <point x="260" y="520" type="line"/>
      <point x="296" y="714" type="line"/>
      <point x="224" y="714" type="line"/>
      <point x="189" y="520" type="line"/>
      <point x="60" y="520" type="line"/>
      <point x="60" y="450" type="line"/>
      <point x="176" y="450" type="line"/>
      <point x="141" y="269" type="line"/>
      <point x="28" y="269" type="line"/>
      <point x="28" y="200" type="line"/>
      <point x="128" y="200" type="line"/>
    </contour>
    <contour>
      <point x="212" y="269" type="line"/>
      <point x="247" y="450" type="line"/>
      <point x="352" y="450" type="line"/>
      <point x="317" y="269" type="line"/>
    </contour>
  </outline>
</glyph>
<glyph name="quotesingle" format="2">
  <advance width="290"/>
  <unicode hex="0027"/>
  <outline>
    <contour>
      <point x="112" y="439" type="line"/>
      <point x="178" y="439" type="line"/>
      <point x="223" y="714" type="line"/>
      <point x="67" y="714" type="line"/>
    </contour>
  </outline>
</glyph>
<glyph name="parenleft" format="2">
  <advance width="400"/>
  <unicode hex="0028"/>
  <outline>
    <contour>
      <point x="368" y="-139" type="curve"/>
      <point x="368" y="-75" type="line"/>
      <point x="244" y="7"/>
      <point x="218" y="159"/>
      <point x="218" y="318" type="curve"/>
      <point x="218" y="476"/>
      <point x="244" y="627"/>
      <point x="368" y="709" type="curve"/>
      <point x="368" y="772" type="line"/>
      <point x="145" y="683"/>
      <point x="57" y="533"/>
      <point x="57" y="318" type="curve" smooth="yes"/>
      <point x="57" y="102"/>
      <point x="145" y="-50"/>
    </contour>
  </outline>
</glyph>
<glyph name="parenright" format="2">
  <advance width="400"/>
  <unicode hex="0029"/>
  <outline>
    <contour>
      <point x="32" y="-139" type="line"/>
      <point x="255" y="-50"/>
      <point x="343" y="102"/>
      <point x="343" y="318" type="curve" smooth="yes"/>
      <point x="343" y="533"/>
      <point x="255" y="683"/>
      <point x="32" y="772" type="curve"/>
      <point x="32" y="709" type="line"/>
      <point x="156" y="627"/>
      <point x="182" y="476"/>
      <point x="182" y="318" type="curve"/>
      <point x="182" y="159"/>
      <point x="156" y="7"/>
      <point x="32" y="-75" type="curve"/>
    </contour>
  </outline>
</glyph>
<glyph name="asterisk" format="2">
  <advance width="502"/>
  <unicode hex="002A"/>
  <outline>
    <contour>
      <point x="196" y="367" type="line"/>
      <point x="307" y="367" type="line"/>
      <point x="272" y="529" type="line"/>
      <point x="422" y="425" type="line"/>
      <point x="467" y="524" type="line"/>
      <point x="311" y="564" type="line"/>
      <point x="467" y="603" type="line"/>
      <point x="422" y="703" type="line"/>
      <point x="272" y="599" type="line"/>
      <point x="308" y="760" type="line"/>
      <point x="196" y="760" type="line"/>
      <point x="229" y="597" type="line"/>
      <point x="80" y="705" type="line"/>
      <point x="35" y="604" type="line"/>
      <point x="191" y="564" type="line"/>
      <point x="35" y="523" type="line"/>
      <point x="80" y="424" type="line"/>
      <point x="228" y="530" type="line"/>
    </contour>
  </outline>
</glyph>
<glyph name="plus" format="2">
  <advance width="559"/>
  <unicode hex="002B"/>
  <outline>
    <contour>
      <point x="243" y="143" type="line"/>
      <point x="315" y="143" type="line"/>
      <point x="315" y="322" type="line"/>
      <point x="494" y="322" type="line"/>
      <point x="494" y="393" type="line"/>
      <point x="315" y="393" type="line"/>
      <point x="315" y="572" type="line"/>
      <point x="243" y="572" type="line"/>
      <point x="243" y="393" type="line"/>
      <point x="65" y="393" type="line"/>
      <point x="65" y="322" type="line"/>
      <point x="243" y="322" type="line"/>
    </contour>
  </outline>
</glyph>
<glyph name="comma" format="2">
  <advance width="294"/>
  <unicode hex="002C"/>
  <outline>
    <contour>
      <point x="45" y="-154" type="line"/>
      <point x="175" y="-119"/>
      <point x="224" y="-43"/>
      <point x="224" y="42" type="curve" smooth="yes"/>
      <point x="224" y="110"/>
      <point x="188" y="152"/>
      <point x="132" y="152" type="curve" smooth="yes"/>
      <point x="91" y="152"/>
      <point x="60" y="128"/>
      <point x="60" y="83" type="curve" smooth="yes"/>
      <point x="60" y="3"/>
      <point x="133" y="14"/>
      <point x="133" y="-24" type="curve" smooth="yes"/>
      <point x="133" y="-63"/>
      <point x="103" y="-81"/>
      <point x="45" y="-102" type="curve"/>
    </contour>
  </outline>
</glyph>
<glyph name="hyphen" format="2">
  <advance width="310"/>
  <unicode hex="002D"/>
  <outline>
    <contour>
      <point x="25" y="220" type="line"/>
      <point x="285" y="220" type="line"/>
      <point x="285" y="325" type="line"/>
      <point x="25" y="325" type="line"/>
    </contour>
  </outline>
</glyph>
<glyph name="one" format="2">
  <advance width="559"/>
  <unicode hex="0031"/>
  <outline>
    <contour>
      <point x="97" y="0" type="line"/>
      <point x="510" y="0" type="line"/>
      <point x="510" y="53" type="line"/>
      <point x="429" y="53" type="line" smooth="yes"/>
      <point x="387" y="53"/>
      <point x="378" y="76"/>
      <point x="378" y="118" type="curve" smooth="yes"/>
      <point x="378" y="718" type="line"/>
      <point x="266" y="718" type="line"/>
      <point x="196" y="666" type="line" smooth="yes"/>
      <point x="130" y="617"/>
      <point x="82" y="599"/>
      <point x="42" y="589" type="curve"/>
      <point x="42" y="544"/>
      <point x="68" y="515"/>
      <point x="100" y="515" type="curve" smooth="yes"/>
      <point x="140" y="515"/>
      <point x="178" y="557"/>
      <point x="229" y="619" type="curve"/>
      <point x="229" y="118" type="line" smooth="yes"/>
      <point x="229" y="68"/>
      <point x="213" y="53"/>
      <point x="179" y="53" type="curve" smooth="yes"/>
      <point x="97" y="53" type="line"/>
    </contour>
  </outline>
</glyph>
<glyph name="seven" format="2">
  <advance width="559"/>
  <unicode hex="0037"/>
  <outline>
    <contour>
      <point x="165" y="0" type="line"/>
      <point x="250" y="0" type="line"/>
      <point x="526" y="665" type="line"/>
      <point x="526" y="714" type="line"/>
      <point x="49" y="714" type="line"/>
      <point x="44" y="504" type="line"/>
      <point x="104" y="504" type="line"/>
      <point x="110" y="554" type="line" smooth="yes"/>
      <point x="114" y="587"/>
      <point x="132" y="605"/>
      <point x="168" y="605" type="curve" smooth="yes"/>
      <point x="431" y="605" type="line"/>
    </contour>
  </outline>
</glyph>
<glyph name="nine" format="2">
  <advance width="559"/>
  <unicode hex="0039"/>
  <outline>
    <contour>
      <point x="227" y="-10" type="curve" smooth="yes"/>
      <point x="432" y="-10"/>
      <point x="514" y="168"/>
      <point x="514" y="388" type="curve" smooth="yes"/>
      <point x="514" y="623"/>
      <point x="409" y="724"/>
      <point x="264" y="724" type="curve" smooth="yes"/>
      <point x="121" y="724"/>
      <point x="35" y="626"/>
      <point x="35" y="482" type="curve" smooth="yes"/>
      <point x="35" y="347"/>
      <point x="116" y="275"/>
      <point x="231" y="275" type="curve" smooth="yes"/>
      <point x="300" y="275"/>
      <point x="346" y="304"/>
      <point x="377" y="343" type="curve"/>
      <point x="370" y="151"/>
      <point x="322" y="53"/>
      <point x="232" y="53" type="curve" smooth="yes"/>
      <point x="165" y="53"/>
      <point x="131" y="100"/>
      <point x="112" y="160" type="curve"/>
      <point x="78" y="153"/>
      <point x="63" y="132"/>
      <point x="63" y="103" type="curve" smooth="yes"/>
      <point x="63" y="46"/>
      <point x="106" y="-10"/>
    </contour>
    <contour>
      <point x="274" y="347" type="curve" smooth="yes"/>
      <point x="212" y="347"/>
      <point x="180" y="396"/>
      <point x="180" y="488" type="curve" smooth="yes"/>
      <point x="180" y="600"/>
      <point x="213" y="657"/>
      <point x="270" y="657" type="curve" smooth="yes"/>
      <point x="333" y="657"/>
      <point x="375" y="584"/>
      <point x="377" y="414" type="curve"/>
      <point x="357" y="374"/>
      <point x="322" y="347"/>
    </contour>
  </outline>
</glyph>
<glyph name="colon" format="2">
  <advance width="304"/>
  <unicode hex="003A"/>
  <outline>
    <contour>
      <point x="152" y="385" type="curve" smooth="yes"/>
      <point x="196" y="385"/>
      <point x="234" y="405"/>
      <point x="234" y="465" type="curve" smooth="yes"/>
      <point x="234" y="526"/>
      <point x="196" y="545"/>
      <point x="152" y="545" type="curve" smooth="yes"/>
      <point x="106" y="545"/>
      <point x="70" y="526"/>
      <point x="70" y="465" type="curve" smooth="yes"/>
      <point x="70" y="405"/>
      <point x="106" y="385"/>
    </contour>
    <contour>
      <point x="152" y="-8" type="curve" smooth="yes"/>
      <point x="196" y="-8"/>
      <point x="234" y="12"/>
      <point x="234" y="72" type="curve" smooth="yes"/>
      <point x="234" y="133"/>
      <point x="196" y="152"/>
      <point x="152" y="152" type="curve" smooth="yes"/>
      <point x="106" y="152"/>
      <point x="70" y="133"/>
      <point x="70" y="72" type="curve" smooth="yes"/>
      <point x="70" y="12"/>
      <point x="106" y="-8"/>
    </contour>
  </outline>
</glyph>
<glyph name="less" format="2">
  <advance width="559"/>
  <unicode hex="003C"/>
  <outline>
    <contour>
      <point x="494" y="104" type="line"/>
      <point x="494" y="183" type="line"/>
      <point x="172" y="357" type="line"/>
      <point x="494" y="533" type="line"/>
      <point x="494" y="612" type="line"/>
      <point x="65" y="378" type="line"/>
      <point x="65" y="337" type="line"/>
    </contour>
  </outline>
</glyph>
<glyph name="equal" format="2">
  <advance width="559"/>
  <unicode hex="003D"/>
  <outline>
    <contour>
      <point x="63" y="419" type="line"/>
      <point x="496" y="419" type="line"/>
      <point x="496" y="489" type="line"/>
      <point x="63" y="489" type="line"/>
    </contour>
    <contour>
      <point x="63" y="225" type="line"/>
      <point x="496" y="225" type="line"/>
      <point x="496" y="295" type="line"/>
      <point x="63" y="295" type="line"/>
    </contour>
  </outline>
</glyph>
<glyph name="greater" format="2">
  <advance width="559"/>
  <unicode hex="003E"/>
  <outline>
    <contour>
      <point x="65" y="104" type="line"/>
      <point x="494" y="337" type="line"/>
      <point x="494" y="378" type="line"/>
      <point x="65" y="612" type="line"/>
      <point x="65" y="533" type="line"/>
      <point x="387" y="357" type="line"/>
      <point x="65" y="183" type="line"/>
    </contour>
  </outline>
</glyph>
<glyph name="bracketleft" format="2">
  <advance width="414"/>
  <unicode hex="005B"/>
  <outline>
    <contour>
      <point x="100" y="-128" type="line"/>
      <point x="377" y="-128" type="line"/>
      <point x="377" y="-75" type="line"/>
      <point x="334" y="-75" type="line" smooth="yes"/>
      <point x="289" y="-75"/>
      <point x="252" y="-66"/>
      <point x="252" y="-3" type="curve" smooth="yes"/>
      <point x="252" y="635" type="line" smooth="yes"/>
      <point x="252" y="698"/>
      <point x="289" y="707"/>
      <point x="334" y="707" type="curve" smooth="yes"/>
      <point x="377" y="707" type="line"/>
      <point x="377" y="760" type="line"/>
      <point x="100" y="760" type="line"/>
    </contour>
  </outline>
</glyph>
<glyph name="asciicircum" format="2">
  <advance width="559"/>
  <unicode hex="005E"/>
  <outline>
    <contour>
      <point x="46" y="262" type="line"/>
      <point x="124" y="262" type="line"/>
      <point x="278" y="605" type="line"/>
      <point x="434" y="262" type="line"/>
      <point x="512" y="262" type="line"/>
      <point x="300" y="714" type="line"/>
      <point x="257" y="714" type="line"/>
    </contour>
  </outline>
</glyph>
<glyph name="underscore" format="2">
  <advance width="459"/>
  <unicode hex="005F"/>
  <outline>
    <contour>
      <point x="-5" y="-142" type="line"/>
      <point x="464" y="-142" type="line"/>
      <point x="464" y="-83" type="line"/>
      <point x="-5" y="-83" type="line"/>
    </contour>
  </outline>
</glyph>
<glyph name="braceleft" format="2">
  <advance width="442"/>
  <unicode hex="007B"/>
  <outline>
    <contour>
      <point x="317" y="-125" type="curve" smooth="yes"/>
      <point x="412" y="-125" type="line"/>
      <point x="412" y="-72" type="line"/>
      <point x="373" y="-72" type="line" smooth="yes"/>
      <point x="316" y="-72"/>
      <point x="302" y="-37"/>
      <point x="302" y="26" type="curve" smooth="yes"/>
      <point x="302" y="197" type="line" smooth="yes"/>
      <point x="302" y="257"/>
      <point x="268" y="296"/>
      <point x="192" y="315" type="curve"/>
      <point x="192" y="323" type="line"/>
      <point x="269" y="341"/>
      <point x="302" y="380"/>
      <point x="302" y="440" type="curve" smooth="yes"/>
      <point x="302" y="610" type="line" smooth="yes"/>
      <point x="302" y="673"/>
      <point x="316" y="707"/>
      <point x="373" y="707" type="curve" smooth="yes"/>
      <point x="412" y="707" type="line"/>
      <point x="412" y="760" type="line"/>
      <point x="317" y="760" type="line" smooth="yes"/>
      <point x="205" y="760"/>
      <point x="146" y="707"/>
      <point x="146" y="614" type="curve" smooth="yes"/>
      <point x="146" y="442" type="line" smooth="yes"/>
      <point x="146" y="367"/>
      <point x="95" y="351"/>
      <point x="30" y="349" type="curve"/>
      <point x="30" y="288" type="line"/>
      <point x="95" y="285"/>
      <point x="146" y="270"/>
      <point x="146" y="194" type="curve" smooth="yes"/>
      <point x="146" y="23" type="line" smooth="yes"/>
      <point x="146" y="-68"/>
      <point x="205" y="-125"/>
    </contour>
  </outline>
</glyph>
<glyph name="bar" format="2">
  <advance width="559"/>
  <unicode hex="007C"/>
  <outline>
    <contour>
      <point x="243" y="-240" type="line"/>
      <point x="315" y="-240" type="line"/>
      <point x="315" y="760" type="line"/>
      <point x="243" y="760" type="line"/>
    </contour>
  </outline>
</glyph>
<glyph name="threesuperior" format="2">
  <advance width="400"/>
  <unicode hex="00B3"/>
  <outline>
    <contour>
      <point x="165" y="380" type="curve" smooth="yes"/>
      <point x="247" y="380"/>
      <point x="358" y="413"/>
      <point x="358" y="511" type="curve" smooth="yes"/>
      <point x="358" y="568"/>
      <point x="318" y="602"/>
      <point x="249" y="612" type="curve"/>
      <point x="249" y="617" type="line"/>
      <point x="312" y="633"/>
      <point x="341" y="667"/>
      <point x="341" y="725" type="curve" smooth="yes"/>
      <point x="341" y="787"/>
      <point x="281" y="824"/>
      <point x="189" y="824" type="curve" smooth="yes"/>
      <point x="96" y="824"/>
      <point x="46" y="784"/>
      <point x="46" y="735" type="curve" smooth="yes"/>
      <point x="46" y="700"/>
      <point x="79" y="692"/>
      <point x="133" y="692" type="curve"/>
      <point x="133" y="738"/>
      <point x="145" y="779"/>
      <point x="187" y="779" type="curve" smooth="yes"/>
      <point x="221" y="779"/>
      <point x="234" y="756"/>
      <point x="234" y="715" type="curve" smooth="yes"/>
      <point x="234" y="664"/>
      <point x="205" y="633"/>
      <point x="155" y="633" type="curve" smooth="yes"/>
      <point x="122" y="633" type="line"/>
      <point x="122" y="586" type="line"/>
      <point x="155" y="586" type="line" smooth="yes"/>
      <point x="228" y="586"/>
      <point x="254" y="558"/>
      <point x="254" y="513" type="curve" smooth="yes"/>
      <point x="254" y="455"/>
      <point x="217" y="431"/>
      <point x="166" y="431" type="curve" smooth="yes"/>
      <point x="117" y="431"/>
      <point x="87" y="466"/>
      <point x="87" y="511" type="curve"/>
      <point x="47" y="511"/>
      <point x="31" y="488"/>
      <point x="31" y="462" type="curve" smooth="yes"/>
      <point x="31" y="413"/>
      <point x="78" y="380"/>
    </contour>
  </outline>
</glyph>
<glyph name="danda-deva" format="2">
  <advance width="351"/>
  <unicode hex="0964"/>
  <outline>
    <contour>
      <point x="93" y="0" type="line"/>
      <point x="258" y="0" type="line"/>
      <point x="258" y="563" type="line"/>
      <point x="93" y="563" type="line"/>
    </contour>
  </outline>
</glyph>
<glyph name="dbldanda-deva" format="2">
  <advance width="643"/>
  <unicode hex="0965"/>
  <outline>
    <contour>
      <point x="385" y="0" type="line"/>
      <point x="550" y="0" type="line"/>
      <point x="550" y="563" type="line"/>
      <point x="385" y="563" type="line"/>
    </contour>
    <contour>
      <point x="93" y="0" type="line"/>
      <point x="258" y="0" type="line"/>
      <point x="258" y="563" type="line"/>
      <point x="93" y="563" type="line"/>
    </contour>
  </outline>
</glyph>
<glyph name="visarga-tamil" format="2">
  <advance width="941"/>
  <unicode hex="0B83"/>
  <note>
uni0B83
</note>
  <outline>
    <contour>
      <point x="698" y="-5" type="curve" smooth="yes"/>
      <point x="821" y="-5"/>
      <point x="893" y="70"/>
      <point x="893" y="184" type="curve" smooth="yes"/>
      <point x="893" y="298"/>
      <point x="821" y="372"/>
      <point x="698" y="372" type="curve" smooth="yes"/>
      <point x="586" y="372"/>
      <point x="520" y="288"/>
      <point x="520" y="184" type="curve" smooth="yes"/>
      <point x="520" y="80"/>
      <point x="586" y="-5"/>
    </contour>
    <contour>
      <point x="228" y="-5" type="curve" smooth="yes"/>
      <point x="351" y="-5"/>
      <point x="422" y="70"/>
      <point x="422" y="184" type="curve" smooth="yes"/>
      <point x="422" y="298"/>
      <point x="351" y="372"/>
      <point x="228" y="372" type="curve" smooth="yes"/>
      <point x="115" y="372"/>
      <point x="49" y="288"/>
      <point x="49" y="184" type="curve" smooth="yes"/>
      <point x="49" y="80"/>
      <point x="115" y="-5"/>
    </contour>
    <contour>
      <point x="466" y="438" type="curve" smooth="yes"/>
      <point x="589" y="438"/>
      <point x="660" y="517"/>
      <point x="660" y="626" type="curve" smooth="yes"/>
      <point x="660" y="740"/>
      <point x="589" y="814"/>
      <point x="466" y="814" type="curve" smooth="yes"/>
      <point x="354" y="814"/>
      <point x="287" y="730"/>
      <point x="287" y="626" type="curve" smooth="yes"/>
      <point x="287" y="522"/>
      <point x="354" y="438"/>
    </contour>
    <contour>
      <point x="212" y="51" type="curve" smooth="yes"/>
      <point x="152" y="51"/>
      <point x="112" y="104"/>
      <point x="112" y="184" type="curve" smooth="yes"/>
      <point x="112" y="263"/>
      <point x="152" y="316"/>
      <point x="212" y="316" type="curve" smooth="yes"/>
      <point x="274" y="316"/>
      <point x="305" y="263"/>
      <point x="305" y="184" type="curve" smooth="yes"/>
      <point x="305" y="104"/>
      <point x="274" y="51"/>
    </contour>
    <contour>
      <point x="451" y="494" type="curve" smooth="yes"/>
      <point x="390" y="494"/>
      <point x="351" y="546"/>
      <point x="351" y="626" type="curve" smooth="yes"/>
      <point x="351" y="705"/>
      <point x="390" y="758"/>
      <point x="451" y="758" type="curve" smooth="yes"/>
      <point x="513" y="758"/>
      <point x="543" y="705"/>
      <point x="543" y="626" type="curve" smooth="yes"/>
      <point x="543" y="546"/>
      <point x="513" y="494"/>
    </contour>
    <contour>
      <point x="683" y="51" type="curve" smooth="yes"/>
      <point x="623" y="51"/>
      <point x="583" y="104"/>
      <point x="583" y="184" type="curve" smooth="yes"/>
      <point x="583" y="263"/>
      <point x="623" y="316"/>
      <point x="683" y="316" type="curve" smooth="yes"/>
      <point x="745" y="316"/>
      <point x="775" y="263"/>
      <point x="775" y="184" type="curve" smooth="yes"/>
      <point x="775" y="104"/>
      <point x="745" y="51"/>
    </contour>
  </outline>
</glyph>
<glyph name="a-tamil" format="2">
  <advance width="1376"/>
  <unicode hex="0B85"/>
  <note>
uni0B85
</note>
  <anchor x="650" y="0" name="bottom"/>
  <anchor x="469" y="-151" name="nukta"/>
  <anchor x="647" y="563" name="top"/>
  <anchor x="647" y="563" name="vedic"/>
  <outline>
    <contour>
      <point x="1125" y="-228" type="line"/>
      <point x="1285" y="-228" type="line"/>
      <point x="1285" y="563" type="line"/>
      <point x="1125" y="563" type="line"/>
      <point x="1125" y="165" type="line"/>
      <point x="128" y="165" type="line" smooth="yes"/>
      <point x="61" y="165"/>
      <point x="29" y="129"/>
      <point x="29" y="78" type="curve" smooth="yes"/>
      <point x="29" y="-29"/>
      <point x="194" y="-151"/>
      <point x="469" y="-151" type="curve" smooth="yes"/>
      <point x="811" y="-151"/>
      <point x="1008" y="1"/>
      <point x="1008" y="236" type="curve" smooth="yes"/>
      <point x="1008" y="420"/>
      <point x="865" y="568"/>
      <point x="647" y="568" type="curve" smooth="yes"/>
      <point x="483" y="568"/>
      <point x="392" y="483"/>
      <point x="392" y="377" type="curve" smooth="yes"/>
      <point x="392" y="288"/>
      <point x="458" y="219"/>
      <point x="565" y="219" type="curve" smooth="yes"/>
      <point x="685" y="219"/>
      <point x="739" y="291"/>
      <point x="739" y="364" type="curve" smooth="yes"/>
      <point x="739" y="437"/>
      <point x="673" y="517"/>
      <point x="564" y="517" type="curve"/>
      <point x="505" y="512" type="line"/>
      <point x="560" y="499"/>
      <point x="622" y="453"/>
      <point x="622" y="386" type="curve" smooth="yes"/>
      <point x="622" y="341"/>
      <point x="592" y="305"/>
      <point x="542" y="305" type="curve" smooth="yes"/>
      <point x="504" y="305"/>
      <point x="465" y="330"/>
      <point x="465" y="388" type="curve" smooth="yes"/>
      <point x="465" y="445"/>
      <point x="519" y="506"/>
      <point x="630" y="506" type="curve" smooth="yes"/>
      <point x="730" y="506"/>
      <point x="847" y="442"/>
      <point x="847" y="267" type="curve" smooth="yes"/>
      <point x="847" y="10"/>
      <point x="646" y="-89"/>
      <point x="450" y="-89" type="curve" smooth="yes"/>
      <point x="234" y="-89"/>
      <point x="97" y="-3"/>
      <point x="97" y="75" type="curve" smooth="yes"/>
      <point x="97" y="93"/>
      <point x="106" y="104"/>
      <point x="133" y="104" type="curve" smooth="yes"/>
      <point x="1125" y="104" type="line"/>
    </contour>
  </outline>
</glyph>
<glyph name="aa-tamil" format="2">
  <advance width="1602"/>
  <unicode hex="0B86"/>
  <note>
uni0B86
</note>
  <anchor x="796" y="0" name="bottom"/>
  <anchor x="469" y="-151" name="nukta"/>
  <anchor x="792" y="563" name="top"/>
  <anchor x="793" y="563" name="vedic"/>
  <outline>
    <contour>
      <point x="1125" y="-460" type="curve" smooth="yes"/>
      <point x="1374" y="-460"/>
      <point x="1575" y="-332"/>
      <point x="1575" y="-101" type="curve" smooth="yes"/>
      <point x="1575" y="11"/>
      <point x="1516" y="84"/>
      <point x="1418" y="84" type="curve" smooth="yes"/>
      <point x="1333" y="84"/>
      <point x="1258" y="20"/>
      <point x="1250" y="-107" type="curve"/>
      <point x="1285" y="-114" type="line"/>
      <point x="1285" y="-53"/>
      <point x="1329" y="-25"/>
      <point x="1362" y="-25" type="curve" smooth="yes"/>
      <point x="1405" y="-25"/>
      <point x="1429" y="-58"/>
      <point x="1429" y="-104" type="curve" smooth="yes"/>
      <point x="1429" y="-282"/>
      <point x="1279" y="-399"/>
      <point x="1112" y="-399" type="curve" smooth="yes"/>
      <point x="1008" y="-399"/>
      <point x="886" y="-365"/>
      <point x="886" y="-282" type="curve" smooth="yes"/>
      <point x="886" y="-227"/>
      <point x="942" y="-195"/>
      <point x="1003" y="-189" type="curve"/>
      <point x="989" y="-129" type="line"/>
      <point x="899" y="-145"/>
      <point x="823" y="-190"/>
      <point x="823" y="-278" type="curve" smooth="yes"/>
      <point x="823" y="-403"/>
      <point x="970" y="-460"/>
    </contour>
    <component base="a-tamil"/>
  </outline>
</glyph>
<glyph name="i-tamil" format="2">
  <advance width="1075"/>
  <unicode hex="0B87"/>
  <note>
uni0B87
</note>
  <anchor x="520" y="0" name="bottom"/>
  <anchor x="518" y="-280" name="nukta"/>
  <anchor x="549" y="863" name="top"/>
  <anchor x="526" y="563" name="vedic"/>
  <outline>
    <contour>
      <point x="249" y="-325" type="curve" smooth="yes"/>
      <point x="563" y="-325"/>
      <point x="842" y="-90"/>
      <point x="842" y="235" type="curve" smooth="yes"/>
      <point x="842" y="440"/>
      <point x="702" y="568"/>
      <point x="500" y="568" type="curve" smooth="yes"/>
      <point x="340" y="568"/>
      <point x="260" y="485"/>
      <point x="260" y="383" type="curve" smooth="yes"/>
      <point x="260" y="296"/>
      <point x="326" y="229"/>
      <point x="417" y="229" type="curve" smooth="yes"/>
      <point x="528" y="229"/>
      <point x="582" y="293"/>
      <point x="582" y="374" type="curve" smooth="yes"/>
      <point x="582" y="454"/>
      <point x="495" y="527"/>
      <point x="385" y="527" type="curve"/>
      <point x="351" y="521" type="line"/>
      <point x="413" y="507"/>
      <point x="464" y="456"/>
      <point x="464" y="390" type="curve" smooth="yes"/>
      <point x="464" y="340"/>
      <point x="436" y="313"/>
      <point x="393" y="313" type="curve" smooth="yes"/>
      <point x="358" y="313"/>
      <point x="324" y="338"/>
      <point x="324" y="388" type="curve" smooth="yes"/>
      <point x="324" y="445"/>
      <point x="366" y="507"/>
      <point x="482" y="507" type="curve" smooth="yes"/>
      <point x="615" y="507"/>
      <point x="681" y="385"/>
      <point x="681" y="232" type="curve" smooth="yes"/>
      <point x="681" y="-52"/>
      <point x="511" y="-263"/>
      <point x="249" y="-263" type="curve" smooth="yes"/>
      <point x="167" y="-263"/>
      <point x="110" y="-223"/>
      <point x="110" y="-158" type="curve" smooth="yes"/>
      <point x="110" y="-29"/>
      <point x="336" y="46"/>
      <point x="527" y="46" type="curve" smooth="yes"/>
      <point x="709" y="46"/>
      <point x="926" y="-28"/>
      <point x="926" y="-151" type="curve" smooth="yes"/>
      <point x="926" y="-237"/>
      <point x="854" y="-263"/>
      <point x="774" y="-263" type="curve" smooth="yes"/>
      <point x="482" y="-263"/>
      <point x="134" y="54"/>
      <point x="134" y="354" type="curve" smooth="yes"/>
      <point x="134" y="620"/>
      <point x="333" y="741"/>
      <point x="547" y="741" type="curve" smooth="yes"/>
      <point x="789" y="741"/>
      <point x="951" y="595"/>
      <point x="951" y="315" type="curve" smooth="yes"/>
      <point x="951" y="104" type="line"/>
      <point x="1021" y="104" type="line"/>
      <point x="1021" y="325" type="line" smooth="yes"/>
      <point x="1021" y="676"/>
      <point x="837" y="863"/>
      <point x="549" y="863" type="curve" smooth="yes"/>
      <point x="276" y="863"/>
      <point x="63" y="708"/>
      <point x="63" y="411" type="curve" smooth="yes"/>
      <point x="63" y="32"/>
      <point x="434" y="-324"/>
      <point x="808" y="-324" type="curve" smooth="yes"/>
      <point x="911" y="-324"/>
      <point x="997" y="-268"/>
      <point x="997" y="-170" type="curve" smooth="yes"/>
      <point x="997" y="20"/>
      <point x="755" y="107"/>
      <point x="528" y="107" type="curve" smooth="yes"/>
      <point x="289" y="107"/>
      <point x="39" y="16"/>
      <point x="39" y="-157" type="curve" smooth="yes"/>
      <point x="39" y="-264"/>
      <point x="128" y="-325"/>
    </contour>
  </outline>
</glyph>
<glyph name="ii-tamil" format="2">
  <advance width="910"/>
  <unicode hex="0B88"/>
  <note>
uni0B88
</note>
  <anchor x="467" y="0" name="bottom"/>
  <anchor x="467" y="0" name="nukta"/>
  <anchor x="469" y="563" name="top"/>
  <anchor x="470" y="563" name="vedic"/>
  <outline>
    <contour>
      <point x="90" y="0" type="line"/>
      <point x="160" y="0" type="line"/>
      <point x="160" y="502" type="line"/>
      <point x="458" y="502" type="line"/>
      <point x="458" y="0" type="line"/>
      <point x="625" y="0" type="line"/>
      <point x="625" y="502" type="line"/>
      <point x="859" y="502" type="line"/>
      <point x="859" y="563" type="line"/>
      <point x="90" y="563" type="line"/>
    </contour>
    <contour>
      <point x="309" y="185" type="curve" smooth="yes"/>
      <point x="355" y="185"/>
      <point x="392" y="222"/>
      <point x="392" y="266" type="curve" smooth="yes"/>
      <point x="392" y="309"/>
      <point x="355" y="346"/>
      <point x="309" y="346" type="curve" smooth="yes"/>
      <point x="263" y="346"/>
      <point x="226" y="309"/>
      <point x="226" y="266" type="curve" smooth="yes"/>
      <point x="226" y="222"/>
      <point x="263" y="185"/>
    </contour>
    <contour>
      <point x="773" y="185" type="curve" smooth="yes"/>
      <point x="820" y="185"/>
      <point x="856" y="222"/>
      <point x="856" y="266" type="curve" smooth="yes"/>
      <point x="856" y="309"/>
      <point x="820" y="346"/>
      <point x="773" y="346" type="curve" smooth="yes"/>
      <point x="727" y="346"/>
      <point x="690" y="309"/>
      <point x="690" y="266" type="curve" smooth="yes"/>
      <point x="690" y="222"/>
      <point x="727" y="185"/>
    </contour>
  </outline>
</glyph>
<glyph name="u-tamil" format="2">
  <advance width="1007"/>
  <unicode hex="0B89"/>
  <note>
uni0B89
</note>
  <anchor x="516" y="0" name="bottom"/>
  <anchor x="516" y="0" name="nukta"/>
  <anchor x="520" y="563" name="top"/>
  <anchor x="519" y="563" name="vedic"/>
  <outline>
    <contour>
      <point x="143" y="0" type="curve" smooth="yes"/>
      <point x="998" y="0" type="line"/>
      <point x="998" y="61" type="line"/>
      <point x="137" y="61" type="line" smooth="yes"/>
      <point x="117" y="61"/>
      <point x="104" y="75"/>
      <point x="104" y="95" type="curve" smooth="yes"/>
      <point x="104" y="116"/>
      <point x="117" y="129"/>
      <point x="137" y="129" type="curve" smooth="yes"/>
      <point x="400" y="129" type="line" smooth="yes"/>
      <point x="594" y="129"/>
      <point x="714" y="196"/>
      <point x="714" y="335" type="curve" smooth="yes"/>
      <point x="714" y="492"/>
      <point x="573" y="568"/>
      <point x="399" y="568" type="curve" smooth="yes"/>
      <point x="201" y="568"/>
      <point x="123" y="481"/>
      <point x="123" y="379" type="curve" smooth="yes"/>
      <point x="123" y="291"/>
      <point x="192" y="236"/>
      <point x="283" y="236" type="curve" smooth="yes"/>
      <point x="405" y="236"/>
      <point x="450" y="298"/>
      <point x="450" y="364" type="curve" smooth="yes"/>
      <point x="450" y="436"/>
      <point x="393" y="513"/>
      <point x="279" y="517" type="curve"/>
      <point x="229" y="512" type="line"/>
      <point x="294" y="492"/>
      <point x="340" y="443"/>
      <point x="340" y="384" type="curve" smooth="yes"/>
      <point x="340" y="341"/>
      <point x="310" y="312"/>
      <point x="269" y="312" type="curve" smooth="yes"/>
      <point x="224" y="312"/>
      <point x="196" y="342"/>
      <point x="196" y="388" type="curve" smooth="yes"/>
      <point x="196" y="443"/>
      <point x="236" y="506"/>
      <point x="375" y="506" type="curve" smooth="yes"/>
      <point x="476" y="506"/>
      <point x="553" y="450"/>
      <point x="553" y="346" type="curve" smooth="yes"/>
      <point x="553" y="237"/>
      <point x="488" y="188"/>
      <point x="375" y="188" type="curve" smooth="yes"/>
      <point x="143" y="188" type="line" smooth="yes"/>
      <point x="79" y="188"/>
      <point x="39" y="157"/>
      <point x="39" y="95" type="curve" smooth="yes"/>
      <point x="39" y="34"/>
      <point x="79" y="0"/>
    </contour>
  </outline>
</glyph>
<glyph name="uu-tamil" format="2">
  <advance width="1792"/>
  <unicode hex="0B8A"/>
  <note>
uni0B8A
</note>
  <anchor x="926" y="0" name="bottom"/>
  <anchor x="926" y="0" name="nukta"/>
  <anchor x="929" y="563" name="top"/>
  <anchor x="929" y="563" name="vedic"/>
  <outline>
    <contour>
      <point x="143" y="0" type="curve" smooth="yes"/>
      <point x="1733" y="0" type="line"/>
      <point x="1733" y="61" type="line"/>
      <point x="137" y="61" type="line" smooth="yes"/>
      <point x="117" y="61"/>
      <point x="104" y="75"/>
      <point x="104" y="95" type="curve" smooth="yes"/>
      <point x="104" y="116"/>
      <point x="117" y="129"/>
      <point x="137" y="129" type="curve" smooth="yes"/>
      <point x="400" y="129" type="line" smooth="yes"/>
      <point x="594" y="129"/>
      <point x="714" y="196"/>
      <point x="714" y="335" type="curve" smooth="yes"/>
      <point x="714" y="492"/>
      <point x="573" y="568"/>
      <point x="399" y="568" type="curve" smooth="yes"/>
      <point x="201" y="568"/>
      <point x="123" y="481"/>
      <point x="123" y="379" type="curve" smooth="yes"/>
      <point x="123" y="291"/>
      <point x="192" y="236"/>
      <point x="283" y="236" type="curve" smooth="yes"/>
      <point x="405" y="236"/>
      <point x="450" y="298"/>
      <point x="450" y="364" type="curve" smooth="yes"/>
      <point x="450" y="436"/>
      <point x="393" y="513"/>
      <point x="279" y="517" type="curve"/>
      <point x="229" y="512" type="line"/>
      <point x="294" y="492"/>
      <point x="340" y="443"/>
      <point x="340" y="384" type="curve" smooth="yes"/>
      <point x="340" y="341"/>
      <point x="310" y="312"/>
      <point x="269" y="312" type="curve" smooth="yes"/>
      <point x="224" y="312"/>
      <point x="196" y="342"/>
      <point x="196" y="388" type="curve" smooth="yes"/>
      <point x="196" y="443"/>
      <point x="236" y="506"/>
      <point x="375" y="506" type="curve" smooth="yes"/>
      <point x="476" y="506"/>
      <point x="553" y="450"/>
      <point x="553" y="346" type="curve" smooth="yes"/>
      <point x="553" y="237"/>
      <point x="488" y="188"/>
      <point x="375" y="188" type="curve" smooth="yes"/>
      <point x="143" y="188" type="line" smooth="yes"/>
      <point x="79" y="188"/>
      <point x="39" y="157"/>
      <point x="39" y="95" type="curve" smooth="yes"/>
      <point x="39" y="34"/>
      <point x="79" y="0"/>
    </contour>
    <contour>
      <point x="1002" y="124" type="curve" smooth="yes"/>
      <point x="1102" y="124"/>
      <point x="1174" y="167"/>
      <point x="1174" y="260" type="curve" smooth="yes"/>
      <point x="1174" y="341"/>
      <point x="1113" y="391"/>
      <point x="1022" y="391" type="curve" smooth="yes"/>
      <point x="923" y="391"/>
      <point x="863" y="322"/>
      <point x="858" y="215" type="curve"/>
      <point x="896" y="198" type="line"/>
      <point x="902" y="269"/>
      <point x="937" y="330"/>
      <point x="994" y="330" type="curve" smooth="yes"/>
      <point x="1032" y="330"/>
      <point x="1062" y="303"/>
      <point x="1062" y="266" type="curve" smooth="yes"/>
      <point x="1062" y="213"/>
      <point x="1021" y="187"/>
      <point x="968" y="187" type="curve" smooth="yes"/>
      <point x="903" y="187"/>
      <point x="858" y="243"/>
      <point x="858" y="337" type="curve" smooth="yes"/>
      <point x="858" y="458"/>
      <point x="950" y="507"/>
      <point x="1040" y="507" type="curve" smooth="yes"/>
      <point x="1134" y="507"/>
      <point x="1231" y="453"/>
      <point x="1233" y="328" type="curve"/>
      <point x="1301" y="328" type="line"/>
      <point x="1297" y="484"/>
      <point x="1184" y="568"/>
      <point x="1045" y="568" type="curve" smooth="yes"/>
      <point x="897" y="568"/>
      <point x="790" y="483"/>
      <point x="790" y="337" type="curve" smooth="yes"/>
      <point x="790" y="214"/>
      <point x="878" y="124"/>
    </contour>
    <contour>
      <point x="1233" y="125" type="line"/>
      <point x="1367" y="125" type="line"/>
      <point x="1367" y="502" type="line"/>
      <point x="1511" y="502" type="line"/>
      <point x="1511" y="125" type="line"/>
      <point x="1646" y="125" type="line"/>
      <point x="1646" y="502" type="line"/>
      <point x="1733" y="502" type="line"/>
      <point x="1733" y="563" type="line"/>
      <point x="1266" y="563" type="line"/>
      <point x="1266" y="366" type="line"/>
      <point x="1233" y="366" type="line"/>
    </contour>
  </outline>
</glyph>
<glyph name="ai-tamil" format="2">
  <advance width="1104"/>
  <unicode hex="0B90"/>
  <note>
uni0B90
</note>
  <anchor x="552" y="0" name="bottom"/>
  <anchor x="552" y="-324" name="nukta"/>
  <anchor x="567" y="563" name="top"/>
  <anchor x="568" y="563" name="vedic"/>
  <outline>
    <contour>
      <point x="328" y="-324" type="curve" smooth="yes"/>
      <point x="446" y="-324"/>
      <point x="554" y="-283"/>
      <point x="568" y="-158" type="curve"/>
      <point x="577" y="-226"/>
      <point x="639" y="-324"/>
      <point x="813" y="-324" type="curve" smooth="yes"/>
      <point x="974" y="-324"/>
      <point x="1051" y="-234"/>
      <point x="1051" y="-120" type="curve" smooth="yes"/>
      <point x="1051" y="-58"/>
      <point x="1028" y="-1"/>
      <point x="980" y="62" type="curve"/>
      <point x="932" y="31" type="line"/>
      <point x="974" y="-25"/>
      <point x="985" y="-62"/>
      <point x="985" y="-110" type="curve" smooth="yes"/>
      <point x="985" y="-197"/>
      <point x="927" y="-263"/>
      <point x="813" y="-263" type="curve" smooth="yes"/>
      <point x="696" y="-263"/>
      <point x="656" y="-171"/>
      <point x="656" y="-80" type="curve" smooth="yes"/>
      <point x="656" y="-30" type="line"/>
      <point x="492" y="-30" type="line"/>
      <point x="492" y="-87" type="line" smooth="yes"/>
      <point x="492" y="-217"/>
      <point x="428" y="-263"/>
      <point x="359" y="-263" type="curve" smooth="yes"/>
      <point x="290" y="-263"/>
      <point x="220" y="-231"/>
      <point x="220" y="-124" type="curve" smooth="yes"/>
      <point x="220" y="48"/>
      <point x="381" y="63"/>
      <point x="596" y="80" type="curve" smooth="yes"/>
      <point x="833" y="99"/>
      <point x="1051" y="156"/>
      <point x="1051" y="350" type="curve" smooth="yes"/>
      <point x="1051" y="499"/>
      <point x="945" y="569"/>
      <point x="790" y="569" type="curve" smooth="yes"/>
      <point x="674" y="569"/>
      <point x="605" y="522"/>
      <point x="580" y="428" type="curve"/>
      <point x="546" y="520"/>
      <point x="443" y="569"/>
      <point x="322" y="569" type="curve" smooth="yes"/>
      <point x="168" y="569"/>
      <point x="59" y="493"/>
      <point x="59" y="352" type="curve" smooth="yes"/>
      <point x="59" y="240"/>
      <point x="143" y="159"/>
      <point x="256" y="159" type="curve" smooth="yes"/>
      <point x="354" y="159"/>
      <point x="421" y="199"/>
      <point x="421" y="287" type="curve" smooth="yes"/>
      <point x="421" y="363"/>
      <point x="364" y="410"/>
      <point x="278" y="410" type="curve" smooth="yes"/>
      <point x="205" y="410"/>
      <point x="128" y="369"/>
      <point x="118" y="235" type="curve"/>
      <point x="155" y="223" type="line"/>
      <point x="160" y="311"/>
      <point x="204" y="351"/>
      <point x="249" y="351" type="curve" smooth="yes"/>
      <point x="290" y="351"/>
      <point x="316" y="325"/>
      <point x="316" y="287" type="curve" smooth="yes"/>
      <point x="316" y="241"/>
      <point x="283" y="221"/>
      <point x="237" y="221" type="curve" smooth="yes"/>
      <point x="173" y="221"/>
      <point x="122" y="267"/>
      <point x="122" y="352" type="curve" smooth="yes"/>
      <point x="122" y="460"/>
      <point x="212" y="507"/>
      <point x="313" y="507" type="curve" smooth="yes"/>
      <point x="420" y="507"/>
      <point x="492" y="461"/>
      <point x="492" y="362" type="curve" smooth="yes"/>
      <point x="492" y="217" type="line"/>
      <point x="656" y="217" type="line"/>
      <point x="656" y="374" type="line" smooth="yes"/>
      <point x="656" y="458"/>
      <point x="694" y="507"/>
      <point x="766" y="507" type="curve" smooth="yes"/>
      <point x="848" y="507"/>
      <point x="885" y="456"/>
      <point x="885" y="371" type="curve" smooth="yes"/>
      <point x="885" y="200"/>
      <point x="706" y="142"/>
      <point x="476" y="125" type="curve" smooth="yes"/>
      <point x="247" y="108"/>
      <point x="54" y="71"/>
      <point x="54" y="-111" type="curve" smooth="yes"/>
      <point x="54" y="-254"/>
      <point x="183" y="-324"/>
    </contour>
  </outline>
</glyph>
<glyph name="o-tamil" format="2">
  <advance width="1083"/>
  <unicode hex="0B92"/>
  <note>
uni0B92
</note>
  <anchor x="546" y="0" name="bottom"/>
  <anchor x="544" y="-335" name="nukta"/>
  <anchor x="539" y="563" name="top"/>
  <anchor x="539" y="563" name="vedic"/>
  <outline>
    <contour>
      <point x="390" y="-380" type="curve" smooth="yes"/>
      <point x="673" y="-380"/>
      <point x="648" y="-162"/>
      <point x="834" y="-162" type="curve" smooth="yes"/>
      <point x="908" y="-162" type="line"/>
      <point x="908" y="-96" type="line"/>
      <point x="804" y="-96" type="line" smooth="yes"/>
      <point x="671" y="-96"/>
      <point x="596" y="-4"/>
      <point x="596" y="94" type="curve" smooth="yes"/>
      <point x="596" y="141"/>
      <point x="614" y="189"/>
      <point x="650" y="229" type="curve"/>
      <point x="656" y="226" type="line"/>
      <point x="646" y="201"/>
      <point x="641" y="174"/>
      <point x="641" y="148" type="curve" smooth="yes"/>
      <point x="641" y="68"/>
      <point x="691" y="-5"/>
      <point x="817" y="-5" type="curve" smooth="yes"/>
      <point x="944" y="-5"/>
      <point x="1030" y="77"/>
      <point x="1030" y="202" type="curve" smooth="yes"/>
      <point x="1030" y="435"/>
      <point x="786" y="568"/>
      <point x="511" y="568" type="curve" smooth="yes"/>
      <point x="285" y="568"/>
      <point x="54" y="457"/>
      <point x="54" y="233" type="curve" smooth="yes"/>
      <point x="54" y="103"/>
      <point x="145" y="-5"/>
      <point x="292" y="-5" type="curve" smooth="yes"/>
      <point x="414" y="-5"/>
      <point x="490" y="68"/>
      <point x="490" y="160" type="curve" smooth="yes"/>
      <point x="490" y="247"/>
      <point x="428" y="323"/>
      <point x="319" y="323" type="curve" smooth="yes"/>
      <point x="206" y="323"/>
      <point x="129" y="249"/>
      <point x="117" y="96" type="curve"/>
      <point x="159" y="77" type="line"/>
      <point x="163" y="189"/>
      <point x="216" y="244"/>
      <point x="277" y="244" type="curve" smooth="yes"/>
      <point x="333" y="244"/>
      <point x="360" y="201"/>
      <point x="360" y="156" type="curve" smooth="yes"/>
      <point x="360" y="109"/>
      <point x="326" y="61"/>
      <point x="259" y="61" type="curve" smooth="yes"/>
      <point x="167" y="61"/>
      <point x="117" y="133"/>
      <point x="117" y="233" type="curve" smooth="yes"/>
      <point x="117" y="416"/>
      <point x="321" y="514"/>
      <point x="511" y="514" type="curve" smooth="yes"/>
      <point x="716" y="514"/>
      <point x="877" y="412"/>
      <point x="877" y="231" type="curve" smooth="yes"/>
      <point x="877" y="142"/>
      <point x="852" y="61"/>
      <point x="773" y="61" type="curve" smooth="yes"/>
      <point x="722" y="61"/>
      <point x="697" y="103"/>
      <point x="697" y="158" type="curve" smooth="yes"/>
      <point x="697" y="195"/>
      <point x="709" y="237"/>
      <point x="733" y="276" type="curve"/>
      <point x="671" y="322" type="line"/>
      <point x="586" y="265"/>
      <point x="540" y="174"/>
      <point x="540" y="87" type="curve" smooth="yes"/>
      <point x="540" y="9"/>
      <point x="576" y="-67"/>
      <point x="654" y="-115" type="curve"/>
      <point x="654" y="-120" type="line"/>
      <point x="514" y="-137"/>
      <point x="491" y="-312"/>
      <point x="345" y="-312" type="curve" smooth="yes"/>
      <point x="279" y="-312"/>
      <point x="244" y="-272"/>
      <point x="244" y="-223" type="curve" smooth="yes"/>
      <point x="244" y="-185"/>
      <point x="264" y="-151"/>
      <point x="309" y="-126" type="curve"/>
      <point x="275" y="-80" type="line"/>
      <point x="215" y="-117"/>
      <point x="188" y="-165"/>
      <point x="188" y="-216" type="curve" smooth="yes"/>
      <point x="188" y="-304"/>
      <point x="262" y="-380"/>
    </contour>
  </outline>
</glyph>
<glyph name="oo-tamil" format="2">
  <advance width="1083"/>
  <unicode hex="0B93"/>
  <note>
uni0B93
</note>
  <anchor x="536" y="0" name="bottom"/>
  <anchor x="534" y="-359" name="nukta"/>
  <anchor x="529" y="563" name="top"/>
  <anchor x="529" y="563" name="vedic"/>
  <outline>
    <contour>
      <point x="363" y="-410" type="curve" smooth="yes"/>
      <point x="680" y="-410"/>
      <point x="662" y="-162"/>
      <point x="833" y="-162" type="curve" smooth="yes"/>
      <point x="908" y="-162" type="line"/>
      <point x="908" y="-96" type="line"/>
      <point x="813" y="-96" type="line" smooth="yes"/>
      <point x="670" y="-96"/>
      <point x="594" y="10"/>
      <point x="594" y="111" type="curve" smooth="yes"/>
      <point x="594" y="154"/>
      <point x="608" y="196"/>
      <point x="636" y="229" type="curve"/>
      <point x="643" y="225" type="line"/>
      <point x="635" y="203"/>
      <point x="631" y="180"/>
      <point x="631" y="157" type="curve" smooth="yes"/>
      <point x="631" y="74"/>
      <point x="686" y="-5"/>
      <point x="817" y="-5" type="curve" smooth="yes"/>
      <point x="944" y="-5"/>
      <point x="1030" y="77"/>
      <point x="1030" y="202" type="curve" smooth="yes"/>
      <point x="1030" y="435"/>
      <point x="786" y="568"/>
      <point x="511" y="568" type="curve" smooth="yes"/>
      <point x="285" y="568"/>
      <point x="54" y="457"/>
      <point x="54" y="233" type="curve" smooth="yes"/>
      <point x="54" y="103"/>
      <point x="145" y="-5"/>
      <point x="292" y="-5" type="curve" smooth="yes"/>
      <point x="414" y="-5"/>
      <point x="490" y="68"/>
      <point x="490" y="160" type="curve" smooth="yes"/>
      <point x="490" y="247"/>
      <point x="428" y="323"/>
      <point x="319" y="323" type="curve" smooth="yes"/>
      <point x="206" y="323"/>
      <point x="129" y="249"/>
      <point x="117" y="96" type="curve"/>
      <point x="159" y="77" type="line"/>
      <point x="163" y="189"/>
      <point x="216" y="244"/>
      <point x="277" y="244" type="curve" smooth="yes"/>
      <point x="333" y="244"/>
      <point x="360" y="201"/>
      <point x="360" y="156" type="curve" smooth="yes"/>
      <point x="360" y="109"/>
      <point x="326" y="61"/>
      <point x="259" y="61" type="curve" smooth="yes"/>
      <point x="167" y="61"/>
      <point x="117" y="133"/>
      <point x="117" y="233" type="curve" smooth="yes"/>
      <point x="117" y="416"/>
      <point x="321" y="514"/>
      <point x="511" y="514" type="curve" smooth="yes"/>
      <point x="716" y="514"/>
      <point x="877" y="412"/>
      <point x="877" y="231" type="curve" smooth="yes"/>
      <point x="877" y="142"/>
      <point x="852" y="61"/>
      <point x="773" y="61" type="curve" smooth="yes"/>
      <point x="719" y="61"/>
      <point x="687" y="110"/>
      <point x="687" y="170" type="curve" smooth="yes"/>
      <point x="687" y="204"/>
      <point x="697" y="242"/>
      <point x="719" y="276" type="curve"/>
      <point x="657" y="322" type="line"/>
      <point x="577" y="268"/>
      <point x="538" y="186"/>
      <point x="538" y="105" type="curve" smooth="yes"/>
      <point x="538" y="20"/>
      <point x="582" y="-65"/>
      <point x="669" y="-117" type="curve"/>
      <point x="669" y="-122" type="line"/>
      <point x="522" y="-132"/>
      <point x="481" y="-345"/>
      <point x="315" y="-345" type="curve" smooth="yes"/>
      <point x="230" y="-345"/>
      <point x="191" y="-287"/>
      <point x="191" y="-238" type="curve" smooth="yes"/>
      <point x="191" y="-193"/>
      <point x="228" y="-158"/>
      <point x="271" y="-158" type="curve" smooth="yes"/>
      <point x="318" y="-158"/>
      <point x="348" y="-184"/>
      <point x="366" y="-246" type="curve"/>
      <point x="421" y="-220"/>
      <point x="452" y="-188"/>
      <point x="452" y="-149" type="curve" smooth="yes"/>
      <point x="452" y="-96"/>
      <point x="392" y="-63"/>
      <point x="327" y="-63" type="curve" smooth="yes"/>
      <point x="219" y="-63"/>
      <point x="132" y="-124"/>
      <point x="132" y="-232" type="curve" smooth="yes"/>
      <point x="132" y="-338"/>
      <point x="235" y="-410"/>
    </contour>
  </outline>
</glyph>
<glyph name="au-tamil" format="2">
  <advance width="2399"/>
  <unicode hex="0B94"/>
  <note>
uni0B94
</note>
  <anchor x="1230" y="0" name="bottom"/>
  <anchor x="1334" y="0" name="nukta"/>
  <anchor x="1223" y="563" name="top"/>
  <anchor x="1223" y="563" name="vedic"/>
  <outline>
    <contour>
      <point x="1361" y="-5" type="curve" smooth="yes"/>
      <point x="1487" y="-5"/>
      <point x="1563" y="68"/>
      <point x="1563" y="160" type="curve" smooth="yes"/>
      <point x="1563" y="247"/>
      <point x="1501" y="323"/>
      <point x="1388" y="323" type="curve" smooth="yes"/>
      <point x="1275" y="323"/>
      <point x="1203" y="253"/>
      <point x="1190" y="106" type="curve"/>
      <point x="1233" y="87" type="line"/>
      <point x="1237" y="194"/>
      <point x="1285" y="244"/>
      <point x="1346" y="244" type="curve" smooth="yes"/>
      <point x="1406" y="244"/>
      <point x="1434" y="201"/>
      <point x="1434" y="156" type="curve" smooth="yes"/>
      <point x="1434" y="109"/>
      <point x="1400" y="61"/>
      <point x="1328" y="61" type="curve" smooth="yes"/>
      <point x="1231" y="61"/>
      <point x="1181" y="156"/>
      <point x="1181" y="266" type="curve" smooth="yes"/>
      <point x="1181" y="392"/>
      <point x="1272" y="507"/>
      <point x="1473" y="507" type="curve" smooth="yes"/>
      <point x="1590" y="507"/>
      <point x="1717" y="434"/>
      <point x="1717" y="312" type="curve"/>
      <point x="1778" y="325" type="line"/>
      <point x="1756" y="489"/>
      <point x="1608" y="568"/>
      <point x="1461" y="568" type="curve" smooth="yes"/>
      <point x="1233" y="568"/>
      <point x="1118" y="419"/>
      <point x="1118" y="268" type="curve" smooth="yes"/>
      <point x="1118" y="118"/>
      <point x="1209" y="-5"/>
    </contour>
    <contour>
      <point x="1717" y="0" type="line"/>
      <point x="1878" y="0" type="line"/>
      <point x="1878" y="502" type="line"/>
      <point x="2064" y="502" type="line"/>
      <point x="2064" y="0" type="line"/>
      <point x="2225" y="0" type="line"/>
      <point x="2225" y="502" type="line"/>
      <point x="2382" y="502" type="line"/>
      <point x="2382" y="563" type="line"/>
      <point x="1751" y="563" type="line"/>
      <point x="1751" y="354" type="line"/>
      <point x="1717" y="369" type="line"/>
    </contour>
    <component base="o-tamil"/>
  </outline>
</glyph>
<glyph name="ja-tamil" format="2">
  <advance width="1103"/>
  <unicode hex="0B9C"/>
  <note>
uni0B9C
</note>
  <anchor x="552" y="0" name="bottom"/>
  <anchor x="552" y="-324" name="nukta"/>
  <anchor x="574" y="563" name="top"/>
  <anchor x="568" y="563" name="vedic"/>
  <outline>
    <contour>
      <point x="310" y="-324" type="curve" smooth="yes"/>
      <point x="583" y="-324"/>
      <point x="555" y="-21"/>
      <point x="769" y="-21" type="curve" smooth="yes"/>
      <point x="840" y="-21"/>
      <point x="889" y="-68"/>
      <point x="889" y="-132" type="curve" smooth="yes"/>
      <point x="889" y="-203"/>
      <point x="850" y="-258"/>
      <point x="768" y="-258" type="curve" smooth="yes"/>
      <point x="735" y="-258"/>
      <point x="701" y="-248"/>
      <point x="655" y="-221" type="curve"/>
      <point x="635" y="-261" type="line"/>
      <point x="706" y="-310"/>
      <point x="772" y="-324"/>
      <point x="830" y="-324" type="curve" smooth="yes"/>
      <point x="961" y="-324"/>
      <point x="1050" y="-250"/>
      <point x="1050" y="-147" type="curve" smooth="yes"/>
      <point x="1050" y="-18"/>
      <point x="962" y="43"/>
      <point x="822" y="43" type="curve" smooth="yes"/>
      <point x="525" y="43"/>
      <point x="558" y="-263"/>
      <point x="344" y="-263" type="curve" smooth="yes"/>
      <point x="267" y="-263"/>
      <point x="220" y="-201"/>
      <point x="220" y="-124" type="curve" smooth="yes"/>
      <point x="220" y="33"/>
      <point x="366" y="67"/>
      <point x="597" y="88" type="curve" smooth="yes"/>
      <point x="857" y="112"/>
      <point x="1050" y="168"/>
      <point x="1050" y="353" type="curve" smooth="yes"/>
      <point x="1050" y="497"/>
      <point x="946" y="569"/>
      <point x="792" y="569" type="curve" smooth="yes"/>
      <point x="686" y="569"/>
      <point x="605" y="522"/>
      <point x="580" y="428" type="curve"/>
      <point x="546" y="520"/>
      <point x="462" y="569"/>
      <point x="341" y="569" type="curve" smooth="yes"/>
      <point x="183" y="569"/>
      <point x="59" y="493"/>
      <point x="59" y="352" type="curve" smooth="yes"/>
      <point x="59" y="235"/>
      <point x="137" y="159"/>
      <point x="256" y="159" type="curve" smooth="yes"/>
      <point x="354" y="159"/>
      <point x="423" y="194"/>
      <point x="423" y="287" type="curve" smooth="yes"/>
      <point x="423" y="370"/>
      <point x="366" y="410"/>
      <point x="284" y="410" type="curve" smooth="yes"/>
      <point x="213" y="410"/>
      <point x="137" y="365"/>
      <point x="130" y="235" type="curve"/>
      <point x="165" y="223" type="line"/>
      <point x="174" y="318"/>
      <point x="217" y="351"/>
      <point x="259" y="351" type="curve" smooth="yes"/>
      <point x="286" y="351"/>
      <point x="312" y="332"/>
      <point x="312" y="296" type="curve" smooth="yes"/>
      <point x="312" y="249"/>
      <point x="281" y="221"/>
      <point x="237" y="221" type="curve" smooth="yes"/>
      <point x="167" y="221"/>
      <point x="132" y="267"/>
      <point x="132" y="352" type="curve" smooth="yes"/>
      <point x="132" y="455"/>
      <point x="222" y="507"/>
      <point x="323" y="507" type="curve" smooth="yes"/>
      <point x="430" y="507"/>
      <point x="492" y="461"/>
      <point x="492" y="362" type="curve" smooth="yes"/>
      <point x="492" y="217" type="line"/>
      <point x="656" y="217" type="line"/>
      <point x="656" y="374" type="line" smooth="yes"/>
      <point x="656" y="458"/>
      <point x="699" y="507"/>
      <point x="771" y="507" type="curve" smooth="yes"/>
      <point x="847" y="507"/>
      <point x="884" y="461"/>
      <point x="884" y="369" type="curve" smooth="yes"/>
      <point x="884" y="223"/>
      <point x="755" y="144"/>
      <point x="476" y="122" type="curve" smooth="yes"/>
      <point x="271" y="106"/>
      <point x="54" y="82"/>
      <point x="54" y="-113" type="curve" smooth="yes"/>
      <point x="54" y="-254"/>
      <point x="170" y="-324"/>
    </contour>
  </outline>
</glyph>
<glyph name="nya-tamil" format="2">
  <advance width="1432"/>
  <unicode hex="0B9E"/>
  <note>
uni0B9E
</note>
  <anchor x="750" y="0" name="bottom"/>
  <anchor x="1101" y="563" name="imatra"/>
  <anchor x="750" y="-381" name="nukta"/>
  <anchor x="767" y="563" name="top"/>
  <anchor x="719" y="563" name="vedic"/>
  <outline>
    <contour>
      <point x="750" y="-381" type="curve" smooth="yes"/>
      <point x="1122" y="-381"/>
      <point x="1379" y="-185"/>
      <point x="1379" y="78" type="curve" smooth="yes"/>
      <point x="1379" y="232"/>
      <point x="1301" y="341"/>
      <point x="1171" y="341" type="curve" smooth="yes"/>
      <point x="1066" y="341"/>
      <point x="996" y="279"/>
      <point x="996" y="171" type="curve" smooth="yes"/>
      <point x="996" y="137" type="line"/>
      <point x="1030" y="137" type="line"/>
      <point x="1030" y="169" type="line" smooth="yes"/>
      <point x="1030" y="224"/>
      <point x="1066" y="252"/>
      <point x="1109" y="252" type="curve" smooth="yes"/>
      <point x="1189" y="252"/>
      <point x="1214" y="193"/>
      <point x="1214" y="91" type="curve" smooth="yes"/>
      <point x="1214" y="-161"/>
      <point x="1008" y="-320"/>
      <point x="738" y="-320" type="curve" smooth="yes"/>
      <point x="396" y="-320"/>
      <point x="125" y="-113"/>
      <point x="125" y="210" type="curve" smooth="yes"/>
      <point x="125" y="409"/>
      <point x="208" y="539"/>
      <point x="333" y="632" type="curve"/>
      <point x="287" y="686" type="line"/>
      <point x="153" y="583"/>
      <point x="59" y="429"/>
      <point x="59" y="210" type="curve" smooth="yes"/>
      <point x="59" y="-146"/>
      <point x="365" y="-381"/>
    </contour>
    <component base="e-tamil" xOffset="220"/>
  </outline>
</glyph>
<glyph name="tta-tamil" format="2">
  <advance width="956"/>
  <unicode hex="0B9F"/>
  <note>
uni0B9F
</note>
  <anchor x="478" y="0" name="bottom"/>
  <anchor x="478" y="0" name="nukta"/>
  <anchor x="570" y="563" name="top"/>
  <anchor x="518" y="563" name="vedic"/>
  <outline>
    <contour>
      <point x="90" y="0" type="line"/>
      <point x="946" y="0" type="line"/>
      <point x="946" y="61" type="line"/>
      <point x="255" y="61" type="line"/>
      <point x="255" y="563" type="line"/>
      <point x="90" y="563" type="line"/>
    </contour>
  </outline>
</glyph>
<glyph name="nna-tamil" format="2">
  <advance width="1912"/>
  <unicode hex="0BA3"/>
  <note>
uni0BA3
</note>
  <anchor x="1031" y="0" name="bottom"/>
  <anchor x="1731" y="563" name="imatra"/>
  <anchor x="1031" y="0" name="nukta"/>
  <anchor x="1021" y="563" name="top"/>
  <anchor x="974" y="563" name="vedic"/>
  <outline>
    <contour>
      <point x="791" y="-5" type="curve" smooth="yes"/>
      <point x="910" y="-5"/>
      <point x="985" y="71"/>
      <point x="985" y="205" type="curve" smooth="yes"/>
      <point x="985" y="419"/>
      <point x="757" y="568"/>
      <point x="488" y="568" type="curve" smooth="yes"/>
      <point x="252" y="568"/>
      <point x="54" y="454"/>
      <point x="54" y="231" type="curve" smooth="yes"/>
      <point x="54" y="88"/>
      <point x="152" y="-5"/>
      <point x="298" y="-5" type="curve" smooth="yes"/>
      <point x="424" y="-5"/>
      <point x="500" y="68"/>
      <point x="500" y="160" type="curve" smooth="yes"/>
      <point x="500" y="247"/>
      <point x="438" y="323"/>
      <point x="325" y="323" type="curve" smooth="yes"/>
      <point x="206" y="323"/>
      <point x="127" y="240"/>
      <point x="127" y="106" type="curve"/>
      <point x="170" y="87" type="line"/>
      <point x="174" y="194"/>
      <point x="222" y="244"/>
      <point x="283" y="244" type="curve" smooth="yes"/>
      <point x="343" y="244"/>
      <point x="371" y="201"/>
      <point x="371" y="156" type="curve" smooth="yes"/>
      <point x="371" y="109"/>
      <point x="337" y="61"/>
      <point x="265" y="61" type="curve" smooth="yes"/>
      <point x="172" y="61"/>
      <point x="117" y="126"/>
      <point x="117" y="231" type="curve" smooth="yes"/>
      <point x="117" y="405"/>
      <point x="258" y="507"/>
      <point x="473" y="507" type="curve" smooth="yes"/>
      <point x="703" y="507"/>
      <point x="839" y="390"/>
      <point x="839" y="200" type="curve" smooth="yes"/>
      <point x="839" y="116"/>
      <point x="807" y="66"/>
      <point x="751" y="66" type="curve" smooth="yes"/>
      <point x="694" y="66"/>
      <point x="660" y="120"/>
      <point x="660" y="205" type="curve" smooth="yes"/>
      <point x="660" y="376"/>
      <point x="813" y="507"/>
      <point x="1016" y="507" type="curve" smooth="yes"/>
      <point x="1220" y="507"/>
      <point x="1323" y="370"/>
      <point x="1323" y="200" type="curve" smooth="yes"/>
      <point x="1323" y="121"/>
      <point x="1294" y="66"/>
      <point x="1237" y="66" type="curve" smooth="yes"/>
      <point x="1178" y="66"/>
      <point x="1144" y="116"/>
      <point x="1144" y="201" type="curve" smooth="yes"/>
      <point x="1144" y="382"/>
      <point x="1285" y="502"/>
      <point x="1503" y="502" type="curve" smooth="yes"/>
      <point x="1895" y="502" type="line"/>
      <point x="1895" y="563" type="line"/>
      <point x="1497" y="563" type="line" smooth="yes"/>
      <point x="1231" y="563"/>
      <point x="1080" y="392"/>
      <point x="1080" y="208" type="curve" smooth="yes"/>
      <point x="1080" y="74"/>
      <point x="1146" y="-5"/>
      <point x="1271" y="-5" type="curve" smooth="yes"/>
      <point x="1392" y="-5"/>
      <point x="1469" y="70"/>
      <point x="1469" y="203" type="curve" smooth="yes"/>
      <point x="1469" y="418"/>
      <point x="1264" y="568"/>
      <point x="1021" y="568" type="curve" smooth="yes"/>
      <point x="786" y="568"/>
      <point x="596" y="407"/>
      <point x="596" y="208" type="curve" smooth="yes"/>
      <point x="596" y="74"/>
      <point x="668" y="-5"/>
    </contour>
    <contour>
      <point x="1577" y="0" type="line"/>
      <point x="1738" y="0" type="line"/>
      <point x="1738" y="530" type="line"/>
      <point x="1577" y="530" type="line"/>
    </contour>
  </outline>
</glyph>
<glyph name="ta-tamil" format="2">
  <advance width="918"/>
  <unicode hex="0BA4"/>
  <note>
uni0BA4
</note>
  <anchor x="450" y="0" name="bottom"/>
  <anchor x="618" y="563" name="imatra"/>
  <anchor x="497" y="-132" name="nukta"/>
  <anchor x="481" y="563" name="top"/>
  <anchor x="457" y="563" name="vedic"/>
  <outline>
    <contour>
      <point x="181" y="-273" type="curve"/>
      <point x="181" y="-187"/>
      <point x="206" y="-132"/>
      <point x="321" y="-132" type="curve" smooth="yes"/>
      <point x="469" y="-132" type="line" smooth="yes"/>
      <point x="751" y="-132"/>
      <point x="865" y="-44"/>
      <point x="865" y="109" type="curve" smooth="yes"/>
      <point x="865" y="249"/>
      <point x="746" y="330"/>
      <point x="581" y="330" type="curve" smooth="yes"/>
      <point x="578" y="330" type="line"/>
      <point x="578" y="502" type="line"/>
      <point x="735" y="502" type="line"/>
      <point x="735" y="563" type="line"/>
      <point x="203" y="563" type="line"/>
      <point x="203" y="314" type="line"/>
      <point x="271" y="314" type="line"/>
      <point x="271" y="502" type="line"/>
      <point x="415" y="502" type="line"/>
      <point x="415" y="331" type="line"/>
      <point x="246" y="331" type="line" smooth="yes"/>
      <point x="125" y="331"/>
      <point x="59" y="260"/>
      <point x="59" y="170" type="curve" smooth="yes"/>
      <point x="59" y="64"/>
      <point x="144" y="-4"/>
      <point x="284" y="-4" type="curve" smooth="yes"/>
      <point x="481" y="-4"/>
      <point x="578" y="90"/>
      <point x="578" y="227" type="curve" smooth="yes"/>
      <point x="578" y="266" type="line"/>
      <point x="581" y="266" type="line" smooth="yes"/>
      <point x="652" y="266"/>
      <point x="711" y="208"/>
      <point x="711" y="114" type="curve" smooth="yes"/>
      <point x="711" y="-37"/>
      <point x="592" y="-79"/>
      <point x="437" y="-79" type="curve" smooth="yes"/>
      <point x="257" y="-79" type="line" smooth="yes"/>
      <point x="148" y="-79"/>
      <point x="49" y="-100"/>
      <point x="49" y="-185" type="curve" smooth="yes"/>
      <point x="49" y="-245"/>
      <point x="103" y="-273"/>
    </contour>
    <contour>
      <point x="266" y="61" type="curve" smooth="yes"/>
      <point x="170" y="61"/>
      <point x="131" y="107"/>
      <point x="131" y="169" type="curve" smooth="yes"/>
      <point x="131" y="225"/>
      <point x="170" y="270"/>
      <point x="259" y="270" type="curve" smooth="yes"/>
      <point x="415" y="270" type="line"/>
      <point x="415" y="217" type="line" smooth="yes"/>
      <point x="415" y="118"/>
      <point x="354" y="61"/>
    </contour>
  </outline>
</glyph>
<glyph name="pa-tamil" format="2">
  <advance width="966"/>
  <unicode hex="0BAA"/>
  <note>
uni0BAA
</note>
  <anchor x="483" y="0" name="bottom"/>
  <anchor x="866" y="563" name="imatra"/>
  <anchor x="483" y="0" name="nukta"/>
  <anchor x="479" y="563" name="top"/>
  <anchor x="483" y="563" name="vedic"/>
  <outline>
    <contour>
      <point x="90" y="0" type="line"/>
      <point x="875" y="0" type="line"/>
      <point x="875" y="563" type="line"/>
      <point x="710" y="563" type="line"/>
      <point x="710" y="61" type="line"/>
      <point x="251" y="61" type="line"/>
      <point x="251" y="563" type="line"/>
      <point x="90" y="563" type="line"/>
    </contour>
  </outline>
</glyph>
<glyph name="ra-tamil" format="2">
  <advance width="691"/>
  <unicode hex="0BB0"/>
  <note>
uni0BB0
</note>
  <anchor x="345" y="0" name="bottom"/>
  <anchor x="564" y="563" name="imatra"/>
  <anchor x="345" y="-228" name="nukta"/>
  <anchor x="356" y="563" name="top"/>
  <anchor x="382" y="563" name="vedic"/>
  <outline>
    <contour>
      <point x="151" y="-280" type="line"/>
      <point x="517" y="37" type="line"/>
      <point x="517" y="502" type="line"/>
      <point x="674" y="502" type="line"/>
      <point x="674" y="563" type="line"/>
      <point x="90" y="563" type="line"/>
      <point x="90" y="0" type="line"/>
      <point x="160" y="0" type="line"/>
      <point x="160" y="502" type="line"/>
      <point x="350" y="502" type="line"/>
      <point x="350" y="-18" type="line"/>
      <point x="108" y="-228" type="line"/>
    </contour>
  </outline>
</glyph>
<glyph name="rra-tamil" format="2">
  <advance width="944"/>
  <unicode hex="0BB1"/>
  <note>
uni0BB1
</note>
  <anchor x="465" y="0" name="bottom"/>
  <anchor x="474" y="-207" name="nukta"/>
  <anchor x="464" y="563" name="top"/>
  <anchor x="496" y="563" name="vedic"/>
  <outline>
    <contour>
      <point x="219" y="-268" type="curve"/>
      <point x="219" y="-183"/>
      <point x="244" y="-127"/>
      <point x="360" y="-127" type="curve" smooth="yes"/>
      <point x="449" y="-127" type="line" smooth="yes"/>
      <point x="740" y="-127"/>
      <point x="905" y="-7"/>
      <point x="905" y="246" type="curve" smooth="yes"/>
      <point x="905" y="471"/>
      <point x="784" y="568"/>
      <point x="631" y="568" type="curve" smooth="yes"/>
      <point x="511" y="568"/>
      <point x="453" y="505"/>
      <point x="430" y="447" type="curve"/>
      <point x="411" y="510"/>
      <point x="361" y="567"/>
      <point x="267" y="567" type="curve" smooth="yes"/>
      <point x="169" y="567"/>
      <point x="102" y="508"/>
      <point x="102" y="386" type="curve" smooth="yes"/>
      <point x="102" y="0" type="line"/>
      <point x="172" y="0" type="line"/>
      <point x="172" y="377" type="line" smooth="yes"/>
      <point x="172" y="463"/>
      <point x="198" y="501"/>
      <point x="262" y="501" type="curve" smooth="yes"/>
      <point x="318" y="501"/>
      <point x="347" y="458"/>
      <point x="347" y="376" type="curve" smooth="yes"/>
      <point x="347" y="0" type="line"/>
      <point x="510" y="0" type="line"/>
      <point x="510" y="364" type="line" smooth="yes"/>
      <point x="510" y="456"/>
      <point x="549" y="502"/>
      <point x="612" y="502" type="curve" smooth="yes"/>
      <point x="679" y="502"/>
      <point x="739" y="433"/>
      <point x="739" y="262" type="curve" smooth="yes"/>
      <point x="739" y="30"/>
      <point x="630" y="-74"/>
      <point x="450" y="-74" type="curve" smooth="yes"/>
      <point x="295" y="-74" type="line" smooth="yes"/>
      <point x="187" y="-74"/>
      <point x="88" y="-98"/>
      <point x="88" y="-185" type="curve" smooth="yes"/>
      <point x="88" y="-245"/>
      <point x="142" y="-268"/>
    </contour>
  </outline>
</glyph>
<glyph name="la-tamil" format="2">
  <advance width="1160"/>
  <unicode hex="0BB2"/>
  <note>
uni0BB2
</note>
  <anchor x="580" y="0" name="bottom"/>
  <anchor x="580" y="0" name="nukta"/>
  <anchor x="626" y="563" name="top"/>
  <anchor x="577" y="563" name="vedic"/>
  <outline>
    <contour>
      <point x="297" y="-5" type="curve" smooth="yes"/>
      <point x="423" y="-5"/>
      <point x="500" y="68"/>
      <point x="500" y="160" type="curve" smooth="yes"/>
      <point x="500" y="247"/>
      <point x="438" y="323"/>
      <point x="324" y="323" type="curve" smooth="yes"/>
      <point x="211" y="323"/>
      <point x="139" y="253"/>
      <point x="126" y="106" type="curve"/>
      <point x="169" y="87" type="line"/>
      <point x="173" y="194"/>
      <point x="221" y="244"/>
      <point x="282" y="244" type="curve" smooth="yes"/>
      <point x="342" y="244"/>
      <point x="370" y="201"/>
      <point x="370" y="156" type="curve" smooth="yes"/>
      <point x="370" y="109"/>
      <point x="336" y="61"/>
      <point x="264" y="61" type="curve" smooth="yes"/>
      <point x="167" y="61"/>
      <point x="117" y="156"/>
      <point x="117" y="266" type="curve" smooth="yes"/>
      <point x="117" y="401"/>
      <point x="221" y="507"/>
      <point x="387" y="507" type="curve" smooth="yes"/>
      <point x="531" y="507"/>
      <point x="612" y="428"/>
      <point x="612" y="276" type="curve" smooth="yes"/>
      <point x="612" y="191" type="line" smooth="yes"/>
      <point x="612" y="72"/>
      <point x="697" y="-5"/>
      <point x="842" y="-5" type="curve" smooth="yes"/>
      <point x="1000" y="-5"/>
      <point x="1101" y="127"/>
      <point x="1101" y="302" type="curve" smooth="yes"/>
      <point x="1101" y="394"/>
      <point x="1073" y="475"/>
      <point x="999" y="567" type="curve"/>
      <point x="949" y="531" type="line"/>
      <point x="1015" y="448"/>
      <point x="1038" y="384"/>
      <point x="1038" y="290" type="curve" smooth="yes"/>
      <point x="1038" y="170"/>
      <point x="961" y="56"/>
      <point x="875" y="56" type="curve" smooth="yes"/>
      <point x="810" y="56"/>
      <point x="774" y="97"/>
      <point x="774" y="180" type="curve" smooth="yes"/>
      <point x="774" y="286" type="line" smooth="yes"/>
      <point x="774" y="467"/>
      <point x="607" y="568"/>
      <point x="407" y="568" type="curve" smooth="yes"/>
      <point x="182" y="568"/>
      <point x="54" y="431"/>
      <point x="54" y="268" type="curve" smooth="yes"/>
      <point x="54" y="118"/>
      <point x="145" y="-5"/>
    </contour>
  </outline>
</glyph>
<glyph name="va-tamil" format="2">
  <advance width="1220"/>
  <unicode hex="0BB5"/>
  <note>
uni0BB5
</note>
  <anchor x="628" y="0" name="bottom"/>
  <anchor x="994" y="563" name="imatra"/>
  <anchor x="628" y="0" name="nukta"/>
  <anchor x="641" y="563" name="top"/>
  <anchor x="591" y="563" name="vedic"/>
  <outline>
    <contour>
      <point x="297" y="-5" type="curve" smooth="yes"/>
      <point x="423" y="-5"/>
      <point x="500" y="68"/>
      <point x="500" y="160" type="curve" smooth="yes"/>
      <point x="500" y="247"/>
      <point x="438" y="323"/>
      <point x="324" y="323" type="curve" smooth="yes"/>
      <point x="211" y="323"/>
      <point x="139" y="253"/>
      <point x="126" y="106" type="curve"/>
      <point x="169" y="87" type="line"/>
      <point x="173" y="194"/>
      <point x="221" y="244"/>
      <point x="282" y="244" type="curve" smooth="yes"/>
      <point x="342" y="244"/>
      <point x="370" y="201"/>
      <point x="370" y="156" type="curve" smooth="yes"/>
      <point x="370" y="109"/>
      <point x="336" y="61"/>
      <point x="264" y="61" type="curve" smooth="yes"/>
      <point x="167" y="61"/>
      <point x="117" y="156"/>
      <point x="117" y="266" type="curve" smooth="yes"/>
      <point x="117" y="389"/>
      <point x="206" y="507"/>
      <point x="406" y="507" type="curve" smooth="yes"/>
      <point x="558" y="507"/>
      <point x="653" y="407"/>
      <point x="653" y="263" type="curve" smooth="yes"/>
      <point x="653" y="180"/>
      <point x="622" y="95"/>
      <point x="560" y="44" type="curve"/>
      <point x="580" y="0" type="line"/>
      <point x="1129" y="0" type="line"/>
      <point x="1129" y="563" type="line"/>
      <point x="965" y="563" type="line"/>
      <point x="965" y="61" type="line"/>
      <point x="696" y="61" type="line"/>
      <point x="769" y="125"/>
      <point x="804" y="205"/>
      <point x="804" y="281" type="curve" smooth="yes"/>
      <point x="804" y="438"/>
      <point x="652" y="568"/>
      <point x="423" y="568" type="curve" smooth="yes"/>
      <point x="166" y="568"/>
      <point x="54" y="419"/>
      <point x="54" y="268" type="curve" smooth="yes"/>
      <point x="54" y="118"/>
      <point x="145" y="-5"/>
    </contour>
  </outline>
</glyph>
<glyph name="sa-tamil" format="2">
  <advance width="1507"/>
  <unicode hex="0BB8"/>
  <note>
uni0BB8
</note>
  <anchor x="753" y="0" name="bottom"/>
  <anchor x="753" y="0" name="nukta"/>
  <anchor x="744" y="563" name="top"/>
  <anchor x="753" y="563" name="vedic"/>
  <outline>
    <contour>
      <point x="617" y="0" type="line"/>
      <point x="778" y="0" type="line"/>
      <point x="778" y="405" type="line" smooth="yes"/>
      <point x="778" y="474"/>
      <point x="810" y="508"/>
      <point x="873" y="508" type="curve" smooth="yes"/>
      <point x="933" y="508"/>
      <point x="957" y="472"/>
      <point x="957" y="418" type="curve" smooth="yes"/>
      <point x="957" y="191" type="line" smooth="yes"/>
      <point x="957" y="72"/>
      <point x="1042" y="-5"/>
      <point x="1187" y="-5" type="curve" smooth="yes"/>
      <point x="1345" y="-5"/>
      <point x="1448" y="126"/>
      <point x="1448" y="302" type="curve" smooth="yes"/>
      <point x="1448" y="394"/>
      <point x="1422" y="475"/>
      <point x="1348" y="567" type="curve"/>
      <point x="1296" y="530" type="line"/>
      <point x="1362" y="447"/>
      <point x="1383" y="383"/>
      <point x="1383" y="289" type="curve" smooth="yes"/>
      <point x="1383" y="168"/>
      <point x="1306" y="56"/>
      <point x="1221" y="56" type="curve" smooth="yes"/>
      <point x="1155" y="56"/>
      <point x="1120" y="97"/>
      <point x="1120" y="180" type="curve" smooth="yes"/>
      <point x="1120" y="383" type="line" smooth="yes"/>
      <point x="1120" y="495"/>
      <point x="1030" y="568"/>
      <point x="897" y="568" type="curve" smooth="yes"/>
      <point x="777" y="568"/>
      <point x="692" y="516"/>
      <point x="692" y="407" type="curve" smooth="yes"/>
      <point x="692" y="359" type="line"/>
      <point x="617" y="359" type="line"/>
    </contour>
    <contour>
      <point x="305" y="-5" type="curve" smooth="yes"/>
      <point x="431" y="-5"/>
      <point x="504" y="68"/>
      <point x="504" y="160" type="curve" smooth="yes"/>
      <point x="504" y="247"/>
      <point x="445" y="323"/>
      <point x="331" y="323" type="curve" smooth="yes"/>
      <point x="195" y="323"/>
      <point x="139" y="230"/>
      <point x="132" y="105" type="curve"/>
      <point x="174" y="87" type="line"/>
      <point x="178" y="180"/>
      <point x="212" y="244"/>
      <point x="290" y="244" type="curve" smooth="yes"/>
      <point x="350" y="244"/>
      <point x="375" y="201"/>
      <point x="375" y="156" type="curve" smooth="yes"/>
      <point x="375" y="109"/>
      <point x="343" y="61"/>
      <point x="271" y="61" type="curve" smooth="yes"/>
      <point x="174" y="61"/>
      <point x="122" y="157"/>
      <point x="122" y="267" type="curve" smooth="yes"/>
      <point x="122" y="408"/>
      <point x="230" y="503"/>
      <point x="377" y="503" type="curve" smooth="yes"/>
      <point x="519" y="503"/>
      <point x="617" y="445"/>
      <point x="617" y="283" type="curve"/>
      <point x="700" y="283" type="line"/>
      <point x="700" y="467"/>
      <point x="580" y="569"/>
      <point x="387" y="569" type="curve" smooth="yes"/>
      <point x="198" y="569"/>
      <point x="59" y="449"/>
      <point x="59" y="268" type="curve" smooth="yes"/>
      <point x="59" y="118"/>
      <point x="152" y="-5"/>
    </contour>
  </outline>
</glyph>
<glyph name="aaMatra-tamil" format="2">
  <advance width="686"/>
  <unicode hex="0BBE"/>
  <note>
uni0BBE
</note>
  <outline>
    <contour>
      <point x="90" y="0" type="line"/>
      <point x="160" y="0" type="line"/>
      <point x="160" y="502" type="line"/>
      <point x="351" y="502" type="line"/>
      <point x="351" y="0" type="line"/>
      <point x="512" y="0" type="line"/>
      <point x="512" y="502" type="line"/>
      <point x="669" y="502" type="line"/>
      <point x="669" y="563" type="line"/>
      <point x="90" y="563" type="line"/>
    </contour>
  </outline>
</glyph>
<glyph name="iMatra-tamil" format="2">
  <advance width="246"/>
  <unicode hex="0BBF"/>
  <note>
uni0BBF
</note>
  <outline>
    <contour>
      <point x="85" y="0" type="line"/>
      <point x="155" y="0" type="line"/>
      <point x="155" y="560" type="line" smooth="yes"/>
      <point x="155" y="734"/>
      <point x="29" y="868"/>
      <point x="-156" y="868" type="curve" smooth="yes"/>
      <point x="-332" y="868"/>
      <point x="-411" y="770"/>
      <point x="-411" y="671" type="curve" smooth="yes"/>
      <point x="-411" y="574"/>
      <point x="-345" y="517"/>
      <point x="-241" y="517" type="curve" smooth="yes"/>
      <point x="-239" y="517" type="line"/>
      <point x="-239" y="563" type="line"/>
      <point x="-241" y="563" type="line" smooth="yes"/>
      <point x="-293" y="563"/>
      <point x="-334" y="593"/>
      <point x="-334" y="642" type="curve" smooth="yes"/>
      <point x="-334" y="704"/>
      <point x="-271" y="741"/>
      <point x="-167" y="741" type="curve" smooth="yes"/>
      <point x="-21" y="741"/>
      <point x="85" y="659"/>
      <point x="85" y="520" type="curve" smooth="yes"/>
    </contour>
  </outline>
</glyph>
<glyph name="iiMatra-tamil" format="2">
  <unicode hex="0BC0"/>
  <note>
uni0BC0
</note>
  <anchor x="0" y="563" name="_imatra"/>
  <anchor x="25" y="904" name="top"/>
  <outline>
    <contour>
      <point x="-34" y="502" type="curve" smooth="yes"/>
      <point x="0" y="502" type="line"/>
      <point x="0" y="563" type="line"/>
      <point x="-34" y="563" type="line" smooth="yes"/>
      <point x="-112" y="563"/>
      <point x="-155" y="610"/>
      <point x="-155" y="687" type="curve" smooth="yes"/>
      <point x="-155" y="776"/>
      <point x="-88" y="844"/>
      <point x="15" y="844" type="curve" smooth="yes"/>
      <point x="80" y="844"/>
      <point x="125" y="808"/>
      <point x="125" y="749" type="curve" smooth="yes"/>
      <point x="125" y="714"/>
      <point x="99" y="682"/>
      <point x="57" y="682" type="curve" smooth="yes"/>
      <point x="-27" y="682"/>
      <point x="-44" y="781"/>
      <point x="2" y="868" type="curve"/>
      <point x="-53" y="872" type="line"/>
      <point x="-131" y="749"/>
      <point x="-74" y="604"/>
      <point x="78" y="604" type="curve" smooth="yes"/>
      <point x="167" y="604"/>
      <point x="232" y="656"/>
      <point x="232" y="738" type="curve" smooth="yes"/>
      <point x="232" y="844"/>
      <point x="143" y="904"/>
      <point x="25" y="904" type="curve" smooth="yes"/>
      <point x="-117" y="904"/>
      <point x="-223" y="820"/>
      <point x="-223" y="692" type="curve" smooth="yes"/>
      <point x="-223" y="579"/>
      <point x="-147" y="502"/>
    </contour>
  </outline>
</glyph>
<glyph name="uMatra-tamil" format="2">
  <advance width="595"/>
  <unicode hex="0BC1"/>
  <note>
uni0BC1
</note>
  <anchor x="249" y="563" name="top"/>
  <outline>
    <contour>
      <point x="374" y="224" type="curve" smooth="yes"/>
      <point x="471" y="224"/>
      <point x="578" y="278"/>
      <point x="578" y="405" type="curve" smooth="yes"/>
      <point x="578" y="563" type="line"/>
      <point x="-300" y="563" type="line"/>
      <point x="-247" y="502" type="line"/>
      <point x="417" y="502" type="line"/>
      <point x="417" y="391" type="line" smooth="yes"/>
      <point x="417" y="322"/>
      <point x="372" y="298"/>
      <point x="330" y="298" type="curve" smooth="yes"/>
      <point x="274" y="298"/>
      <point x="241" y="332"/>
      <point x="241" y="416" type="curve" smooth="yes"/>
      <point x="241" y="534" type="line"/>
      <point x="174" y="534" type="line"/>
      <point x="174" y="429" type="line" smooth="yes"/>
      <point x="174" y="283"/>
      <point x="261" y="224"/>
    </contour>
  </outline>
</glyph>
<glyph name="uuMatra-tamil" format="2">
  <advance width="966"/>
  <unicode hex="0BC2"/>
  <note>
uni0BC2
</note>
  <outline>
    <contour>
      <point x="436" y="10" type="curve" smooth="yes"/>
      <point x="712" y="10"/>
      <point x="908" y="164"/>
      <point x="908" y="396" type="curve" smooth="yes"/>
      <point x="908" y="616"/>
      <point x="763" y="782"/>
      <point x="503" y="782" type="curve" smooth="yes"/>
      <point x="287" y="782"/>
      <point x="185" y="646"/>
      <point x="185" y="534" type="curve" smooth="yes"/>
      <point x="185" y="429" type="line" smooth="yes"/>
      <point x="185" y="283"/>
      <point x="271" y="224"/>
      <point x="384" y="224" type="curve" smooth="yes"/>
      <point x="479" y="224"/>
      <point x="588" y="274"/>
      <point x="588" y="405" type="curve" smooth="yes"/>
      <point x="588" y="563" type="line"/>
      <point x="-297" y="563" type="line"/>
      <point x="-253" y="502" type="line"/>
      <point x="427" y="502" type="line"/>
      <point x="427" y="391" type="line" smooth="yes"/>
      <point x="427" y="322"/>
      <point x="382" y="298"/>
      <point x="340" y="298" type="curve" smooth="yes"/>
      <point x="284" y="298"/>
      <point x="251" y="332"/>
      <point x="251" y="416" type="curve" smooth="yes"/>
      <point x="251" y="534" type="line" smooth="yes"/>
      <point x="251" y="624"/>
      <point x="355" y="708"/>
      <point x="480" y="708" type="curve" smooth="yes"/>
      <point x="673" y="708"/>
      <point x="744" y="588"/>
      <point x="744" y="405" type="curve" smooth="yes"/>
      <point x="744" y="209"/>
      <point x="629" y="79"/>
      <point x="436" y="79" type="curve" smooth="yes"/>
      <point x="301" y="79"/>
      <point x="181" y="132"/>
      <point x="97" y="246" type="curve"/>
      <point x="49" y="208" type="line"/>
      <point x="140" y="82"/>
      <point x="287" y="10"/>
    </contour>
  </outline>
</glyph>
<glyph name="eMatra-tamil" format="2">
  <advance width="905"/>
  <unicode hex="0BC6"/>
  <note>
uni0BC6
</note>
  <outline>
    <contour>
      <point x="356" y="-5" type="curve" smooth="yes"/>
      <point x="482" y="-5"/>
      <point x="558" y="68"/>
      <point x="558" y="160" type="curve" smooth="yes"/>
      <point x="558" y="254"/>
      <point x="496" y="330"/>
      <point x="382" y="330" type="curve" smooth="yes"/>
      <point x="262" y="330"/>
      <point x="190" y="253"/>
      <point x="178" y="106" type="curve"/>
      <point x="220" y="87" type="line"/>
      <point x="224" y="194"/>
      <point x="272" y="251"/>
      <point x="341" y="251" type="curve" smooth="yes"/>
      <point x="401" y="251"/>
      <point x="429" y="208"/>
      <point x="429" y="156" type="curve" smooth="yes"/>
      <point x="429" y="109"/>
      <point x="395" y="61"/>
      <point x="323" y="61" type="curve" smooth="yes"/>
      <point x="201" y="61"/>
      <point x="122" y="210"/>
      <point x="122" y="383" type="curve" smooth="yes"/>
      <point x="122" y="593"/>
      <point x="262" y="741"/>
      <point x="459" y="741" type="curve" smooth="yes"/>
      <point x="658" y="741"/>
      <point x="744" y="636"/>
      <point x="744" y="397" type="curve" smooth="yes"/>
      <point x="744" y="0" type="line"/>
      <point x="814" y="0" type="line"/>
      <point x="814" y="456" type="line" smooth="yes"/>
      <point x="814" y="720"/>
      <point x="706" y="863"/>
      <point x="462" y="863" type="curve" smooth="yes"/>
      <point x="214" y="863"/>
      <point x="59" y="662"/>
      <point x="59" y="395" type="curve" smooth="yes"/>
      <point x="59" y="168"/>
      <point x="184" y="-5"/>
    </contour>
  </outline>
</glyph>
<glyph name="eeMatra-tamil" format="2">
  <advance width="702"/>
  <unicode hex="0BC7"/>
  <note>
uni0BC7
</note>
  <outline>
    <contour>
      <point x="443" y="-5" type="curve" smooth="yes"/>
      <point x="558" y="-5"/>
      <point x="653" y="54"/>
      <point x="653" y="160" type="curve" smooth="yes"/>
      <point x="653" y="254"/>
      <point x="591" y="330"/>
      <point x="478" y="330" type="curve" smooth="yes"/>
      <point x="357" y="330"/>
      <point x="275" y="249"/>
      <point x="273" y="82" type="curve"/>
      <point x="315" y="63" type="line"/>
      <point x="310" y="189"/>
      <point x="367" y="251"/>
      <point x="436" y="251" type="curve" smooth="yes"/>
      <point x="496" y="251"/>
      <point x="524" y="208"/>
      <point x="524" y="156" type="curve" smooth="yes"/>
      <point x="524" y="97"/>
      <point x="476" y="61"/>
      <point x="412" y="61" type="curve" smooth="yes"/>
      <point x="295" y="61"/>
      <point x="122" y="175"/>
      <point x="122" y="429" type="curve" smooth="yes"/>
      <point x="122" y="682"/>
      <point x="295" y="796"/>
      <point x="412" y="796" type="curve" smooth="yes"/>
      <point x="476" y="796"/>
      <point x="524" y="760"/>
      <point x="524" y="702" type="curve" smooth="yes"/>
      <point x="524" y="649"/>
      <point x="496" y="606"/>
      <point x="436" y="606" type="curve" smooth="yes"/>
      <point x="367" y="606"/>
      <point x="310" y="668"/>
      <point x="315" y="795" type="curve"/>
      <point x="273" y="776" type="line"/>
      <point x="275" y="609"/>
      <point x="357" y="527"/>
      <point x="478" y="527" type="curve" smooth="yes"/>
      <point x="591" y="527"/>
      <point x="653" y="604"/>
      <point x="653" y="697" type="curve" smooth="yes"/>
      <point x="653" y="803"/>
      <point x="558" y="862"/>
      <point x="443" y="862" type="curve" smooth="yes"/>
      <point x="272" y="862"/>
      <point x="59" y="722"/>
      <point x="59" y="429" type="curve" smooth="yes"/>
      <point x="59" y="135"/>
      <point x="272" y="-5"/>
    </contour>
  </outline>
</glyph>
<glyph name="aiMatra-tamil" format="2">
  <advance width="1426"/>
  <unicode hex="0BC8"/>
  <note>
uni0BC8
</note>
  <outline>
    <contour>
      <point x="1141" y="-20" type="line"/>
      <point x="1301" y="30"/>
      <point x="1373" y="120"/>
      <point x="1373" y="251" type="curve" smooth="yes"/>
      <point x="1373" y="449"/>
      <point x="1193" y="568"/>
      <point x="979" y="568" type="curve" smooth="yes"/>
      <point x="759" y="568"/>
      <point x="596" y="411"/>
      <point x="596" y="206" type="curve" smooth="yes"/>
      <point x="596" y="73"/>
      <point x="668" y="-6"/>
      <point x="791" y="-6" type="curve" smooth="yes"/>
      <point x="910" y="-6"/>
      <point x="985" y="70"/>
      <point x="985" y="204" type="curve" smooth="yes"/>
      <point x="985" y="417"/>
      <point x="757" y="567"/>
      <point x="488" y="567" type="curve" smooth="yes"/>
      <point x="252" y="567"/>
      <point x="54" y="452"/>
      <point x="54" y="230" type="curve" smooth="yes"/>
      <point x="54" y="87"/>
      <point x="152" y="-6"/>
      <point x="298" y="-6" type="curve" smooth="yes"/>
      <point x="424" y="-6"/>
      <point x="500" y="66"/>
      <point x="500" y="159" type="curve" smooth="yes"/>
      <point x="500" y="245"/>
      <point x="438" y="321"/>
      <point x="325" y="321" type="curve" smooth="yes"/>
      <point x="206" y="321"/>
      <point x="127" y="238"/>
      <point x="127" y="104" type="curve"/>
      <point x="170" y="85" type="line"/>
      <point x="174" y="193"/>
      <point x="222" y="243"/>
      <point x="283" y="243" type="curve" smooth="yes"/>
      <point x="343" y="243"/>
      <point x="371" y="199"/>
      <point x="371" y="154" type="curve" smooth="yes"/>
      <point x="371" y="107"/>
      <point x="337" y="60"/>
      <point x="265" y="60" type="curve" smooth="yes"/>
      <point x="172" y="60"/>
      <point x="117" y="125"/>
      <point x="117" y="230" type="curve" smooth="yes"/>
      <point x="117" y="404"/>
      <point x="258" y="506"/>
      <point x="473" y="506" type="curve" smooth="yes"/>
      <point x="703" y="506"/>
      <point x="839" y="389"/>
      <point x="839" y="198" type="curve" smooth="yes"/>
      <point x="839" y="114"/>
      <point x="807" y="64"/>
      <point x="751" y="64" type="curve" smooth="yes"/>
      <point x="694" y="64"/>
      <point x="660" y="118"/>
      <point x="660" y="204" type="curve" smooth="yes"/>
      <point x="660" y="375"/>
      <point x="789" y="507"/>
      <point x="979" y="507" type="curve" smooth="yes"/>
      <point x="1134" y="507"/>
      <point x="1226" y="403"/>
      <point x="1226" y="249" type="curve" smooth="yes"/>
      <point x="1226" y="163"/>
      <point x="1189" y="75"/>
      <point x="1115" y="22" type="curve"/>
    </contour>
  </outline>
</glyph>
<glyph name="halant-tamil" format="2">
  <unicode hex="0BCD"/>
  <note>
uni0BCD
</note>
  <anchor x="0" y="563" name="_top"/>
  <anchor x="0" y="777" name="top"/>
  <outline>
    <contour>
      <point x="0" y="639" type="curve" smooth="yes"/>
      <point x="50" y="639"/>
      <point x="90" y="679"/>
      <point x="90" y="727" type="curve" smooth="yes"/>
      <point x="90" y="774"/>
      <point x="50" y="814"/>
      <point x="0" y="814" type="curve" smooth="yes"/>
      <point x="-50" y="814"/>
      <point x="-90" y="774"/>
      <point x="-90" y="727" type="curve" smooth="yes"/>
      <point x="-90" y="679"/>
      <point x="-50" y="639"/>
    </contour>
  </outline>
</glyph>
<glyph name="om-tamil" format="2">
  <advance width="1083"/>
  <unicode hex="0BD0"/>
  <note>
uni0BD0
</note>
  <outline>
    <contour>
      <point x="401" y="-400" type="curve" smooth="yes"/>
      <point x="729" y="-400"/>
      <point x="717" y="-162"/>
      <point x="878" y="-162" type="curve" smooth="yes"/>
      <point x="937" y="-162" type="line"/>
      <point x="937" y="-96" type="line"/>
      <point x="848" y="-96" type="line" smooth="yes"/>
      <point x="684" y="-96"/>
      <point x="596" y="17"/>
      <point x="596" y="121" type="curve" smooth="yes"/>
      <point x="596" y="161"/>
      <point x="609" y="200"/>
      <point x="636" y="231" type="curve"/>
      <point x="643" y="227" type="line"/>
      <point x="635" y="205"/>
      <point x="631" y="183"/>
      <point x="631" y="161" type="curve" smooth="yes"/>
      <point x="631" y="81"/>
      <point x="686" y="10"/>
      <point x="817" y="10" type="curve" smooth="yes"/>
      <point x="944" y="10"/>
      <point x="1030" y="92"/>
      <point x="1030" y="214" type="curve" smooth="yes"/>
      <point x="1030" y="447"/>
      <point x="786" y="568"/>
      <point x="511" y="568" type="curve" smooth="yes"/>
      <point x="285" y="568"/>
      <point x="54" y="461"/>
      <point x="54" y="252" type="curve" smooth="yes"/>
      <point x="54" y="125"/>
      <point x="145" y="17"/>
      <point x="292" y="17" type="curve" smooth="yes"/>
      <point x="414" y="17"/>
      <point x="490" y="90"/>
      <point x="490" y="180" type="curve" smooth="yes"/>
      <point x="490" y="264"/>
      <point x="428" y="340"/>
      <point x="319" y="340" type="curve" smooth="yes"/>
      <point x="206" y="340"/>
      <point x="129" y="271"/>
      <point x="117" y="118" type="curve"/>
      <point x="159" y="99" type="line"/>
      <point x="163" y="211"/>
      <point x="216" y="261"/>
      <point x="277" y="261" type="curve" smooth="yes"/>
      <point x="333" y="261"/>
      <point x="360" y="218"/>
      <point x="360" y="175" type="curve" smooth="yes"/>
      <point x="360" y="131"/>
      <point x="326" y="83"/>
      <point x="259" y="83" type="curve" smooth="yes"/>
      <point x="167" y="83"/>
      <point x="117" y="155"/>
      <point x="117" y="252" type="curve" smooth="yes"/>
      <point x="117" y="421"/>
      <point x="321" y="514"/>
      <point x="511" y="514" type="curve" smooth="yes"/>
      <point x="716" y="514"/>
      <point x="877" y="424"/>
      <point x="877" y="243" type="curve" smooth="yes"/>
      <point x="877" y="157"/>
      <point x="852" y="76"/>
      <point x="773" y="76" type="curve" smooth="yes"/>
      <point x="719" y="76"/>
      <point x="687" y="120"/>
      <point x="687" y="176" type="curve" smooth="yes"/>
      <point x="687" y="208"/>
      <point x="697" y="244"/>
      <point x="719" y="278" type="curve"/>
      <point x="657" y="324" type="line"/>
      <point x="583" y="278"/>
      <point x="544" y="198"/>
      <point x="544" y="117" type="curve" smooth="yes"/>
      <point x="544" y="26"/>
      <point x="593" y="-66"/>
      <point x="698" y="-115" type="curve"/>
      <point x="698" y="-120" type="line"/>
      <point x="593" y="-133"/>
      <point x="577" y="-333"/>
      <point x="336" y="-333" type="curve" smooth="yes"/>
      <point x="211" y="-333"/>
      <point x="155" y="-266"/>
      <point x="155" y="-185" type="curve" smooth="yes"/>
      <point x="155" y="-172"/>
      <point x="156" y="-159"/>
      <point x="159" y="-146" type="curve"/>
      <point x="104" y="-133" type="line"/>
      <point x="100" y="-151"/>
      <point x="99" y="-169"/>
      <point x="99" y="-185" type="curve" smooth="yes"/>
      <point x="99" y="-327"/>
      <point x="229" y="-400"/>
    </contour>
    <contour>
      <point x="224" y="-262" type="line"/>
      <point x="275" y="-262" type="line"/>
      <point x="275" y="-105" type="line"/>
      <point x="224" y="-105" type="line"/>
    </contour>
    <contour>
      <point x="243" y="-262" type="line"/>
      <point x="466" y="-262" type="line"/>
      <point x="466" y="-217" type="line"/>
      <point x="243" y="-217" type="line"/>
    </contour>
    <contour>
      <point x="331" y="-262" type="line"/>
      <point x="380" y="-262" type="line"/>
      <point x="380" y="-173" type="line" smooth="yes"/>
      <point x="380" y="-159"/>
      <point x="390" y="-146"/>
      <point x="409" y="-146" type="curve" smooth="yes"/>
      <point x="429" y="-146"/>
      <point x="438" y="-159"/>
      <point x="438" y="-173" type="curve" smooth="yes"/>
      <point x="438" y="-262" type="line"/>
      <point x="490" y="-262" type="line"/>
      <point x="490" y="-181" type="line" smooth="yes"/>
      <point x="490" y="-122"/>
      <point x="449" y="-103"/>
      <point x="409" y="-103" type="curve" smooth="yes"/>
      <point x="369" y="-103"/>
      <point x="331" y="-122"/>
      <point x="331" y="-181" type="curve" smooth="yes"/>
    </contour>
    <contour>
      <point x="358" y="-81" type="curve" smooth="yes"/>
      <point x="377" y="-81"/>
      <point x="393" y="-65"/>
      <point x="393" y="-48" type="curve" smooth="yes"/>
      <point x="393" y="-30"/>
      <point x="377" y="-15"/>
      <point x="358" y="-15" type="curve" smooth="yes"/>
      <point x="338" y="-15"/>
      <point x="323" y="-30"/>
      <point x="323" y="-48" type="curve" smooth="yes"/>
      <point x="323" y="-65"/>
      <point x="338" y="-81"/>
    </contour>
  </outline>
</glyph>
<glyph name="zero-tamil" format="2">
  <advance width="667"/>
  <unicode hex="0BE6"/>
  <note>
uni0BE6
</note>
  <outline>
    <contour>
      <point x="328" y="-5" type="curve" smooth="yes"/>
      <point x="511" y="-5"/>
      <point x="614" y="112"/>
      <point x="614" y="282" type="curve" smooth="yes"/>
      <point x="614" y="457"/>
      <point x="504" y="568"/>
      <point x="328" y="568" type="curve" smooth="yes"/>
      <point x="152" y="568"/>
      <point x="54" y="449"/>
      <point x="54" y="282" type="curve" smooth="yes"/>
      <point x="54" y="125"/>
      <point x="152" y="-5"/>
    </contour>
    <contour>
      <point x="294" y="56" type="curve" smooth="yes"/>
      <point x="174" y="56"/>
      <point x="116" y="160"/>
      <point x="116" y="282" type="curve" smooth="yes"/>
      <point x="116" y="409"/>
      <point x="174" y="507"/>
      <point x="294" y="507" type="curve" smooth="yes"/>
      <point x="404" y="507"/>
      <point x="458" y="428"/>
      <point x="458" y="282" type="curve" smooth="yes"/>
      <point x="458" y="140"/>
      <point x="395" y="56"/>
    </contour>
  </outline>
</glyph>
<glyph name="one-tamil" format="2">
  <advance width="924"/>
  <unicode hex="0BE7"/>
  <note>
uni0BE7
</note>
  <outline>
    <contour>
      <point x="284" y="-5" type="curve" smooth="yes"/>
      <point x="481" y="-5"/>
      <point x="578" y="90"/>
      <point x="578" y="227" type="curve" smooth="yes"/>
      <point x="578" y="270" type="line"/>
      <point x="597" y="270" type="line" smooth="yes"/>
      <point x="668" y="270"/>
      <point x="710" y="229"/>
      <point x="710" y="158" type="curve" smooth="yes"/>
      <point x="710" y="95"/>
      <point x="668" y="61"/>
      <point x="616" y="61" type="curve" smooth="yes"/>
      <point x="572" y="61"/>
      <point x="538" y="82"/>
      <point x="514" y="119" type="curve"/>
      <point x="472" y="85" type="line"/>
      <point x="514" y="24"/>
      <point x="578" y="-5"/>
      <point x="660" y="-5" type="curve" smooth="yes"/>
      <point x="756" y="-5"/>
      <point x="866" y="42"/>
      <point x="866" y="155" type="curve" smooth="yes"/>
      <point x="866" y="271"/>
      <point x="765" y="331"/>
      <point x="598" y="331" type="curve" smooth="yes"/>
      <point x="578" y="331" type="line"/>
      <point x="578" y="502" type="line"/>
      <point x="735" y="502" type="line"/>
      <point x="735" y="563" type="line"/>
      <point x="203" y="563" type="line"/>
      <point x="203" y="299" type="line"/>
      <point x="271" y="299" type="line"/>
      <point x="271" y="502" type="line"/>
      <point x="415" y="502" type="line"/>
      <point x="415" y="331" type="line"/>
      <point x="246" y="331" type="line" smooth="yes"/>
      <point x="125" y="331"/>
      <point x="59" y="260"/>
      <point x="59" y="170" type="curve" smooth="yes"/>
      <point x="59" y="64"/>
      <point x="144" y="-5"/>
    </contour>
    <contour>
      <point x="266" y="61" type="curve" smooth="yes"/>
      <point x="170" y="61"/>
      <point x="131" y="107"/>
      <point x="131" y="169" type="curve" smooth="yes"/>
      <point x="131" y="225"/>
      <point x="170" y="270"/>
      <point x="259" y="270" type="curve" smooth="yes"/>
      <point x="415" y="270" type="line"/>
      <point x="415" y="217" type="line" smooth="yes"/>
      <point x="415" y="118"/>
      <point x="354" y="61"/>
    </contour>
  </outline>
</glyph>
<glyph name="two-tamil" format="2">
  <advance width="1003"/>
  <unicode hex="0BE8"/>
  <note>
uni0BE8
</note>
  <outline>
    <contour>
      <point x="167" y="0" type="curve" smooth="yes"/>
      <point x="986" y="0" type="line"/>
      <point x="986" y="61" type="line"/>
      <point x="162" y="61" type="line" smooth="yes"/>
      <point x="138" y="61"/>
      <point x="125" y="78"/>
      <point x="125" y="98" type="curve" smooth="yes"/>
      <point x="125" y="117"/>
      <point x="138" y="134"/>
      <point x="162" y="134" type="curve" smooth="yes"/>
      <point x="409" y="134" type="line" smooth="yes"/>
      <point x="581" y="134"/>
      <point x="718" y="207"/>
      <point x="718" y="352" type="curve" smooth="yes"/>
      <point x="718" y="503"/>
      <point x="572" y="568"/>
      <point x="396" y="568" type="curve" smooth="yes"/>
      <point x="228" y="568"/>
      <point x="103" y="503"/>
      <point x="103" y="352" type="curve" smooth="yes"/>
      <point x="103" y="212"/>
      <point x="229" y="159"/>
      <point x="363" y="159" type="curve"/>
      <point x="363" y="193" type="line"/>
      <point x="246" y="193"/>
      <point x="165" y="252"/>
      <point x="165" y="350" type="curve" smooth="yes"/>
      <point x="165" y="453"/>
      <point x="246" y="507"/>
      <point x="363" y="507" type="curve" smooth="yes"/>
      <point x="480" y="507"/>
      <point x="562" y="453"/>
      <point x="562" y="350" type="curve" smooth="yes"/>
      <point x="562" y="252"/>
      <point x="481" y="193"/>
      <point x="363" y="193" type="curve" smooth="yes"/>
      <point x="167" y="193" type="line" smooth="yes"/>
      <point x="101" y="193"/>
      <point x="62" y="156"/>
      <point x="62" y="98" type="curve" smooth="yes"/>
      <point x="62" y="39"/>
      <point x="101" y="0"/>
    </contour>
  </outline>
</glyph>
<glyph name="five-tamil" format="2">
  <advance width="1208"/>
  <unicode hex="0BEB"/>
  <note>
uni0BEB
</note>
  <outline>
    <contour>
      <point x="601" y="-324" type="curve" smooth="yes"/>
      <point x="879" y="-324"/>
      <point x="1091" y="-172"/>
      <point x="1091" y="87" type="curve" smooth="yes"/>
      <point x="1091" y="231"/>
      <point x="1017" y="341"/>
      <point x="898" y="341" type="curve" smooth="yes"/>
      <point x="793" y="341"/>
      <point x="728" y="279"/>
      <point x="728" y="171" type="curve" smooth="yes"/>
      <point x="728" y="137" type="line"/>
      <point x="762" y="137" type="line"/>
      <point x="762" y="169" type="line" smooth="yes"/>
      <point x="762" y="224"/>
      <point x="793" y="252"/>
      <point x="836" y="252" type="curve" smooth="yes"/>
      <point x="903" y="252"/>
      <point x="926" y="188"/>
      <point x="926" y="98" type="curve" smooth="yes"/>
      <point x="926" y="-121"/>
      <point x="796" y="-263"/>
      <point x="571" y="-263" type="curve" smooth="yes"/>
      <point x="291" y="-263"/>
      <point x="128" y="-41"/>
      <point x="128" y="261" type="curve" smooth="yes"/>
      <point x="128" y="555"/>
      <point x="300" y="741"/>
      <point x="623" y="741" type="curve" smooth="yes"/>
      <point x="854" y="741"/>
      <point x="1056" y="622"/>
      <point x="1071" y="385" type="curve"/>
      <point x="1139" y="385" type="line"/>
      <point x="1120" y="690"/>
      <point x="888" y="863"/>
      <point x="612" y="863" type="curve" smooth="yes"/>
      <point x="287" y="863"/>
      <point x="59" y="629"/>
      <point x="59" y="261" type="curve" smooth="yes"/>
      <point x="59" y="-89"/>
      <point x="264" y="-324"/>
    </contour>
    <contour>
      <point x="369" y="0" type="line"/>
      <point x="438" y="0" type="line"/>
      <point x="438" y="502" type="line"/>
      <point x="598" y="502" type="line"/>
      <point x="598" y="0" type="line"/>
      <point x="762" y="0" type="line"/>
      <point x="762" y="502" type="line"/>
      <point x="919" y="502" type="line"/>
      <point x="919" y="563" type="line"/>
      <point x="369" y="563" type="line"/>
    </contour>
  </outline>
</glyph>
<glyph name="eight-tamil" format="2">
  <advance width="1351"/>
  <unicode hex="0BEE"/>
  <note>
uni0BEE
</note>
  <outline>
    <contour>
      <point x="1101" y="-212" type="line"/>
      <point x="1260" y="-212" type="line"/>
      <point x="1260" y="563" type="line"/>
      <point x="1101" y="563" type="line"/>
      <point x="1101" y="165" type="line"/>
      <point x="128" y="165" type="line" smooth="yes"/>
      <point x="61" y="165"/>
      <point x="29" y="128"/>
      <point x="29" y="77" type="curve" smooth="yes"/>
      <point x="29" y="-42"/>
      <point x="204" y="-151"/>
      <point x="469" y="-151" type="curve" smooth="yes"/>
      <point x="760" y="-151"/>
      <point x="1008" y="-10"/>
      <point x="1008" y="245" type="curve" smooth="yes"/>
      <point x="1008" y="414"/>
      <point x="877" y="568"/>
      <point x="668" y="568" type="curve" smooth="yes"/>
      <point x="496" y="568"/>
      <point x="387" y="458"/>
      <point x="387" y="326" type="curve" smooth="yes"/>
      <point x="387" y="265"/>
      <point x="411" y="199"/>
      <point x="463" y="137" type="curve"/>
      <point x="536" y="137" type="line"/>
      <point x="479" y="193"/>
      <point x="453" y="260"/>
      <point x="453" y="321" type="curve" smooth="yes"/>
      <point x="453" y="421"/>
      <point x="523" y="506"/>
      <point x="648" y="506" type="curve" smooth="yes"/>
      <point x="771" y="506"/>
      <point x="847" y="434"/>
      <point x="847" y="281" type="curve" smooth="yes"/>
      <point x="847" y="50"/>
      <point x="683" y="-89"/>
      <point x="450" y="-89" type="curve" smooth="yes"/>
      <point x="239" y="-89"/>
      <point x="97" y="-3"/>
      <point x="97" y="75" type="curve" smooth="yes"/>
      <point x="97" y="93"/>
      <point x="106" y="104"/>
      <point x="133" y="104" type="curve" smooth="yes"/>
      <point x="1101" y="104" type="line"/>
    </contour>
  </outline>
</glyph>
<glyph name="nine-tamil" format="2">
  <advance width="1326"/>
  <unicode hex="0BEF"/>
  <note>
uni0BEF
</note>
  <outline>
    <contour>
      <point x="1111" y="-20" type="line"/>
      <point x="1213" y="12"/>
      <point x="1287" y="72"/>
      <point x="1287" y="186" type="curve" smooth="yes"/>
      <point x="1287" y="327"/>
      <point x="1145" y="427"/>
      <point x="974" y="427" type="curve" smooth="yes"/>
      <point x="808" y="427"/>
      <point x="661" y="338"/>
      <point x="661" y="181" type="curve" smooth="yes"/>
      <point x="661" y="65"/>
      <point x="732" y="-5"/>
      <point x="852" y="-5" type="curve" smooth="yes"/>
      <point x="955" y="-5"/>
      <point x="1035" y="49"/>
      <point x="1035" y="152" type="curve" smooth="yes"/>
      <point x="1035" y="262"/>
      <point x="946" y="331"/>
      <point x="793" y="331" type="curve" smooth="yes"/>
      <point x="578" y="331" type="line"/>
      <point x="578" y="502" type="line"/>
      <point x="735" y="502" type="line"/>
      <point x="735" y="563" type="line"/>
      <point x="203" y="563" type="line"/>
      <point x="203" y="299" type="line"/>
      <point x="271" y="299" type="line"/>
      <point x="271" y="502" type="line"/>
      <point x="415" y="502" type="line"/>
      <point x="415" y="331" type="line"/>
      <point x="246" y="331" type="line" smooth="yes"/>
      <point x="125" y="331"/>
      <point x="59" y="260"/>
      <point x="59" y="170" type="curve" smooth="yes"/>
      <point x="59" y="64"/>
      <point x="144" y="-5"/>
      <point x="284" y="-5" type="curve" smooth="yes"/>
      <point x="481" y="-5"/>
      <point x="578" y="90"/>
      <point x="578" y="227" type="curve" smooth="yes"/>
      <point x="578" y="270" type="line"/>
      <point x="778" y="270" type="line" smooth="yes"/>
      <point x="854" y="270"/>
      <point x="913" y="224"/>
      <point x="913" y="152" type="curve" smooth="yes"/>
      <point x="913" y="97"/>
      <point x="877" y="61"/>
      <point x="823" y="61" type="curve" smooth="yes"/>
      <point x="761" y="61"/>
      <point x="729" y="112"/>
      <point x="729" y="170" type="curve" smooth="yes"/>
      <point x="729" y="304"/>
      <point x="826" y="366"/>
      <point x="955" y="366" type="curve" smooth="yes"/>
      <point x="1087" y="366"/>
      <point x="1165" y="288"/>
      <point x="1165" y="180" type="curve" smooth="yes"/>
      <point x="1165" y="115"/>
      <point x="1138" y="60"/>
      <point x="1079" y="30" type="curve"/>
    </contour>
    <contour>
      <point x="266" y="61" type="curve" smooth="yes"/>
      <point x="170" y="61"/>
      <point x="131" y="107"/>
      <point x="131" y="169" type="curve" smooth="yes"/>
      <point x="131" y="225"/>
      <point x="170" y="270"/>
      <point x="259" y="270" type="curve" smooth="yes"/>
      <point x="415" y="270" type="line"/>
      <point x="415" y="217" type="line" smooth="yes"/>
      <point x="415" y="118"/>
      <point x="354" y="61"/>
    </contour>
  </outline>
</glyph>
<glyph name="ten-tamil" format="2">
  <advance width="956"/>
  <unicode hex="0BF0"/>
  <note>
uni0BF0
</note>
  <outline>
    <contour>
      <point x="602" y="-5" type="curve" smooth="yes"/>
      <point x="771" y="-5"/>
      <point x="887" y="147"/>
      <point x="887" y="343" type="curve" smooth="yes"/>
      <point x="887" y="564"/>
      <point x="782" y="790"/>
      <point x="401" y="824" type="curve"/>
      <point x="395" y="762" type="line"/>
      <point x="741" y="730"/>
      <point x="817" y="531"/>
      <point x="817" y="352" type="curve" smooth="yes"/>
      <point x="817" y="181"/>
      <point x="728" y="66"/>
      <point x="633" y="66" type="curve" smooth="yes"/>
      <point x="592" y="66"/>
      <point x="568" y="93"/>
      <point x="568" y="141" type="curve" smooth="yes"/>
      <point x="568" y="563" type="line"/>
      <point x="406" y="563" type="line"/>
      <point x="406" y="192" type="line" smooth="yes"/>
      <point x="406" y="69"/>
      <point x="474" y="-5"/>
    </contour>
    <contour>
      <point x="271" y="-5" type="curve" smooth="yes"/>
      <point x="372" y="-5"/>
      <point x="442" y="52"/>
      <point x="442" y="140" type="curve" smooth="yes"/>
      <point x="442" y="236" type="line"/>
      <point x="406" y="236" type="line"/>
      <point x="406" y="146" type="line" smooth="yes"/>
      <point x="406" y="97"/>
      <point x="374" y="66"/>
      <point x="327" y="66" type="curve" smooth="yes"/>
      <point x="280" y="66"/>
      <point x="252" y="96"/>
      <point x="252" y="154" type="curve" smooth="yes"/>
      <point x="252" y="563" type="line"/>
      <point x="88" y="563" type="line"/>
      <point x="88" y="166" type="line" smooth="yes"/>
      <point x="88" y="61"/>
      <point x="159" y="-5"/>
    </contour>
  </outline>
</glyph>
<glyph name="day-tamil" format="2">
  <advance width="899"/>
  <unicode hex="0BF3"/>
  <note>
uni0BF3
</note>
  <outline>
    <contour>
      <point x="257" y="-5" type="curve" smooth="yes"/>
      <point x="380" y="-5"/>
      <point x="440" y="78"/>
      <point x="440" y="177" type="curve" smooth="yes"/>
      <point x="440" y="279"/>
      <point x="371" y="347"/>
      <point x="269" y="347" type="curve" smooth="yes"/>
      <point x="173" y="347"/>
      <point x="98" y="274"/>
      <point x="77" y="196" type="curve"/>
      <point x="95" y="146" type="line"/>
      <point x="119" y="224"/>
      <point x="162" y="262"/>
      <point x="213" y="262" type="curve" smooth="yes"/>
      <point x="282" y="262"/>
      <point x="301" y="208"/>
      <point x="301" y="153" type="curve" smooth="yes"/>
      <point x="301" y="106"/>
      <point x="277" y="64"/>
      <point x="228" y="64" type="curve" smooth="yes"/>
      <point x="143" y="64"/>
      <point x="112" y="166"/>
      <point x="112" y="239" type="curve" smooth="yes"/>
      <point x="112" y="385"/>
      <point x="208" y="505"/>
      <point x="347" y="505" type="curve" smooth="yes"/>
      <point x="494" y="505"/>
      <point x="561" y="381"/>
      <point x="561" y="263" type="curve" smooth="yes"/>
      <point x="561" y="180"/>
      <point x="529" y="95"/>
      <point x="467" y="44" type="curve"/>
      <point x="487" y="0" type="line"/>
      <point x="882" y="0" type="line"/>
      <point x="882" y="61" type="line"/>
      <point x="603" y="61" type="line"/>
      <point x="676" y="125"/>
      <point x="711" y="205"/>
      <point x="711" y="281" type="curve" smooth="yes"/>
      <point x="711" y="434"/>
      <point x="599" y="568"/>
      <point x="384" y="568" type="curve" smooth="yes"/>
      <point x="190" y="568"/>
      <point x="54" y="440"/>
      <point x="54" y="250" type="curve" smooth="yes"/>
      <point x="54" y="88"/>
      <point x="132" y="-5"/>
    </contour>
  </outline>
</glyph>
<glyph name="month-tamil" format="2">
  <advance width="1266"/>
  <unicode hex="0BF4"/>
  <note>
uni0BF4
</note>
  <anchor x="487" y="0" name="bottom"/>
  <anchor x="906" y="563" name="imatra"/>
  <anchor x="487" y="0" name="nukta"/>
  <anchor x="541" y="563" name="top"/>
  <anchor x="503" y="563" name="vedic"/>
  <outline>
    <contour>
      <point x="811" y="466" type="curve"/>
      <point x="843" y="490" type="line"/>
      <point x="795" y="542"/>
      <point x="755" y="590"/>
      <point x="755" y="662" type="curve" smooth="yes"/>
      <point x="755" y="750"/>
      <point x="816" y="810"/>
      <point x="914" y="810" type="curve" smooth="yes"/>
      <point x="977" y="810"/>
      <point x="1025" y="767"/>
      <point x="1025" y="709" type="curve" smooth="yes"/>
      <point x="1025" y="665"/>
      <point x="995" y="642"/>
      <point x="960" y="642" type="curve" smooth="yes"/>
      <point x="911" y="642"/>
      <point x="887" y="688"/>
      <point x="887" y="742" type="curve" smooth="yes"/>
      <point x="887" y="836"/>
      <point x="957" y="909"/>
      <point x="1056" y="909" type="curve" smooth="yes"/>
      <point x="1142" y="909"/>
      <point x="1194" y="864"/>
      <point x="1194" y="786" type="curve" smooth="yes"/>
      <point x="1194" y="581" type="line"/>
      <point x="1316" y="581" type="line"/>
      <point x="1316" y="811" type="line" smooth="yes"/>
      <point x="1316" y="874"/>
      <point x="1343" y="915"/>
      <point x="1408" y="896" type="curve"/>
      <point x="1422" y="959" type="line"/>
      <point x="1327" y="982"/>
      <point x="1266" y="922"/>
      <point x="1257" y="850" type="curve"/>
      <point x="1252" y="850" type="line"/>
      <point x="1231" y="927"/>
      <point x="1154" y="970"/>
      <point x="1061" y="970" type="curve" smooth="yes"/>
      <point x="928" y="970"/>
      <point x="823" y="870"/>
      <point x="823" y="740" type="curve" smooth="yes"/>
      <point x="823" y="647"/>
      <point x="882" y="576"/>
      <point x="975" y="576" type="curve" smooth="yes"/>
      <point x="1057" y="576"/>
      <point x="1123" y="628"/>
      <point x="1123" y="700" type="curve" smooth="yes"/>
      <point x="1123" y="811"/>
      <point x="1033" y="871"/>
      <point x="910" y="871" type="curve" smooth="yes"/>
      <point x="779" y="871"/>
      <point x="687" y="786"/>
      <point x="687" y="668" type="curve" smooth="yes"/>
      <point x="687" y="594"/>
      <point x="726" y="534"/>
    </contour>
    <component base="ma-tamil"/>
  </outline>
</glyph>
<glyph name="year-tamil" format="2">
  <advance width="2350"/>
  <unicode hex="0BF5"/>
  <note>
uni0BF5
</note>
  <anchor x="955" y="0" name="bottom"/>
  <anchor x="1386" y="563" name="imatra"/>
  <anchor x="955" y="0" name="nukta"/>
  <anchor x="955" y="563" name="top"/>
  <anchor x="907" y="563" name="vedic"/>
  <outline>
    <contour>
      <point x="921" y="-324" type="curve" smooth="yes"/>
      <point x="1307" y="-324"/>
      <point x="1698" y="-202"/>
      <point x="1698" y="106" type="curve" smooth="yes"/>
      <point x="1698" y="248"/>
      <point x="1638" y="342"/>
      <point x="1510" y="342" type="curve" smooth="yes"/>
      <point x="1424" y="342"/>
      <point x="1340" y="289"/>
      <point x="1340" y="194" type="curve" smooth="yes"/>
      <point x="1340" y="140" type="line"/>
      <point x="1382" y="140" type="line"/>
      <point x="1382" y="184" type="line" smooth="yes"/>
      <point x="1382" y="229"/>
      <point x="1409" y="252"/>
      <point x="1447" y="252" type="curve" smooth="yes"/>
      <point x="1505" y="252"/>
      <point x="1528" y="207"/>
      <point x="1528" y="121" type="curve" smooth="yes"/>
      <point x="1528" y="-137"/>
      <point x="1242" y="-263"/>
      <point x="922" y="-263" type="curve" smooth="yes"/>
      <point x="511" y="-263"/>
      <point x="128" y="-79"/>
      <point x="128" y="264" type="curve" smooth="yes"/>
      <point x="128" y="635"/>
      <point x="544" y="802"/>
      <point x="981" y="802" type="curve" smooth="yes"/>
      <point x="1383" y="802"/>
      <point x="1815" y="637"/>
      <point x="1815" y="293" type="curve" smooth="yes"/>
      <point x="1815" y="191" type="line" smooth="yes"/>
      <point x="1815" y="72"/>
      <point x="1899" y="-5"/>
      <point x="2044" y="-5" type="curve" smooth="yes"/>
      <point x="2207" y="-5"/>
      <point x="2292" y="128"/>
      <point x="2292" y="303" type="curve" smooth="yes"/>
      <point x="2292" y="395"/>
      <point x="2270" y="481"/>
      <point x="2195" y="568" type="curve"/>
      <point x="2144" y="531" type="line"/>
      <point x="2209" y="453"/>
      <point x="2230" y="384"/>
      <point x="2230" y="290" type="curve" smooth="yes"/>
      <point x="2230" y="170"/>
      <point x="2158" y="56"/>
      <point x="2078" y="56" type="curve" smooth="yes"/>
      <point x="2012" y="56"/>
      <point x="1977" y="97"/>
      <point x="1977" y="180" type="curve" smooth="yes"/>
      <point x="1977" y="283" type="line" smooth="yes"/>
      <point x="1977" y="693"/>
      <point x="1466" y="863"/>
      <point x="984" y="863" type="curve" smooth="yes"/>
      <point x="448" y="863"/>
      <point x="59" y="651"/>
      <point x="59" y="266" type="curve" smooth="yes"/>
      <point x="59" y="-111"/>
      <point x="476" y="-324"/>
    </contour>
    <component base="lla-tamil" xOffset="221"/>
  </outline>
</glyph>
<glyph name="debit-tamil" format="2">
  <advance width="1311"/>
  <unicode hex="0BF6"/>
  <note>
uni0BF6
</note>
  <outline>
    <contour>
      <point x="416" y="-380" type="curve" smooth="yes"/>
      <point x="714" y="-380"/>
      <point x="859" y="-219"/>
      <point x="859" y="-3" type="curve" smooth="yes"/>
      <point x="859" y="563" type="line"/>
      <point x="696" y="563" type="line"/>
      <point x="696" y="1" type="line" smooth="yes"/>
      <point x="696" y="-241"/>
      <point x="543" y="-319"/>
      <point x="396" y="-319" type="curve" smooth="yes"/>
      <point x="242" y="-319"/>
      <point x="109" y="-232"/>
      <point x="109" y="-155" type="curve" smooth="yes"/>
      <point x="109" y="-136"/>
      <point x="118" y="-125"/>
      <point x="145" y="-125" type="curve" smooth="yes"/>
      <point x="1220" y="-125" type="line"/>
      <point x="1220" y="563" type="line"/>
      <point x="1055" y="563" type="line"/>
      <point x="1055" y="-64" type="line"/>
      <point x="141" y="-64" type="line" smooth="yes"/>
      <point x="73" y="-64"/>
      <point x="42" y="-101"/>
      <point x="42" y="-153" type="curve" smooth="yes"/>
      <point x="42" y="-271"/>
      <point x="207" y="-380"/>
    </contour>
    <contour>
      <point x="90" y="15" type="line"/>
      <point x="778" y="15" type="line"/>
      <point x="778" y="76" type="line"/>
      <point x="251" y="76" type="line"/>
      <point x="251" y="563" type="line"/>
      <point x="90" y="563" type="line"/>
    </contour>
  </outline>
</glyph>
<glyph name="asabove-tamil" format="2">
  <advance width="2096"/>
  <unicode hex="0BF8"/>
  <note>
uni0BF8
</note>
  <outline>
    <contour>
      <point x="807" y="-5" type="curve" smooth="yes"/>
      <point x="947" y="-5"/>
      <point x="1025" y="91"/>
      <point x="1025" y="234" type="curve" smooth="yes"/>
      <point x="1025" y="468"/>
      <point x="787" y="648"/>
      <point x="513" y="648" type="curve" smooth="yes"/>
      <point x="270" y="648"/>
      <point x="54" y="505"/>
      <point x="54" y="253" type="curve" smooth="yes"/>
      <point x="54" y="102"/>
      <point x="151" y="-5"/>
      <point x="298" y="-5" type="curve" smooth="yes"/>
      <point x="424" y="-5"/>
      <point x="500" y="68"/>
      <point x="500" y="160" type="curve" smooth="yes"/>
      <point x="500" y="247"/>
      <point x="438" y="323"/>
      <point x="325" y="323" type="curve" smooth="yes"/>
      <point x="212" y="323"/>
      <point x="140" y="253"/>
      <point x="127" y="106" type="curve"/>
      <point x="170" y="87" type="line"/>
      <point x="174" y="194"/>
      <point x="222" y="244"/>
      <point x="283" y="244" type="curve" smooth="yes"/>
      <point x="343" y="244"/>
      <point x="371" y="201"/>
      <point x="371" y="156" type="curve" smooth="yes"/>
      <point x="371" y="109"/>
      <point x="337" y="61"/>
      <point x="265" y="61" type="curve" smooth="yes"/>
      <point x="172" y="61"/>
      <point x="117" y="139"/>
      <point x="117" y="251" type="curve" smooth="yes"/>
      <point x="117" y="467"/>
      <point x="304" y="587"/>
      <point x="512" y="587" type="curve" smooth="yes"/>
      <point x="738" y="587"/>
      <point x="878" y="436"/>
      <point x="878" y="229" type="curve" smooth="yes"/>
      <point x="878" y="134"/>
      <point x="845" y="61"/>
      <point x="767" y="61" type="curve" smooth="yes"/>
      <point x="698" y="61"/>
      <point x="665" y="130"/>
      <point x="665" y="204" type="curve" smooth="yes"/>
      <point x="665" y="331"/>
      <point x="737" y="507"/>
      <point x="978" y="507" type="curve" smooth="yes"/>
      <point x="1120" y="507"/>
      <point x="1225" y="407"/>
      <point x="1225" y="263" type="curve" smooth="yes"/>
      <point x="1225" y="180"/>
      <point x="1199" y="95"/>
      <point x="1137" y="44" type="curve"/>
      <point x="1157" y="0" type="line"/>
      <point x="2079" y="0" type="line"/>
      <point x="2079" y="61" type="line"/>
      <point x="1246" y="61" type="line"/>
      <point x="1255" y="45" type="line"/>
      <point x="1333" y="98"/>
      <point x="1372" y="178"/>
      <point x="1372" y="266" type="curve" smooth="yes"/>
      <point x="1372" y="468"/>
      <point x="1198" y="568"/>
      <point x="977" y="568" type="curve" smooth="yes"/>
      <point x="706" y="568"/>
      <point x="601" y="366"/>
      <point x="601" y="215" type="curve" smooth="yes"/>
      <point x="601" y="76"/>
      <point x="670" y="-5"/>
    </contour>
    <contour>
      <point x="1764" y="-324" type="line"/>
      <point x="1923" y="-324" type="line"/>
      <point x="1923" y="385" type="line" smooth="yes"/>
      <point x="1923" y="516"/>
      <point x="1853" y="568"/>
      <point x="1732" y="568" type="curve" smooth="yes"/>
      <point x="1599" y="568"/>
      <point x="1494" y="469"/>
      <point x="1494" y="301" type="curve" smooth="yes"/>
      <point x="1494" y="137"/>
      <point x="1601" y="13"/>
      <point x="1753" y="13" type="curve"/>
      <point x="1753" y="62" type="line"/>
      <point x="1638" y="62"/>
      <point x="1557" y="164"/>
      <point x="1557" y="294" type="curve" smooth="yes"/>
      <point x="1557" y="413"/>
      <point x="1615" y="474"/>
      <point x="1684" y="474" type="curve" smooth="yes"/>
      <point x="1736" y="474"/>
      <point x="1764" y="450"/>
      <point x="1764" y="393" type="curve" smooth="yes"/>
    </contour>
  </outline>
</glyph>
<glyph name="rupee-tamil" format="2">
  <advance width="1169"/>
  <unicode hex="0BF9"/>
  <note>
uni0BF9
</note>
  <outline>
    <contour>
      <point x="625" y="-324" type="curve" smooth="yes"/>
      <point x="928" y="-324"/>
      <point x="1115" y="-163"/>
      <point x="1115" y="73" type="curve" smooth="yes"/>
      <point x="1115" y="219"/>
      <point x="1045" y="341"/>
      <point x="913" y="341" type="curve" smooth="yes"/>
      <point x="808" y="341"/>
      <point x="737" y="279"/>
      <point x="737" y="171" type="curve" smooth="yes"/>
      <point x="737" y="137" type="line"/>
      <point x="771" y="137" type="line"/>
      <point x="771" y="169" type="line" smooth="yes"/>
      <point x="771" y="224"/>
      <point x="808" y="252"/>
      <point x="851" y="252" type="curve" smooth="yes"/>
      <point x="927" y="252"/>
      <point x="950" y="188"/>
      <point x="950" y="98" type="curve" smooth="yes"/>
      <point x="950" y="-131"/>
      <point x="826" y="-263"/>
      <point x="596" y="-263" type="curve" smooth="yes"/>
      <point x="306" y="-263"/>
      <point x="128" y="-11"/>
      <point x="128" y="300" type="curve" smooth="yes"/>
      <point x="128" y="618"/>
      <point x="302" y="820"/>
      <point x="447" y="820" type="curve" smooth="yes"/>
      <point x="526" y="820"/>
      <point x="552" y="771"/>
      <point x="552" y="737" type="curve" smooth="yes"/>
      <point x="552" y="701"/>
      <point x="529" y="679"/>
      <point x="497" y="679" type="curve" smooth="yes"/>
      <point x="458" y="679"/>
      <point x="439" y="713"/>
      <point x="439" y="753" type="curve" smooth="yes"/>
      <point x="439" y="842"/>
      <point x="498" y="897"/>
      <point x="593" y="897" type="curve" smooth="yes"/>
      <point x="682" y="897"/>
      <point x="737" y="847"/>
      <point x="737" y="765" type="curve" smooth="yes"/>
      <point x="737" y="730"/>
      <point x="720" y="693"/>
      <point x="681" y="666" type="curve"/>
      <point x="697" y="618" type="line"/>
      <point x="929" y="618" type="line"/>
      <point x="929" y="676" type="line"/>
      <point x="747" y="676" type="line"/>
      <point x="748" y="650" type="line"/>
      <point x="800" y="679"/>
      <point x="834" y="721"/>
      <point x="834" y="783" type="curve" smooth="yes"/>
      <point x="834" y="893"/>
      <point x="732" y="964"/>
      <point x="610" y="964" type="curve" smooth="yes"/>
      <point x="479" y="964"/>
      <point x="376" y="878"/>
      <point x="376" y="758" type="curve" smooth="yes"/>
      <point x="376" y="672"/>
      <point x="429" y="618"/>
      <point x="514" y="618" type="curve" smooth="yes"/>
      <point x="588" y="618"/>
      <point x="650" y="660"/>
      <point x="650" y="737" type="curve" smooth="yes"/>
      <point x="650" y="813"/>
      <point x="588" y="877"/>
      <point x="467" y="877" type="curve" smooth="yes"/>
      <point x="212" y="877"/>
      <point x="59" y="605"/>
      <point x="59" y="300" type="curve" smooth="yes"/>
      <point x="59" y="-60"/>
      <point x="279" y="-324"/>
    </contour>
    <contour>
      <point x="379" y="0" type="line"/>
      <point x="448" y="0" type="line"/>
      <point x="448" y="502" type="line"/>
      <point x="608" y="502" type="line"/>
      <point x="608" y="0" type="line"/>
      <point x="771" y="0" type="line"/>
      <point x="771" y="502" type="line"/>
      <point x="929" y="502" type="line"/>
      <point x="929" y="563" type="line"/>
      <point x="379" y="563" type="line"/>
    </contour>
  </outline>
</glyph>
<glyph name="endash" format="2">
  <advance width="500"/>
  <unicode hex="2013"/>
  <outline>
    <contour>
      <point x="-5" y="233" type="line"/>
      <point x="505" y="233" type="line"/>
      <point x="505" y="304" type="line"/>
      <point x="-5" y="304" type="line"/>
    </contour>
  </outline>
</glyph>
<glyph name="quoteleft" format="2">
  <advance width="280"/>
  <unicode hex="2018"/>
  <outline>
    <contour>
      <point x="148" y="408" type="curve" smooth="yes"/>
      <point x="189" y="408"/>
      <point x="220" y="432"/>
      <point x="220" y="477" type="curve" smooth="yes"/>
      <point x="220" y="557"/>
      <point x="147" y="546"/>
      <point x="147" y="584" type="curve" smooth="yes"/>
      <point x="147" y="623"/>
      <point x="177" y="641"/>
      <point x="235" y="662" type="curve"/>
      <point x="235" y="714" type="line"/>
      <point x="105" y="679"/>
      <point x="56" y="603"/>
      <point x="56" y="518" type="curve" smooth="yes"/>
      <point x="56" y="450"/>
      <point x="92" y="408"/>
    </contour>
  </outline>
</glyph>
<glyph name="quoteright" format="2">
  <advance width="280"/>
  <unicode hex="2019"/>
  <outline>
    <contour>
      <point x="45" y="408" type="line"/>
      <point x="175" y="443"/>
      <point x="224" y="519"/>
      <point x="224" y="604" type="curve" smooth="yes"/>
      <point x="224" y="672"/>
      <point x="188" y="714"/>
      <point x="132" y="714" type="curve" smooth="yes"/>
      <point x="91" y="714"/>
      <point x="60" y="690"/>
      <point x="60" y="645" type="curve" smooth="yes"/>
      <point x="60" y="565"/>
      <point x="133" y="576"/>
      <point x="133" y="538" type="curve"/>
      <point x="133" y="499"/>
      <point x="103" y="481"/>
      <point x="45" y="460" type="curve"/>
    </contour>
  </outline>
</glyph>
<glyph name="quotedblleft" format="2">
  <advance width="489"/>
  <unicode hex="201C"/>
  <outline>
    <contour>
      <point x="357" y="408" type="curve" smooth="yes"/>
      <point x="398" y="408"/>
      <point x="429" y="432"/>
      <point x="429" y="477" type="curve" smooth="yes"/>
      <point x="429" y="557"/>
      <point x="356" y="546"/>
      <point x="356" y="584" type="curve"/>
      <point x="356" y="623"/>
      <point x="386" y="641"/>
      <point x="444" y="662" type="curve"/>
      <point x="444" y="714" type="line"/>
      <point x="314" y="679"/>
      <point x="265" y="603"/>
      <point x="265" y="518" type="curve" smooth="yes"/>
      <point x="265" y="450"/>
      <point x="301" y="408"/>
    </contour>
    <contour>
      <point x="148" y="408" type="curve" smooth="yes"/>
      <point x="189" y="408"/>
      <point x="220" y="432"/>
      <point x="220" y="477" type="curve" smooth="yes"/>
      <point x="220" y="557"/>
      <point x="147" y="546"/>
      <point x="147" y="584" type="curve" smooth="yes"/>
      <point x="147" y="623"/>
      <point x="177" y="641"/>
      <point x="235" y="662" type="curve"/>
      <point x="235" y="714" type="line"/>
      <point x="105" y="679"/>
      <point x="56" y="603"/>
      <point x="56" y="518" type="curve" smooth="yes"/>
      <point x="56" y="450"/>
      <point x="92" y="408"/>
    </contour>
  </outline>
</glyph>
<glyph name="ellipsis" format="2">
  <advance width="912"/>
  <unicode hex="2026"/>
  <outline>
    <contour>
      <point x="760" y="-8" type="curve" smooth="yes"/>
      <point x="804" y="-8"/>
      <point x="842" y="12"/>
      <point x="842" y="72" type="curve" smooth="yes"/>
      <point x="842" y="133"/>
      <point x="804" y="152"/>
      <point x="760" y="152" type="curve" smooth="yes"/>
      <point x="714" y="152"/>
      <point x="678" y="133"/>
      <point x="678" y="72" type="curve" smooth="yes"/>
      <point x="678" y="12"/>
      <point x="714" y="-8"/>
    </contour>
    <contour>
      <point x="152" y="-8" type="curve" smooth="yes"/>
      <point x="196" y="-8"/>
      <point x="234" y="12"/>
      <point x="234" y="72" type="curve" smooth="yes"/>
      <point x="234" y="133"/>
      <point x="196" y="152"/>
      <point x="152" y="152" type="curve" smooth="yes"/>
      <point x="106" y="152"/>
      <point x="70" y="133"/>
      <point x="70" y="72" type="curve" smooth="yes"/>
      <point x="70" y="12"/>
      <point x="106" y="-8"/>
    </contour>
    <contour>
      <point x="456" y="-8" type="curve" smooth="yes"/>
      <point x="500" y="-8"/>
      <point x="538" y="12"/>
      <point x="538" y="72" type="curve" smooth="yes"/>
      <point x="538" y="133"/>
      <point x="500" y="152"/>
      <point x="456" y="152" type="curve" smooth="yes"/>
      <point x="410" y="152"/>
      <point x="374" y="133"/>
      <point x="374" y="72" type="curve" smooth="yes"/>
      <point x="374" y="12"/>
      <point x="410" y="-8"/>
    </contour>
  </outline>
</glyph>
<glyph name="foursuperior" format="2">
  <advance width="400"/>
  <unicode hex="2074"/>
  <outline>
    <contour>
      <point x="137" y="387" type="line"/>
      <point x="367" y="387" type="line"/>
      <point x="367" y="431" type="line"/>
      <point x="347" y="431" type="line"/>
      <point x="325" y="431"/>
      <point x="305" y="435"/>
      <point x="305" y="469" type="curve"/>
      <point x="305" y="504" type="line"/>
      <point x="383" y="504" type="line"/>
      <point x="383" y="557" type="line"/>
      <point x="305" y="557" type="line"/>
      <point x="305" y="819" type="line"/>
      <point x="215" y="819" type="line"/>
      <point x="16" y="544" type="line"/>
      <point x="16" y="504" type="line"/>
      <point x="206" y="504" type="line"/>
      <point x="206" y="469" type="line"/>
      <point x="206" y="435"/>
      <point x="187" y="431"/>
      <point x="165" y="431" type="curve"/>
      <point x="137" y="431" type="line"/>
    </contour>
    <contour>
      <point x="82" y="557" type="line"/>
      <point x="196" y="714" type="line"/>
      <point x="199" y="719"/>
      <point x="206" y="731"/>
      <point x="211" y="742" type="curve"/>
      <point x="208" y="717"/>
      <point x="206" y="698"/>
      <point x="206" y="677" type="curve"/>
      <point x="206" y="557" type="line"/>
    </contour>
  </outline>
</glyph>
<glyph name="rupeeIndian" format="2">
  <advance width="559"/>
  <unicode hex="20B9"/>
  <outline>
    <contour>
      <point x="398" y="0" type="curve" smooth="yes"/>
      <point x="451" y="0" type="line"/>
      <point x="451" y="53" type="line"/>
      <point x="447" y="53" type="line" smooth="yes"/>
      <point x="409" y="53"/>
      <point x="376" y="82"/>
      <point x="342" y="135" type="curve" smooth="yes"/>
      <point x="221" y="325" type="line"/>
      <point x="328" y="344"/>
      <point x="390" y="392"/>
      <point x="402" y="491" type="curve"/>
      <point x="515" y="491" type="line"/>
      <point x="515" y="550" type="line"/>
      <point x="403" y="550" type="line"/>
      <point x="400" y="598"/>
      <point x="384" y="624"/>
      <point x="352" y="655" type="curve"/>
      <point x="515" y="655" type="line"/>
      <point x="515" y="714" type="line"/>
      <point x="45" y="714" type="line"/>
      <point x="45" y="655" type="line"/>
      <point x="126" y="655" type="line" smooth="yes"/>
      <point x="198" y="655"/>
      <point x="227" y="626"/>
      <point x="234" y="550" type="curve"/>
      <point x="45" y="550" type="line"/>
      <point x="45" y="491" type="line"/>
      <point x="234" y="491" type="line"/>
      <point x="224" y="407"/>
      <point x="149" y="368"/>
      <point x="64" y="368" type="curve" smooth="yes"/>
      <point x="45" y="368" type="line"/>
      <point x="45" y="320" type="line"/>
      <point x="184" y="90" type="line" smooth="yes"/>
      <point x="229" y="16"/>
      <point x="278" y="0"/>
    </contour>
  </outline>
</glyph>
<glyph name="minus" format="2">
  <advance width="559"/>
  <unicode hex="2212"/>
  <outline>
    <contour>
      <point x="65" y="322" type="line"/>
      <point x="494" y="322" type="line"/>
      <point x="494" y="393" type="line"/>
      <point x="65" y="393" type="line"/>
    </contour>
  </outline>
</glyph>
<glyph name="candrabinduhalant-deva" format="2">
  <advance width="490"/>
  <unicode hex="A8F3"/>
  <note>
uniA8F3
</note>
  <outline>
    <contour>
      <point x="253" y="307" type="curve" smooth="yes"/>
      <point x="378" y="307"/>
      <point x="438" y="395"/>
      <point x="454" y="512" type="curve"/>
      <point x="353" y="533" type="line"/>
      <point x="348" y="449"/>
      <point x="309" y="396"/>
      <point x="232" y="396" type="curve" smooth="yes"/>
      <point x="174" y="396"/>
      <point x="125" y="430"/>
      <point x="101" y="528" type="curve"/>
      <point x="46" y="512" type="line"/>
      <point x="75" y="383"/>
      <point x="152" y="307"/>
    </contour>
    <contour>
      <point x="236" y="462" type="curve" smooth="yes"/>
      <point x="266" y="462"/>
      <point x="292" y="476"/>
      <point x="292" y="516" type="curve" smooth="yes"/>
      <point x="292" y="558"/>
      <point x="266" y="571"/>
      <point x="236" y="571" type="curve" smooth="yes"/>
      <point x="204" y="571"/>
      <point x="179" y="558"/>
      <point x="179" y="516" type="curve" smooth="yes"/>
      <point x="179" y="476"/>
      <point x="204" y="462"/>
    </contour>
    <contour>
      <point x="386" y="37" type="curve"/>
      <point x="433" y="66" type="line"/>
      <point x="319" y="212"/>
      <point x="298" y="261"/>
      <point x="196" y="261" type="curve" smooth="yes"/>
      <point x="164" y="261"/>
      <point x="137" y="252"/>
      <point x="117" y="246" type="curve"/>
      <point x="159" y="151" type="line"/>
      <point x="184" y="160"/>
      <point x="202" y="166"/>
      <point x="230" y="166" type="curve" smooth="yes"/>
      <point x="283" y="166"/>
      <point x="313" y="129"/>
    </contour>
  </outline>
</glyph>
<glyph name="u11301" format="2">
  <unicode hex="11301"/>
  <anchor x="0" y="563" name="_vedic"/>
  <outline>
    <contour>
      <point x="12" y="930" type="curve" smooth="yes"/>
      <point x="139" y="930"/>
      <point x="200" y="984"/>
      <point x="200" y="1059" type="curve" smooth="yes"/>
      <point x="200" y="1091"/>
      <point x="185" y="1132"/>
      <point x="141" y="1132" type="curve" smooth="yes"/>
      <point x="135" y="1132"/>
      <point x="123" y="1131"/>
      <point x="117" y="1128" type="curve"/>
      <point x="124" y="1114"/>
      <point x="127" y="1093"/>
      <point x="127" y="1077" type="curve" smooth="yes"/>
      <point x="127" y="1020"/>
      <point x="84" y="997"/>
      <point x="19" y="997" type="curve" smooth="yes"/>
      <point x="-57" y="997"/>
      <point x="-96" y="1022"/>
      <point x="-96" y="1081" type="curve" smooth="yes"/>
      <point x="-96" y="1097"/>
      <point x="-93" y="1115"/>
      <point x="-88" y="1129" type="curve"/>
      <point x="-96" y="1132"/>
      <point x="-109" y="1134"/>
      <point x="-120" y="1134" type="curve" smooth="yes"/>
      <point x="-168" y="1134"/>
      <point x="-199" y="1099"/>
      <point x="-199" y="1052" type="curve" smooth="yes"/>
      <point x="-199" y="994"/>
      <point x="-155" y="930"/>
    </contour>
    <contour>
      <point x="13" y="1032" type="curve" smooth="yes"/>
      <point x="55" y="1032"/>
      <point x="74" y="1052"/>
      <point x="74" y="1083" type="curve" smooth="yes"/>
      <point x="74" y="1113"/>
      <point x="56" y="1135"/>
      <point x="13" y="1135" type="curve" smooth="yes"/>
      <point x="-29" y="1135"/>
      <point x="-47" y="1113"/>
      <point x="-47" y="1084" type="curve" smooth="yes"/>
      <point x="-47" y="1052"/>
      <point x="-27" y="1032"/>
    </contour>
  </outline>
</glyph>
<glyph name="visarga-grantha" format="2">
  <advance width="300"/>
  <unicode hex="11303"/>
  <outline>
    <contour>
      <point x="155" y="-4" type="curve" smooth="yes"/>
      <point x="232" y="-4"/>
      <point x="295" y="53"/>
      <point x="295" y="130" type="curve" smooth="yes"/>
      <point x="295" y="207"/>
      <point x="232" y="264"/>
      <point x="155" y="264" type="curve" smooth="yes"/>
      <point x="77" y="264"/>
      <point x="15" y="207"/>
      <point x="15" y="130" type="curve" smooth="yes"/>
      <point x="15" y="53"/>
      <point x="77" y="-4"/>
    </contour>
    <contour>
      <point x="155" y="74" type="curve" smooth="yes"/>
      <point x="120" y="74"/>
      <point x="95" y="97"/>
      <point x="95" y="130" type="curve" smooth="yes"/>
      <point x="95" y="163"/>
      <point x="120" y="186"/>
      <point x="155" y="186" type="curve" smooth="yes"/>
      <point x="189" y="186"/>
      <point x="214" y="163"/>
      <point x="214" y="130" type="curve" smooth="yes"/>
      <point x="214" y="97"/>
      <point x="189" y="74"/>
    </contour>
    <contour>
      <point x="155" y="299" type="curve" smooth="yes"/>
      <point x="232" y="299"/>
      <point x="295" y="357"/>
      <point x="295" y="434" type="curve" smooth="yes"/>
      <point x="295" y="511"/>
      <point x="232" y="568"/>
      <point x="155" y="568" type="curve" smooth="yes"/>
      <point x="77" y="568"/>
      <point x="15" y="511"/>
      <point x="15" y="434" type="curve" smooth="yes"/>
      <point x="15" y="357"/>
      <point x="77" y="299"/>
    </contour>
    <contour>
      <point x="155" y="377" type="curve" smooth="yes"/>
      <point x="120" y="377"/>
      <point x="95" y="401"/>
      <point x="95" y="434" type="curve" smooth="yes"/>
      <point x="95" y="466"/>
      <point x="120" y="490"/>
      <point x="155" y="490" type="curve" smooth="yes"/>
      <point x="189" y="490"/>
      <point x="214" y="466"/>
      <point x="214" y="434" type="curve" smooth="yes"/>
      <point x="214" y="401"/>
      <point x="189" y="377"/>
    </contour>
  </outline>
</glyph>
<glyph name="u1133B" format="2">
  <unicode hex="1133B"/>
  <anchor x="0" y="0" name="_nukta"/>
  <outline>
    <contour>
      <point x="0" y="-243" type="curve" smooth="yes"/>
      <point x="50" y="-243"/>
      <point x="90" y="-203"/>
      <point x="90" y="-155" type="curve" smooth="yes"/>
      <point x="90" y="-108"/>
      <point x="50" y="-68"/>
      <point x="0" y="-68" type="curve" smooth="yes"/>
      <point x="-50" y="-68"/>
      <point x="-90" y="-108"/>
      <point x="-90" y="-155" type="curve" smooth="yes"/>
      <point x="-90" y="-203"/>
      <point x="-50" y="-243"/>
    </contour>
  </outline>
</glyph>
<glyph name="nukta-grantha" format="2">
  <unicode hex="1133C"/>
  <anchor x="0" y="0" name="_nukta"/>
  <outline>
    <contour>
      <point x="-154" y="-243" type="curve" smooth="yes"/>
      <point x="-104" y="-243"/>
      <point x="-64" y="-203"/>
      <point x="-64" y="-155" type="curve" smooth="yes"/>
      <point x="-64" y="-108"/>
      <point x="-104" y="-68"/>
      <point x="-154" y="-68" type="curve" smooth="yes"/>
      <point x="-204" y="-68"/>
      <point x="-244" y="-108"/>
      <point x="-244" y="-155" type="curve" smooth="yes"/>
      <point x="-244" y="-203"/>
      <point x="-204" y="-243"/>
    </contour>
    <contour>
      <point x="154" y="-243" type="curve" smooth="yes"/>
      <point x="204" y="-243"/>
      <point x="244" y="-203"/>
      <point x="244" y="-155" type="curve" smooth="yes"/>
      <point x="244" y="-108"/>
      <point x="204" y="-68"/>
      <point x="154" y="-68" type="curve" smooth="yes"/>
      <point x="104" y="-68"/>
      <point x="64" y="-108"/>
      <point x="64" y="-155" type="curve" smooth="yes"/>
      <point x="64" y="-203"/>
      <point x="104" y="-243"/>
    </contour>
  </outline>
</glyph>
<glyph name="anusvara-tamil.alt" format="2">
  <note>
uni0B82
</note>
  <anchor x="0" y="433" name="_top"/>
  <outline>
    <contour>
      <point x="0" y="620" type="curve" smooth="yes"/>
      <point x="79" y="620"/>
      <point x="143" y="681"/>
      <point x="143" y="763" type="curve" smooth="yes"/>
      <point x="143" y="845"/>
      <point x="79" y="906"/>
      <point x="0" y="906" type="curve" smooth="yes"/>
      <point x="-79" y="906"/>
      <point x="-143" y="845"/>
      <point x="-143" y="763" type="curve" smooth="yes"/>
      <point x="-143" y="681"/>
      <point x="-79" y="620"/>
    </contour>
    <contour>
      <point x="0" y="697" type="curve" smooth="yes"/>
      <point x="-34" y="697"/>
      <point x="-63" y="726"/>
      <point x="-63" y="763" type="curve" smooth="yes"/>
      <point x="-63" y="799"/>
      <point x="-34" y="828"/>
      <point x="0" y="828" type="curve" smooth="yes"/>
      <point x="34" y="828"/>
      <point x="63" y="799"/>
      <point x="63" y="763" type="curve" smooth="yes"/>
      <point x="63" y="726"/>
      <point x="34" y="697"/>
    </contour>
  </outline>
</glyph>
<glyph name="cu-tamil" format="2">
  <advance width="991"/>
  <note>
g106
</note>
  <anchor x="495" y="0" name="bottom"/>
  <anchor x="495" y="0" name="nukta"/>
  <anchor x="495" y="563" name="top"/>
  <anchor x="516" y="563" name="vedic"/>
  <outline>
    <contour>
      <point x="284" y="-4" type="curve" smooth="yes"/>
      <point x="481" y="-4"/>
      <point x="578" y="90"/>
      <point x="578" y="227" type="curve" smooth="yes"/>
      <point x="578" y="270" type="line"/>
      <point x="705" y="270" type="line"/>
      <point x="705" y="0" type="line"/>
      <point x="852" y="0" type="line"/>
      <point x="852" y="270" type="line"/>
      <point x="974" y="270" type="line"/>
      <point x="974" y="331" type="line"/>
      <point x="578" y="331" type="line"/>
      <point x="578" y="502" type="line"/>
      <point x="735" y="502" type="line"/>
      <point x="735" y="563" type="line"/>
      <point x="203" y="563" type="line"/>
      <point x="203" y="314" type="line"/>
      <point x="271" y="314" type="line"/>
      <point x="271" y="502" type="line"/>
      <point x="415" y="502" type="line"/>
      <point x="415" y="331" type="line"/>
      <point x="246" y="331" type="line" smooth="yes"/>
      <point x="125" y="331"/>
      <point x="59" y="260"/>
      <point x="59" y="170" type="curve" smooth="yes"/>
      <point x="59" y="64"/>
      <point x="144" y="-4"/>
    </contour>
    <contour>
      <point x="266" y="61" type="curve" smooth="yes"/>
      <point x="170" y="61"/>
      <point x="131" y="107"/>
      <point x="131" y="169" type="curve" smooth="yes"/>
      <point x="131" y="225"/>
      <point x="170" y="270"/>
      <point x="259" y="270" type="curve" smooth="yes"/>
      <point x="415" y="270" type="line"/>
      <point x="415" y="217" type="line" smooth="yes"/>
      <point x="415" y="118"/>
      <point x="354" y="61"/>
    </contour>
  </outline>
</glyph>
<glyph name="cuu-tamil" format="2">
  <advance width="1359"/>
  <note>
g107
</note>
  <anchor x="709" y="0" name="bottom"/>
  <anchor x="709" y="-324" name="nukta"/>
  <anchor x="691" y="563" name="top"/>
  <anchor x="682" y="563" name="vedic"/>
  <outline>
    <contour>
      <point x="709" y="-324" type="curve" smooth="yes"/>
      <point x="1082" y="-324"/>
      <point x="1306" y="-180"/>
      <point x="1306" y="14" type="curve" smooth="yes"/>
      <point x="1306" y="124"/>
      <point x="1242" y="193"/>
      <point x="1153" y="193" type="curve" smooth="yes"/>
      <point x="1060" y="193"/>
      <point x="1012" y="126"/>
      <point x="1012" y="39" type="curve" smooth="yes"/>
      <point x="1012" y="15" type="line"/>
      <point x="1046" y="15" type="line"/>
      <point x="1046" y="43" type="line" smooth="yes"/>
      <point x="1046" y="84"/>
      <point x="1069" y="111"/>
      <point x="1105" y="111" type="curve" smooth="yes"/>
      <point x="1145" y="111"/>
      <point x="1162" y="81"/>
      <point x="1162" y="29" type="curve" smooth="yes"/>
      <point x="1162" y="-143"/>
      <point x="1030" y="-263"/>
      <point x="684" y="-263" type="curve" smooth="yes"/>
      <point x="384" y="-263"/>
      <point x="127" y="-113"/>
      <point x="127" y="175" type="curve" smooth="yes"/>
      <point x="127" y="287"/>
      <point x="173" y="385"/>
      <point x="268" y="472" type="curve"/>
      <point x="216" y="520" type="line"/>
      <point x="110" y="421"/>
      <point x="59" y="301"/>
      <point x="59" y="177" type="curve" smooth="yes"/>
      <point x="59" y="-126"/>
      <point x="322" y="-324"/>
    </contour>
    <contour>
      <point x="479" y="-4" type="curve" smooth="yes"/>
      <point x="676" y="-4"/>
      <point x="773" y="90"/>
      <point x="773" y="227" type="curve" smooth="yes"/>
      <point x="773" y="270" type="line"/>
      <point x="900" y="270" type="line"/>
      <point x="900" y="0" type="line"/>
      <point x="1046" y="0" type="line"/>
      <point x="1046" y="270" type="line"/>
      <point x="1168" y="270" type="line"/>
      <point x="1168" y="331" type="line"/>
      <point x="773" y="331" type="line"/>
      <point x="773" y="502" type="line"/>
      <point x="930" y="502" type="line"/>
      <point x="930" y="563" type="line"/>
      <point x="398" y="563" type="line"/>
      <point x="398" y="314" type="line"/>
      <point x="466" y="314" type="line"/>
      <point x="466" y="502" type="line"/>
      <point x="609" y="502" type="line"/>
      <point x="609" y="331" type="line"/>
      <point x="440" y="331" type="line" smooth="yes"/>
      <point x="320" y="331"/>
      <point x="253" y="260"/>
      <point x="253" y="170" type="curve" smooth="yes"/>
      <point x="253" y="64"/>
      <point x="339" y="-4"/>
    </contour>
    <contour>
      <point x="460" y="61" type="curve" smooth="yes"/>
      <point x="365" y="61"/>
      <point x="326" y="107"/>
      <point x="326" y="169" type="curve" smooth="yes"/>
      <point x="326" y="225"/>
      <point x="365" y="270"/>
      <point x="454" y="270" type="curve" smooth="yes"/>
      <point x="609" y="270" type="line"/>
      <point x="609" y="217" type="line" smooth="yes"/>
      <point x="609" y="118"/>
      <point x="549" y="61"/>
    </contour>
  </outline>
</glyph>
<glyph name="hii-tamil" format="2">
  <advance width="1761"/>
  <note>
uni0BB9
</note>
  <anchor x="954" y="0" name="bottom"/>
  <anchor x="954" y="-149" name="nukta"/>
  <anchor x="1631" y="904" name="top"/>
  <anchor x="888" y="563" name="vedic"/>
  <outline>
    <contour>
      <point x="251" y="-288" type="curve"/>
      <point x="251" y="-203"/>
      <point x="276" y="-149"/>
      <point x="392" y="-149" type="curve" smooth="yes"/>
      <point x="1170" y="-149" type="line" smooth="yes"/>
      <point x="1526" y="-149"/>
      <point x="1722" y="-60"/>
      <point x="1722" y="239" type="curve" smooth="yes"/>
      <point x="1722" y="470"/>
      <point x="1606" y="566"/>
      <point x="1454" y="566" type="curve" smooth="yes"/>
      <point x="1328" y="566"/>
      <point x="1262" y="504"/>
      <point x="1240" y="445" type="curve"/>
      <point x="1223" y="508"/>
      <point x="1174" y="565"/>
      <point x="1084" y="565" type="curve" smooth="yes"/>
      <point x="986" y="565"/>
      <point x="919" y="506"/>
      <point x="919" y="385" type="curve" smooth="yes"/>
      <point x="919" y="61" type="line"/>
      <point x="696" y="61" type="line"/>
      <point x="769" y="125"/>
      <point x="804" y="205"/>
      <point x="804" y="281" type="curve" smooth="yes"/>
      <point x="804" y="438"/>
      <point x="652" y="568"/>
      <point x="423" y="568" type="curve" smooth="yes"/>
      <point x="166" y="568"/>
      <point x="54" y="419"/>
      <point x="54" y="268" type="curve" smooth="yes"/>
      <point x="54" y="118"/>
      <point x="145" y="-5"/>
      <point x="297" y="-5" type="curve" smooth="yes"/>
      <point x="423" y="-5"/>
      <point x="500" y="68"/>
      <point x="500" y="160" type="curve" smooth="yes"/>
      <point x="500" y="247"/>
      <point x="438" y="323"/>
      <point x="324" y="323" type="curve" smooth="yes"/>
      <point x="211" y="323"/>
      <point x="139" y="253"/>
      <point x="126" y="106" type="curve"/>
      <point x="169" y="87" type="line"/>
      <point x="173" y="194"/>
      <point x="221" y="244"/>
      <point x="282" y="244" type="curve" smooth="yes"/>
      <point x="342" y="244"/>
      <point x="370" y="201"/>
      <point x="370" y="156" type="curve" smooth="yes"/>
      <point x="370" y="109"/>
      <point x="336" y="61"/>
      <point x="264" y="61" type="curve" smooth="yes"/>
      <point x="167" y="61"/>
      <point x="117" y="156"/>
      <point x="117" y="266" type="curve" smooth="yes"/>
      <point x="117" y="389"/>
      <point x="206" y="507"/>
      <point x="406" y="507" type="curve" smooth="yes"/>
      <point x="558" y="507"/>
      <point x="653" y="407"/>
      <point x="653" y="263" type="curve" smooth="yes"/>
      <point x="653" y="180"/>
      <point x="622" y="95"/>
      <point x="560" y="44" type="curve"/>
      <point x="580" y="0" type="line"/>
      <point x="989" y="0" type="line"/>
      <point x="989" y="381" type="line" smooth="yes"/>
      <point x="989" y="466"/>
      <point x="1016" y="504"/>
      <point x="1080" y="504" type="curve" smooth="yes"/>
      <point x="1135" y="504"/>
      <point x="1164" y="461"/>
      <point x="1164" y="379" type="curve" smooth="yes"/>
      <point x="1164" y="-1" type="line"/>
      <point x="1328" y="-1" type="line"/>
      <point x="1328" y="368" type="line" smooth="yes"/>
      <point x="1328" y="459"/>
      <point x="1366" y="505"/>
      <point x="1435" y="505" type="curve" smooth="yes"/>
      <point x="1501" y="505"/>
      <point x="1556" y="432"/>
      <point x="1556" y="260" type="curve" smooth="yes"/>
      <point x="1556" y="-17"/>
      <point x="1455" y="-91"/>
      <point x="1159" y="-91" type="curve" smooth="yes"/>
      <point x="327" y="-91" type="line" smooth="yes"/>
      <point x="219" y="-91"/>
      <point x="120" y="-113"/>
      <point x="120" y="-199" type="curve" smooth="yes"/>
      <point x="120" y="-260"/>
      <point x="173" y="-288"/>
    </contour>
    <component base="iiMatra-tamil.alt01" xOffset="1760"/>
  </outline>
</glyph>
<glyph name="iMatra-tamil.alt01" format="2">
  <advance width="246"/>
  <note>
uni0BBF
</note>
  <outline>
    <contour>
      <point x="85" y="0" type="line"/>
      <point x="155" y="0" type="line"/>
      <point x="155" y="584" type="line" smooth="yes"/>
      <point x="155" y="761"/>
      <point x="18" y="868"/>
      <point x="-117" y="868" type="curve" smooth="yes"/>
      <point x="-280" y="868"/>
      <point x="-353" y="770"/>
      <point x="-353" y="675" type="curve" smooth="yes"/>
      <point x="-353" y="586"/>
      <point x="-307" y="541"/>
      <point x="-220" y="506" type="curve"/>
      <point x="-202" y="546" type="line"/>
      <point x="-254" y="573"/>
      <point x="-276" y="598"/>
      <point x="-276" y="638" type="curve" smooth="yes"/>
      <point x="-276" y="684"/>
      <point x="-241" y="741"/>
      <point x="-116" y="741" type="curve" smooth="yes"/>
      <point x="-14" y="741"/>
      <point x="85" y="683"/>
      <point x="85" y="530" type="curve" smooth="yes"/>
    </contour>
  </outline>
</glyph>
<glyph name="iMatra-tamil.alt02" format="2">
  <advance width="246"/>
  <note>
uni0BBF
</note>
  <outline>
    <contour>
      <point x="85" y="0" type="line"/>
      <point x="155" y="0" type="line"/>
      <point x="155" y="541" type="line" smooth="yes"/>
      <point x="155" y="739"/>
      <point x="-28" y="868"/>
      <point x="-241" y="868" type="curve" smooth="yes"/>
      <point x="-414" y="868"/>
      <point x="-561" y="798"/>
      <point x="-561" y="659" type="curve" smooth="yes"/>
      <point x="-561" y="587"/>
      <point x="-525" y="544"/>
      <point x="-452" y="517" type="curve"/>
      <point x="-436" y="557" type="line"/>
      <point x="-474" y="572"/>
      <point x="-485" y="597"/>
      <point x="-485" y="625" type="curve" smooth="yes"/>
      <point x="-485" y="704"/>
      <point x="-371" y="741"/>
      <point x="-243" y="741" type="curve" smooth="yes"/>
      <point x="-50" y="741"/>
      <point x="85" y="669"/>
      <point x="85" y="500" type="curve" smooth="yes"/>
    </contour>
  </outline>
</glyph>
<glyph name="iiMatra-tamil.alt01" format="2">
  <note>
uni0BC0
</note>
  <anchor x="-128" y="904" name="top"/>
  <outline>
    <contour>
      <point x="-243" y="507" type="curve"/>
      <point x="-223" y="555" type="line"/>
      <point x="-279" y="577"/>
      <point x="-309" y="623"/>
      <point x="-309" y="681" type="curve" smooth="yes"/>
      <point x="-309" y="776"/>
      <point x="-242" y="844"/>
      <point x="-139" y="844" type="curve" smooth="yes"/>
      <point x="-74" y="844"/>
      <point x="-28" y="808"/>
      <point x="-28" y="749" type="curve" smooth="yes"/>
      <point x="-28" y="714"/>
      <point x="-55" y="682"/>
      <point x="-97" y="682" type="curve" smooth="yes"/>
      <point x="-181" y="682"/>
      <point x="-198" y="781"/>
      <point x="-152" y="868" type="curve"/>
      <point x="-207" y="872" type="line"/>
      <point x="-285" y="749"/>
      <point x="-228" y="604"/>
      <point x="-76" y="604" type="curve" smooth="yes"/>
      <point x="13" y="604"/>
      <point x="78" y="656"/>
      <point x="78" y="738" type="curve" smooth="yes"/>
      <point x="78" y="844"/>
      <point x="-11" y="904"/>
      <point x="-128" y="904" type="curve" smooth="yes"/>
      <point x="-271" y="904"/>
      <point x="-377" y="820"/>
      <point x="-377" y="686" type="curve" smooth="yes"/>
      <point x="-377" y="603"/>
      <point x="-331" y="542"/>
    </contour>
  </outline>
</glyph>
<glyph name="iiMatra-tamil.alt02" format="2">
  <note>
uni0BC0
</note>
  <anchor x="-350" y="904" name="top"/>
  <outline>
    <contour>
      <point x="-450" y="502" type="curve"/>
      <point x="-428" y="554" type="line"/>
      <point x="-494" y="578"/>
      <point x="-530" y="622"/>
      <point x="-530" y="687" type="curve" smooth="yes"/>
      <point x="-530" y="776"/>
      <point x="-463" y="844"/>
      <point x="-360" y="844" type="curve" smooth="yes"/>
      <point x="-295" y="844"/>
      <point x="-250" y="808"/>
      <point x="-250" y="749" type="curve" smooth="yes"/>
      <point x="-250" y="714"/>
      <point x="-276" y="682"/>
      <point x="-318" y="682" type="curve" smooth="yes"/>
      <point x="-402" y="682"/>
      <point x="-419" y="781"/>
      <point x="-373" y="868" type="curve"/>
      <point x="-428" y="872" type="line"/>
      <point x="-506" y="749"/>
      <point x="-449" y="604"/>
      <point x="-297" y="604" type="curve" smooth="yes"/>
      <point x="-208" y="604"/>
      <point x="-143" y="656"/>
      <point x="-143" y="738" type="curve" smooth="yes"/>
      <point x="-143" y="844"/>
      <point x="-232" y="904"/>
      <point x="-350" y="904" type="curve" smooth="yes"/>
      <point x="-492" y="904"/>
      <point x="-598" y="820"/>
      <point x="-598" y="692" type="curve" smooth="yes"/>
      <point x="-598" y="599"/>
      <point x="-546" y="541"/>
    </contour>
  </outline>
</glyph>
<glyph name="kii-tamil" format="2">
  <advance width="919"/>
  <note>
uni0B95
</note>
  <anchor x="460" y="0" name="bottom"/>
  <anchor x="460" y="0" name="nukta"/>
  <anchor x="650" y="904" name="top"/>
  <anchor x="481" y="563" name="vedic"/>
  <outline>
    <contour>
      <point x="284" y="-4" type="curve" smooth="yes"/>
      <point x="481" y="-4"/>
      <point x="578" y="90"/>
      <point x="578" y="227" type="curve" smooth="yes"/>
      <point x="578" y="270" type="line"/>
      <point x="597" y="270" type="line" smooth="yes"/>
      <point x="668" y="270"/>
      <point x="710" y="229"/>
      <point x="710" y="158" type="curve" smooth="yes"/>
      <point x="710" y="95"/>
      <point x="668" y="57"/>
      <point x="616" y="57" type="curve" smooth="yes"/>
      <point x="595" y="57" type="line"/>
      <point x="595" y="-4" type="line"/>
      <point x="650" y="-4" type="line" smooth="yes"/>
      <point x="750" y="-4"/>
      <point x="866" y="34"/>
      <point x="866" y="155" type="curve" smooth="yes"/>
      <point x="866" y="271"/>
      <point x="765" y="331"/>
      <point x="598" y="331" type="curve" smooth="yes"/>
      <point x="578" y="331" type="line"/>
      <point x="578" y="502" type="line"/>
      <point x="735" y="502" type="line"/>
      <point x="735" y="563" type="line"/>
      <point x="203" y="563" type="line"/>
      <point x="203" y="299" type="line"/>
      <point x="271" y="299" type="line"/>
      <point x="271" y="502" type="line"/>
      <point x="415" y="502" type="line"/>
      <point x="415" y="331" type="line"/>
      <point x="246" y="331" type="line" smooth="yes"/>
      <point x="125" y="331"/>
      <point x="59" y="260"/>
      <point x="59" y="170" type="curve" smooth="yes"/>
      <point x="59" y="64"/>
      <point x="144" y="-4"/>
    </contour>
    <contour>
      <point x="266" y="61" type="curve" smooth="yes"/>
      <point x="170" y="61"/>
      <point x="131" y="107"/>
      <point x="131" y="169" type="curve" smooth="yes"/>
      <point x="131" y="225"/>
      <point x="170" y="270"/>
      <point x="259" y="270" type="curve" smooth="yes"/>
      <point x="415" y="270" type="line"/>
      <point x="415" y="217" type="line" smooth="yes"/>
      <point x="415" y="118"/>
      <point x="354" y="61"/>
    </contour>
    <component base="iiMatra-tamil" xOffset="625"/>
  </outline>
</glyph>
<glyph name="kssii-tamil" format="2">
  <advance width="2023"/>
  <note>
g76
</note>
  <anchor x="997" y="0" name="bottom"/>
  <anchor x="876" y="0" name="nukta"/>
  <anchor x="1671" y="904" name="top"/>
  <anchor x="1021" y="563" name="vedic"/>
  <outline>
    <contour>
      <point x="852" y="-5" type="curve" smooth="yes"/>
      <point x="955" y="-5"/>
      <point x="1035" y="49"/>
      <point x="1035" y="152" type="curve" smooth="yes"/>
      <point x="1035" y="262"/>
      <point x="946" y="331"/>
      <point x="793" y="331" type="curve" smooth="yes"/>
      <point x="578" y="331" type="line"/>
      <point x="578" y="502" type="line"/>
      <point x="735" y="502" type="line"/>
      <point x="735" y="563" type="line"/>
      <point x="203" y="563" type="line"/>
      <point x="203" y="299" type="line"/>
      <point x="271" y="299" type="line"/>
      <point x="271" y="502" type="line"/>
      <point x="415" y="502" type="line"/>
      <point x="415" y="331" type="line"/>
      <point x="246" y="331" type="line" smooth="yes"/>
      <point x="125" y="331"/>
      <point x="59" y="260"/>
      <point x="59" y="170" type="curve" smooth="yes"/>
      <point x="59" y="64"/>
      <point x="144" y="-5"/>
      <point x="284" y="-5" type="curve" smooth="yes"/>
      <point x="481" y="-5"/>
      <point x="578" y="90"/>
      <point x="578" y="227" type="curve" smooth="yes"/>
      <point x="578" y="270" type="line"/>
      <point x="778" y="270" type="line" smooth="yes"/>
      <point x="854" y="270"/>
      <point x="913" y="224"/>
      <point x="913" y="152" type="curve" smooth="yes"/>
      <point x="913" y="97"/>
      <point x="877" y="61"/>
      <point x="823" y="61" type="curve" smooth="yes"/>
      <point x="761" y="61"/>
      <point x="729" y="112"/>
      <point x="729" y="170" type="curve" smooth="yes"/>
      <point x="729" y="304"/>
      <point x="826" y="366"/>
      <point x="955" y="366" type="curve" smooth="yes"/>
      <point x="1079" y="366"/>
      <point x="1170" y="299"/>
      <point x="1170" y="184" type="curve" smooth="yes"/>
      <point x="1170" y="131"/>
      <point x="1139" y="76"/>
      <point x="1093" y="44" type="curve"/>
      <point x="1113" y="0" type="line"/>
      <point x="1964" y="0" type="line"/>
      <point x="1964" y="345" type="line"/>
      <point x="1800" y="273" type="line"/>
      <point x="1800" y="61" type="line"/>
      <point x="1197" y="61" type="line"/>
      <point x="1201" y="51" type="line"/>
      <point x="1261" y="75"/>
      <point x="1299" y="125"/>
      <point x="1299" y="190" type="curve" smooth="yes"/>
      <point x="1299" y="334"/>
      <point x="1159" y="427"/>
      <point x="981" y="427" type="curve" smooth="yes"/>
      <point x="808" y="427"/>
      <point x="661" y="338"/>
      <point x="661" y="181" type="curve" smooth="yes"/>
      <point x="661" y="65"/>
      <point x="732" y="-5"/>
    </contour>
    <contour>
      <point x="266" y="61" type="curve" smooth="yes"/>
      <point x="170" y="61"/>
      <point x="131" y="107"/>
      <point x="131" y="169" type="curve" smooth="yes"/>
      <point x="131" y="225"/>
      <point x="170" y="270"/>
      <point x="259" y="270" type="curve" smooth="yes"/>
      <point x="415" y="270" type="line"/>
      <point x="415" y="217" type="line" smooth="yes"/>
      <point x="415" y="118"/>
      <point x="354" y="61"/>
    </contour>
    <contour>
      <point x="1522" y="-324" type="line"/>
      <point x="1684" y="-324" type="line"/>
      <point x="1684" y="417" type="line" smooth="yes"/>
      <point x="1684" y="525"/>
      <point x="1601" y="569"/>
      <point x="1511" y="569" type="curve" smooth="yes"/>
      <point x="1404" y="569"/>
      <point x="1329" y="502"/>
      <point x="1329" y="399" type="curve" smooth="yes"/>
      <point x="1329" y="278"/>
      <point x="1425" y="197"/>
      <point x="1599" y="197" type="curve" smooth="yes"/>
      <point x="1740" y="197"/>
      <point x="1832" y="233"/>
      <point x="1964" y="335" type="curve"/>
      <point x="1964" y="349" type="line"/>
      <point x="1926" y="375" type="line"/>
      <point x="1817" y="295"/>
      <point x="1748" y="249"/>
      <point x="1622" y="249" type="curve" smooth="yes"/>
      <point x="1470" y="249"/>
      <point x="1390" y="291"/>
      <point x="1390" y="398" type="curve" smooth="yes"/>
      <point x="1390" y="444"/>
      <point x="1420" y="478"/>
      <point x="1462" y="478" type="curve" smooth="yes"/>
      <point x="1498" y="478"/>
      <point x="1522" y="458"/>
      <point x="1522" y="418" type="curve" smooth="yes"/>
    </contour>
    <component base="iiMatra-tamil.alt02" xOffset="2021"/>
  </outline>
</glyph>
<glyph name="ku-tamil" format="2">
  <advance width="1182"/>
  <note>
g101
</note>
  <anchor x="597" y="0" name="bottom"/>
  <anchor x="597" y="-324" name="nukta"/>
  <anchor x="723" y="563" name="top"/>
  <anchor x="721" y="563" name="vedic"/>
  <outline>
    <contour>
      <point x="597" y="-324" type="curve" smooth="yes"/>
      <point x="953" y="-324"/>
      <point x="1129" y="-150"/>
      <point x="1129" y="36" type="curve" smooth="yes"/>
      <point x="1129" y="197"/>
      <point x="1000" y="331"/>
      <point x="761" y="331" type="curve" smooth="yes"/>
      <point x="472" y="331" type="line" smooth="yes"/>
      <point x="352" y="331"/>
      <point x="285" y="260"/>
      <point x="285" y="170" type="curve" smooth="yes"/>
      <point x="285" y="51"/>
      <point x="384" y="-4"/>
      <point x="524" y="-4" type="curve" smooth="yes"/>
      <point x="712" y="-4"/>
      <point x="805" y="93"/>
      <point x="805" y="227" type="curve" smooth="yes"/>
      <point x="805" y="502" type="line"/>
      <point x="962" y="502" type="line"/>
      <point x="962" y="563" type="line"/>
      <point x="430" y="563" type="line"/>
      <point x="430" y="299" type="line"/>
      <point x="498" y="299" type="line"/>
      <point x="498" y="502" type="line"/>
      <point x="641" y="502" type="line"/>
      <point x="641" y="217" type="line" smooth="yes"/>
      <point x="641" y="118"/>
      <point x="581" y="61"/>
      <point x="492" y="61" type="curve" smooth="yes"/>
      <point x="397" y="61"/>
      <point x="357" y="107"/>
      <point x="357" y="169" type="curve" smooth="yes"/>
      <point x="357" y="225"/>
      <point x="397" y="270"/>
      <point x="486" y="270" type="curve" smooth="yes"/>
      <point x="760" y="270" type="line" smooth="yes"/>
      <point x="888" y="270"/>
      <point x="968" y="170"/>
      <point x="968" y="35" type="curve" smooth="yes"/>
      <point x="968" y="-125"/>
      <point x="844" y="-263"/>
      <point x="592" y="-263" type="curve" smooth="yes"/>
      <point x="315" y="-263"/>
      <point x="127" y="-114"/>
      <point x="127" y="166" type="curve" smooth="yes"/>
      <point x="127" y="275"/>
      <point x="171" y="381"/>
      <point x="259" y="464" type="curve"/>
      <point x="210" y="509" type="line"/>
      <point x="106" y="408"/>
      <point x="59" y="286"/>
      <point x="59" y="159" type="curve" smooth="yes"/>
      <point x="59" y="-146"/>
      <point x="278" y="-324"/>
    </contour>
  </outline>
</glyph>
<glyph name="kuu-tamil" format="2">
  <advance width="1424"/>
  <note>
g102
</note>
  <anchor x="712" y="0" name="bottom"/>
  <anchor x="712" y="0" name="nukta"/>
  <anchor x="497" y="563" name="top"/>
  <anchor x="732" y="563" name="vedic"/>
  <outline>
    <contour>
      <point x="852" y="-5" type="curve" smooth="yes"/>
      <point x="955" y="-5"/>
      <point x="1035" y="49"/>
      <point x="1035" y="152" type="curve" smooth="yes"/>
      <point x="1035" y="262"/>
      <point x="946" y="331"/>
      <point x="793" y="331" type="curve" smooth="yes"/>
      <point x="578" y="331" type="line"/>
      <point x="578" y="502" type="line"/>
      <point x="735" y="502" type="line"/>
      <point x="735" y="563" type="line"/>
      <point x="203" y="563" type="line"/>
      <point x="203" y="299" type="line"/>
      <point x="271" y="299" type="line"/>
      <point x="271" y="502" type="line"/>
      <point x="415" y="502" type="line"/>
      <point x="415" y="331" type="line"/>
      <point x="246" y="331" type="line" smooth="yes"/>
      <point x="125" y="331"/>
      <point x="59" y="260"/>
      <point x="59" y="170" type="curve" smooth="yes"/>
      <point x="59" y="64"/>
      <point x="144" y="-5"/>
      <point x="284" y="-5" type="curve" smooth="yes"/>
      <point x="481" y="-5"/>
      <point x="578" y="90"/>
      <point x="578" y="227" type="curve" smooth="yes"/>
      <point x="578" y="270" type="line"/>
      <point x="778" y="270" type="line" smooth="yes"/>
      <point x="854" y="270"/>
      <point x="913" y="224"/>
      <point x="913" y="152" type="curve" smooth="yes"/>
      <point x="913" y="97"/>
      <point x="877" y="61"/>
      <point x="823" y="61" type="curve" smooth="yes"/>
      <point x="761" y="61"/>
      <point x="729" y="112"/>
      <point x="729" y="170" type="curve" smooth="yes"/>
      <point x="729" y="304"/>
      <point x="826" y="366"/>
      <point x="955" y="366" type="curve" smooth="yes"/>
      <point x="1079" y="366"/>
      <point x="1170" y="299"/>
      <point x="1170" y="184" type="curve" smooth="yes"/>
      <point x="1170" y="116"/>
      <point x="1136" y="71"/>
      <point x="1069" y="44" type="curve"/>
      <point x="1084" y="0" type="line"/>
      <point x="1407" y="0" type="line"/>
      <point x="1407" y="61" type="line"/>
      <point x="1197" y="61" type="line"/>
      <point x="1201" y="51" type="line"/>
      <point x="1261" y="75"/>
      <point x="1299" y="125"/>
      <point x="1299" y="190" type="curve" smooth="yes"/>
      <point x="1299" y="334"/>
      <point x="1159" y="427"/>
      <point x="981" y="427" type="curve" smooth="yes"/>
      <point x="808" y="427"/>
      <point x="661" y="338"/>
      <point x="661" y="181" type="curve" smooth="yes"/>
      <point x="661" y="65"/>
      <point x="732" y="-5"/>
    </contour>
    <contour>
      <point x="266" y="61" type="curve" smooth="yes"/>
      <point x="170" y="61"/>
      <point x="131" y="107"/>
      <point x="131" y="169" type="curve" smooth="yes"/>
      <point x="131" y="225"/>
      <point x="170" y="270"/>
      <point x="259" y="270" type="curve" smooth="yes"/>
      <point x="415" y="270" type="line"/>
      <point x="415" y="217" type="line" smooth="yes"/>
      <point x="415" y="118"/>
      <point x="354" y="61"/>
    </contour>
  </outline>
</glyph>
<glyph name="li-tamil" format="2">
  <advance width="1398"/>
  <note>
g134
</note>
  <anchor x="684" y="0" name="bottom"/>
  <anchor x="684" y="0" name="nukta"/>
  <anchor x="1084" y="854" name="top"/>
  <anchor x="680" y="563" name="vedic"/>
  <outline>
    <contour>
      <point x="297" y="-5" type="curve" smooth="yes"/>
      <point x="423" y="-5"/>
      <point x="500" y="68"/>
      <point x="500" y="160" type="curve" smooth="yes"/>
      <point x="500" y="247"/>
      <point x="438" y="323"/>
      <point x="324" y="323" type="curve" smooth="yes"/>
      <point x="211" y="323"/>
      <point x="139" y="253"/>
      <point x="126" y="106" type="curve"/>
      <point x="169" y="87" type="line"/>
      <point x="173" y="194"/>
      <point x="221" y="244"/>
      <point x="282" y="244" type="curve" smooth="yes"/>
      <point x="342" y="244"/>
      <point x="370" y="201"/>
      <point x="370" y="156" type="curve" smooth="yes"/>
      <point x="370" y="109"/>
      <point x="336" y="61"/>
      <point x="264" y="61" type="curve" smooth="yes"/>
      <point x="167" y="61"/>
      <point x="117" y="156"/>
      <point x="117" y="266" type="curve" smooth="yes"/>
      <point x="117" y="401"/>
      <point x="221" y="507"/>
      <point x="387" y="507" type="curve" smooth="yes"/>
      <point x="531" y="507"/>
      <point x="612" y="428"/>
      <point x="612" y="276" type="curve" smooth="yes"/>
      <point x="612" y="191" type="line" smooth="yes"/>
      <point x="612" y="72"/>
      <point x="697" y="-5"/>
      <point x="842" y="-5" type="curve" smooth="yes"/>
      <point x="980" y="-5"/>
      <point x="1100" y="88"/>
      <point x="1100" y="236" type="curve" smooth="yes"/>
      <point x="1100" y="418"/>
      <point x="943" y="476"/>
      <point x="943" y="612" type="curve" smooth="yes"/>
      <point x="943" y="683"/>
      <point x="997" y="726"/>
      <point x="1080" y="726" type="curve" smooth="yes"/>
      <point x="1167" y="726"/>
      <point x="1237" y="673"/>
      <point x="1237" y="530" type="curve" smooth="yes"/>
      <point x="1237" y="0" type="line"/>
      <point x="1307" y="0" type="line"/>
      <point x="1307" y="594" type="line" smooth="yes"/>
      <point x="1307" y="756"/>
      <point x="1209" y="854"/>
      <point x="1084" y="854" type="curve" smooth="yes"/>
      <point x="946" y="854"/>
      <point x="865" y="769"/>
      <point x="865" y="631" type="curve" smooth="yes"/>
      <point x="865" y="458"/>
      <point x="1032" y="406"/>
      <point x="1032" y="242" type="curve" smooth="yes"/>
      <point x="1032" y="135"/>
      <point x="949" y="56"/>
      <point x="875" y="56" type="curve" smooth="yes"/>
      <point x="810" y="56"/>
      <point x="774" y="97"/>
      <point x="774" y="180" type="curve" smooth="yes"/>
      <point x="774" y="286" type="line" smooth="yes"/>
      <point x="774" y="467"/>
      <point x="607" y="568"/>
      <point x="407" y="568" type="curve" smooth="yes"/>
      <point x="182" y="568"/>
      <point x="54" y="431"/>
      <point x="54" y="268" type="curve" smooth="yes"/>
      <point x="54" y="118"/>
      <point x="145" y="-5"/>
    </contour>
  </outline>
</glyph>
<glyph name="lii-tamil" format="2">
  <advance width="1151"/>
  <note>
g135
</note>
  <anchor x="584" y="0" name="bottom"/>
  <anchor x="585" y="0" name="nukta"/>
  <anchor x="989" y="887" name="top"/>
  <anchor x="680" y="563" name="vedic"/>
  <outline>
    <contour>
      <point x="297" y="-5" type="curve" smooth="yes"/>
      <point x="423" y="-5"/>
      <point x="500" y="68"/>
      <point x="500" y="160" type="curve" smooth="yes"/>
      <point x="500" y="247"/>
      <point x="438" y="323"/>
      <point x="324" y="323" type="curve" smooth="yes"/>
      <point x="211" y="323"/>
      <point x="139" y="253"/>
      <point x="126" y="106" type="curve"/>
      <point x="169" y="87" type="line"/>
      <point x="173" y="194"/>
      <point x="221" y="244"/>
      <point x="282" y="244" type="curve" smooth="yes"/>
      <point x="342" y="244"/>
      <point x="370" y="201"/>
      <point x="370" y="156" type="curve" smooth="yes"/>
      <point x="370" y="109"/>
      <point x="336" y="61"/>
      <point x="264" y="61" type="curve" smooth="yes"/>
      <point x="167" y="61"/>
      <point x="117" y="156"/>
      <point x="117" y="266" type="curve" smooth="yes"/>
      <point x="117" y="401"/>
      <point x="221" y="507"/>
      <point x="387" y="507" type="curve" smooth="yes"/>
      <point x="531" y="507"/>
      <point x="612" y="428"/>
      <point x="612" y="276" type="curve" smooth="yes"/>
      <point x="612" y="191" type="line" smooth="yes"/>
      <point x="612" y="72"/>
      <point x="697" y="-5"/>
      <point x="842" y="-5" type="curve" smooth="yes"/>
      <point x="1012" y="-5"/>
      <point x="1093" y="107"/>
      <point x="1093" y="241" type="curve" smooth="yes"/>
      <point x="1093" y="497"/>
      <point x="817" y="504"/>
      <point x="817" y="677" type="curve" smooth="yes"/>
      <point x="817" y="764"/>
      <point x="886" y="831"/>
      <point x="988" y="831" type="curve" smooth="yes"/>
      <point x="1045" y="831"/>
      <point x="1093" y="794"/>
      <point x="1093" y="727" type="curve" smooth="yes"/>
      <point x="1093" y="688"/>
      <point x="1064" y="662"/>
      <point x="1028" y="662" type="curve" smooth="yes"/>
      <point x="981" y="662"/>
      <point x="956" y="697"/>
      <point x="956" y="747" type="curve" smooth="yes"/>
      <point x="956" y="778"/>
      <point x="966" y="816"/>
      <point x="987" y="855" type="curve"/>
      <point x="932" y="860" type="line"/>
      <point x="906" y="820"/>
      <point x="894" y="776"/>
      <point x="894" y="736" type="curve" smooth="yes"/>
      <point x="894" y="655"/>
      <point x="944" y="587"/>
      <point x="1037" y="587" type="curve" smooth="yes"/>
      <point x="1125" y="587"/>
      <point x="1190" y="638"/>
      <point x="1190" y="721" type="curve" smooth="yes"/>
      <point x="1190" y="835"/>
      <point x="1092" y="892"/>
      <point x="989" y="892" type="curve" smooth="yes"/>
      <point x="840" y="892"/>
      <point x="749" y="798"/>
      <point x="749" y="684" type="curve" smooth="yes"/>
      <point x="749" y="459"/>
      <point x="1024" y="466"/>
      <point x="1024" y="242" type="curve" smooth="yes"/>
      <point x="1024" y="147"/>
      <point x="960" y="56"/>
      <point x="875" y="56" type="curve" smooth="yes"/>
      <point x="810" y="56"/>
      <point x="774" y="97"/>
      <point x="774" y="180" type="curve" smooth="yes"/>
      <point x="774" y="286" type="line" smooth="yes"/>
      <point x="774" y="467"/>
      <point x="607" y="568"/>
      <point x="407" y="568" type="curve" smooth="yes"/>
      <point x="182" y="568"/>
      <point x="54" y="431"/>
      <point x="54" y="268" type="curve" smooth="yes"/>
      <point x="54" y="118"/>
      <point x="145" y="-5"/>
    </contour>
  </outline>
</glyph>
<glyph name="lllii-tamil" format="2">
  <advance width="975"/>
  <note>
uni0BB4
</note>
  <anchor x="487" y="0" name="bottom"/>
  <anchor x="487" y="-380" name="nukta"/>
  <anchor x="846" y="904" name="top"/>
  <anchor x="503" y="563" name="vedic"/>
  <anchor x="906" y="563" name="imatra"/>
  <outline>
    <contour>
      <point x="327" y="-413" type="curve" smooth="yes"/>
      <point x="595" y="-413"/>
      <point x="607" y="-201"/>
      <point x="774" y="-201" type="curve" smooth="yes"/>
      <point x="849" y="-201" type="line"/>
      <point x="849" y="-135" type="line"/>
      <point x="754" y="-135" type="line" smooth="yes"/>
      <point x="684" y="-135"/>
      <point x="622" y="-100"/>
      <point x="622" y="-2" type="curve" smooth="yes"/>
      <point x="622" y="122" type="line"/>
      <point x="459" y="122" type="line"/>
      <point x="459" y="3" type="line" smooth="yes"/>
      <point x="459" y="-79"/>
      <point x="520" y="-142"/>
      <point x="605" y="-156" type="curve"/>
      <point x="605" y="-161" type="line"/>
      <point x="467" y="-172"/>
      <point x="434" y="-346"/>
      <point x="289" y="-346" type="curve" smooth="yes"/>
      <point x="219" y="-346"/>
      <point x="171" y="-306"/>
      <point x="171" y="-243" type="curve" smooth="yes"/>
      <point x="171" y="-190"/>
      <point x="213" y="-157"/>
      <point x="265" y="-157" type="curve" smooth="yes"/>
      <point x="297" y="-157"/>
      <point x="327" y="-170"/>
      <point x="352" y="-197" type="curve"/>
      <point x="388" y="-154" type="line"/>
      <point x="352" y="-114"/>
      <point x="306" y="-96"/>
      <point x="260" y="-96" type="curve" smooth="yes"/>
      <point x="172" y="-96"/>
      <point x="108" y="-156"/>
      <point x="108" y="-243" type="curve" smooth="yes"/>
      <point x="108" y="-350"/>
      <point x="208" y="-413"/>
    </contour>
    <component base="ma-tamil"/>
    <component base="iiMatra-tamil.alt01" xOffset="974"/>
  </outline>
</glyph>
<glyph name="lllu-tamil" format="2">
  <advance width="1288"/>
  <note>
g140
</note>
  <anchor x="649" y="0" name="bottom"/>
  <anchor x="695" y="-363" name="nukta"/>
  <anchor x="854" y="563" name="top"/>
  <anchor x="855" y="563" name="vedic"/>
  <outline>
    <contour>
      <point x="403" y="0" type="line"/>
      <point x="1070" y="0" type="line" smooth="yes"/>
      <point x="1188" y="0"/>
      <point x="1229" y="82"/>
      <point x="1229" y="233" type="curve" smooth="yes"/>
      <point x="1229" y="458"/>
      <point x="1126" y="569"/>
      <point x="981" y="569" type="curve" smooth="yes"/>
      <point x="855" y="569"/>
      <point x="772" y="492"/>
      <point x="772" y="374" type="curve" smooth="yes"/>
      <point x="772" y="-202" type="line"/>
      <point x="935" y="-202" type="line"/>
      <point x="935" y="385" type="line" smooth="yes"/>
      <point x="935" y="465"/>
      <point x="971" y="499"/>
      <point x="1023" y="499" type="curve" smooth="yes"/>
      <point x="1086" y="499"/>
      <point x="1160" y="417"/>
      <point x="1160" y="236" type="curve" smooth="yes"/>
      <point x="1160" y="125"/>
      <point x="1140" y="61"/>
      <point x="1065" y="61" type="curve" smooth="yes"/>
      <point x="568" y="61" type="line"/>
      <point x="568" y="563" type="line"/>
      <point x="403" y="563" type="line"/>
    </contour>
    <contour>
      <point x="695" y="-363" type="curve" smooth="yes"/>
      <point x="930" y="-363"/>
      <point x="1136" y="-301"/>
      <point x="1136" y="-154" type="curve" smooth="yes"/>
      <point x="1136" y="-81"/>
      <point x="1090" y="-44"/>
      <point x="1028" y="-44" type="curve" smooth="yes"/>
      <point x="959" y="-44"/>
      <point x="911" y="-93"/>
      <point x="911" y="-182" type="curve" smooth="yes"/>
      <point x="911" y="-191" type="line"/>
      <point x="935" y="-191" type="line"/>
      <point x="935" y="-184" type="line" smooth="yes"/>
      <point x="935" y="-143"/>
      <point x="948" y="-124"/>
      <point x="979" y="-124" type="curve" smooth="yes"/>
      <point x="1003" y="-124"/>
      <point x="1019" y="-142"/>
      <point x="1019" y="-168" type="curve" smooth="yes"/>
      <point x="1019" y="-257"/>
      <point x="874" y="-302"/>
      <point x="692" y="-302" type="curve" smooth="yes"/>
      <point x="354" y="-302"/>
      <point x="128" y="-104"/>
      <point x="128" y="168" type="curve" smooth="yes"/>
      <point x="128" y="300"/>
      <point x="165" y="421"/>
      <point x="254" y="521" type="curve"/>
      <point x="205" y="563" type="line"/>
      <point x="104" y="450"/>
      <point x="59" y="316"/>
      <point x="59" y="178" type="curve" smooth="yes"/>
      <point x="59" y="-130"/>
      <point x="310" y="-363"/>
    </contour>
  </outline>
</glyph>
<glyph name="llluu-tamil" format="2">
  <advance width="1423"/>
  <note>
g141
</note>
  <anchor x="700" y="0" name="bottom"/>
  <anchor x="799" y="-363" name="nukta"/>
  <anchor x="988" y="563" name="top"/>
  <anchor x="991" y="563" name="vedic"/>
  <outline>
    <contour>
      <point x="799" y="-363" type="curve" smooth="yes"/>
      <point x="1063" y="-363"/>
      <point x="1271" y="-299"/>
      <point x="1271" y="-154" type="curve" smooth="yes"/>
      <point x="1271" y="-81"/>
      <point x="1225" y="-44"/>
      <point x="1163" y="-44" type="curve" smooth="yes"/>
      <point x="1094" y="-44"/>
      <point x="1045" y="-93"/>
      <point x="1045" y="-182" type="curve" smooth="yes"/>
      <point x="1045" y="-191" type="line"/>
      <point x="1069" y="-191" type="line"/>
      <point x="1069" y="-184" type="line" smooth="yes"/>
      <point x="1069" y="-143"/>
      <point x="1083" y="-124"/>
      <point x="1113" y="-124" type="curve" smooth="yes"/>
      <point x="1138" y="-124"/>
      <point x="1153" y="-142"/>
      <point x="1153" y="-168" type="curve" smooth="yes"/>
      <point x="1153" y="-255"/>
      <point x="1003" y="-302"/>
      <point x="771" y="-302" type="curve" smooth="yes"/>
      <point x="428" y="-302"/>
      <point x="127" y="-73"/>
      <point x="127" y="217" type="curve" smooth="yes"/>
      <point x="127" y="357"/>
      <point x="173" y="491"/>
      <point x="259" y="491" type="curve" smooth="yes"/>
      <point x="305" y="491"/>
      <point x="325" y="462"/>
      <point x="325" y="421" type="curve" smooth="yes"/>
      <point x="325" y="360"/>
      <point x="278" y="319"/>
      <point x="210" y="319" type="curve" smooth="yes"/>
      <point x="180" y="319"/>
      <point x="145" y="327"/>
      <point x="109" y="345" type="curve"/>
      <point x="91" y="304" type="line"/>
      <point x="142" y="274"/>
      <point x="195" y="260"/>
      <point x="244" y="260" type="curve" smooth="yes"/>
      <point x="351" y="260"/>
      <point x="438" y="325.993"/>
      <point x="438" y="429" type="curve" smooth="yes"/>
      <point x="438" y="514"/>
      <point x="381" y="569"/>
      <point x="291" y="569" type="curve" smooth="yes"/>
      <point x="137" y="569"/>
      <point x="59" y="422"/>
      <point x="59" y="224" type="curve" smooth="yes"/>
      <point x="59" y="-109"/>
      <point x="376" y="-363"/>
    </contour>
    <contour>
      <point x="538" y="0" type="line"/>
      <point x="1205" y="0" type="line" smooth="yes"/>
      <point x="1323" y="0"/>
      <point x="1364" y="82"/>
      <point x="1364" y="233" type="curve" smooth="yes"/>
      <point x="1364" y="458"/>
      <point x="1261" y="569"/>
      <point x="1116" y="569" type="curve" smooth="yes"/>
      <point x="990" y="569"/>
      <point x="907" y="492"/>
      <point x="907" y="374" type="curve" smooth="yes"/>
      <point x="907" y="-202" type="line"/>
      <point x="1069" y="-202" type="line"/>
      <point x="1069" y="385" type="line" smooth="yes"/>
      <point x="1069" y="465"/>
      <point x="1106" y="499"/>
      <point x="1158" y="499" type="curve" smooth="yes"/>
      <point x="1221" y="499"/>
      <point x="1294" y="417"/>
      <point x="1294" y="236" type="curve" smooth="yes"/>
      <point x="1294" y="125"/>
      <point x="1274" y="61"/>
      <point x="1200" y="61" type="curve" smooth="yes"/>
      <point x="703" y="61" type="line"/>
      <point x="703" y="563" type="line"/>
      <point x="538" y="563" type="line"/>
    </contour>
  </outline>
</glyph>
<glyph name="llu-tamil" format="2">
  <advance width="1743"/>
  <note>
g138
</note>
  <anchor x="869" y="0" name="bottom"/>
  <anchor x="869" y="-324" name="nukta"/>
  <anchor x="929" y="563" name="top"/>
  <anchor x="875" y="563" name="vedic"/>
  <anchor x="1374" y="563" name="imatra"/>
  <outline>
    <contour>
      <point x="869" y="-324" type="curve" smooth="yes"/>
      <point x="1292" y="-324"/>
      <point x="1690" y="-197"/>
      <point x="1690" y="103" type="curve" smooth="yes"/>
      <point x="1690" y="238"/>
      <point x="1626" y="342"/>
      <point x="1504" y="342" type="curve" smooth="yes"/>
      <point x="1408" y="342"/>
      <point x="1341" y="284"/>
      <point x="1341" y="187" type="curve" smooth="yes"/>
      <point x="1341" y="152" type="line"/>
      <point x="1370" y="152" type="line"/>
      <point x="1370" y="185" type="line" smooth="yes"/>
      <point x="1370" y="239"/>
      <point x="1409" y="252"/>
      <point x="1435" y="252" type="curve" smooth="yes"/>
      <point x="1497" y="252"/>
      <point x="1521" y="193"/>
      <point x="1521" y="105" type="curve" smooth="yes"/>
      <point x="1521" y="-156"/>
      <point x="1212" y="-263"/>
      <point x="869" y="-263" type="curve" smooth="yes"/>
      <point x="487" y="-263"/>
      <point x="122" y="-102"/>
      <point x="122" y="273" type="curve" smooth="yes"/>
      <point x="122" y="375"/>
      <point x="154" y="453"/>
      <point x="209" y="526" type="curve"/>
      <point x="155" y="563" type="line"/>
      <point x="93" y="480"/>
      <point x="59" y="389"/>
      <point x="59" y="275" type="curve" smooth="yes"/>
      <point x="59" y="-135"/>
      <point x="452" y="-324"/>
    </contour>
    <component base="lla-tamil" xOffset="209"/>
  </outline>
</glyph>
<glyph name="lluu-tamil" format="2">
  <advance width="1982"/>
  <note>
g139
</note>
  <anchor x="1003" y="0" name="bottom"/>
  <anchor x="1003" y="-325" name="nukta"/>
  <anchor x="1182" y="563" name="top"/>
  <anchor x="994" y="563" name="vedic"/>
  <anchor x="1612" y="563" name="imatra"/>
  <outline>
    <contour>
      <point x="1003" y="-325" type="curve" smooth="yes"/>
      <point x="1554" y="-325"/>
      <point x="1929" y="-173"/>
      <point x="1929" y="122" type="curve" smooth="yes"/>
      <point x="1929" y="248"/>
      <point x="1864" y="342"/>
      <point x="1743" y="342" type="curve" smooth="yes"/>
      <point x="1646" y="342"/>
      <point x="1579" y="284"/>
      <point x="1579" y="187" type="curve" smooth="yes"/>
      <point x="1579" y="152" type="line"/>
      <point x="1608" y="152" type="line"/>
      <point x="1608" y="185" type="line" smooth="yes"/>
      <point x="1608" y="239"/>
      <point x="1647" y="252"/>
      <point x="1673" y="252" type="curve" smooth="yes"/>
      <point x="1735" y="252"/>
      <point x="1759" y="203"/>
      <point x="1759" y="125" type="curve" smooth="yes"/>
      <point x="1759" y="-132"/>
      <point x="1470" y="-264"/>
      <point x="1003" y="-264" type="curve" smooth="yes"/>
      <point x="537" y="-264"/>
      <point x="122" y="-83"/>
      <point x="122" y="292" type="curve" smooth="yes"/>
      <point x="122" y="438"/>
      <point x="189" y="491"/>
      <point x="243" y="491" type="curve" smooth="yes"/>
      <point x="289" y="491"/>
      <point x="317" y="463"/>
      <point x="317" y="422" type="curve" smooth="yes"/>
      <point x="317" y="361"/>
      <point x="270" y="319"/>
      <point x="201" y="319" type="curve" smooth="yes"/>
      <point x="171" y="319"/>
      <point x="137" y="327"/>
      <point x="101" y="345" type="curve"/>
      <point x="83" y="304" type="line"/>
      <point x="134" y="274"/>
      <point x="187" y="260"/>
      <point x="236" y="260" type="curve" smooth="yes"/>
      <point x="343" y="260"/>
      <point x="430" y="325.993"/>
      <point x="430" y="429" type="curve" smooth="yes"/>
      <point x="430" y="514"/>
      <point x="364" y="569"/>
      <point x="275" y="569" type="curve" smooth="yes"/>
      <point x="176" y="569"/>
      <point x="59" y="502"/>
      <point x="59" y="281" type="curve" smooth="yes"/>
      <point x="59" y="-121"/>
      <point x="507" y="-325"/>
    </contour>
    <component base="lla-tamil" xOffset="447"/>
  </outline>
</glyph>
<glyph name="lu-tamil" format="2">
  <advance width="1495"/>
  <note>
g136
</note>
  <anchor x="440" y="0" name="bottom"/>
  <anchor x="440" y="-380" name="nukta"/>
  <anchor x="832" y="563" name="top"/>
  <anchor x="729" y="563" name="vedic"/>
  <outline>
    <contour>
      <point x="440" y="-380" type="curve" smooth="yes"/>
      <point x="753" y="-380"/>
      <point x="913" y="-219"/>
      <point x="913" y="-3" type="curve" smooth="yes"/>
      <point x="913" y="38" type="line"/>
      <point x="750" y="38" type="line"/>
      <point x="750" y="1" type="line" smooth="yes"/>
      <point x="750" y="-241"/>
      <point x="587" y="-319"/>
      <point x="421" y="-319" type="curve" smooth="yes"/>
      <point x="276" y="-319"/>
      <point x="138" y="-242"/>
      <point x="138" y="-155" type="curve" smooth="yes"/>
      <point x="138" y="-136"/>
      <point x="147" y="-125"/>
      <point x="174" y="-125" type="curve" smooth="yes"/>
      <point x="1404" y="-125" type="line"/>
      <point x="1404" y="563" type="line"/>
      <point x="1240" y="563" type="line"/>
      <point x="1240" y="-64" type="line"/>
      <point x="170" y="-64" type="line" smooth="yes"/>
      <point x="103" y="-64"/>
      <point x="71" y="-96"/>
      <point x="71" y="-148" type="curve" smooth="yes"/>
      <point x="71" y="-267"/>
      <point x="231" y="-380"/>
    </contour>
    <component base="la-tamil"/>
  </outline>
</glyph>
<glyph name="luu-tamil" format="2">
  <advance width="1811"/>
  <note>
g137
</note>
  <anchor x="440" y="0" name="bottom"/>
  <anchor x="440" y="-380" name="nukta"/>
  <anchor x="862" y="563" name="top"/>
  <anchor x="924" y="563" name="vedic"/>
  <outline>
    <contour>
      <point x="440" y="-380" type="curve" smooth="yes"/>
      <point x="753" y="-380"/>
      <point x="913" y="-219"/>
      <point x="913" y="-3" type="curve" smooth="yes"/>
      <point x="913" y="38" type="line"/>
      <point x="750" y="38" type="line"/>
      <point x="750" y="1" type="line" smooth="yes"/>
      <point x="750" y="-241"/>
      <point x="587" y="-319"/>
      <point x="421" y="-319" type="curve" smooth="yes"/>
      <point x="276" y="-319"/>
      <point x="138" y="-242"/>
      <point x="138" y="-155" type="curve" smooth="yes"/>
      <point x="138" y="-136"/>
      <point x="147" y="-125"/>
      <point x="174" y="-125" type="curve" smooth="yes"/>
      <point x="1286" y="-125" type="line"/>
      <point x="1286" y="502" type="line"/>
      <point x="1476" y="502" type="line"/>
      <point x="1476" y="0" type="line"/>
      <point x="1637" y="0" type="line"/>
      <point x="1637" y="502" type="line"/>
      <point x="1794" y="502" type="line"/>
      <point x="1794" y="563" type="line"/>
      <point x="1216" y="563" type="line"/>
      <point x="1216" y="-64" type="line"/>
      <point x="170" y="-64" type="line" smooth="yes"/>
      <point x="103" y="-64"/>
      <point x="71" y="-96"/>
      <point x="71" y="-148" type="curve" smooth="yes"/>
      <point x="71" y="-267"/>
      <point x="231" y="-380"/>
    </contour>
    <component base="la-tamil"/>
  </outline>
</glyph>
<glyph name="mii-tamil" format="2">
  <advance width="975"/>
  <note>
uni0BAE
</note>
  <anchor x="487" y="0" name="bottom"/>
  <anchor x="487" y="0" name="nukta"/>
  <anchor x="844" y="904" name="top"/>
  <anchor x="503" y="563" name="vedic"/>
  <outline>
    <contour>
      <point x="90" y="0" type="line"/>
      <point x="757" y="0" type="line" smooth="yes"/>
      <point x="875" y="0"/>
      <point x="916" y="82"/>
      <point x="916" y="233" type="curve" smooth="yes"/>
      <point x="916" y="458"/>
      <point x="813" y="569"/>
      <point x="668" y="569" type="curve" smooth="yes"/>
      <point x="542" y="569"/>
      <point x="459" y="492"/>
      <point x="459" y="374" type="curve" smooth="yes"/>
      <point x="459" y="61" type="line"/>
      <point x="255" y="61" type="line"/>
      <point x="255" y="563" type="line"/>
      <point x="90" y="563" type="line"/>
    </contour>
    <contour>
      <point x="622" y="61" type="line"/>
      <point x="622" y="385" type="line" smooth="yes"/>
      <point x="622" y="465"/>
      <point x="658" y="499"/>
      <point x="710" y="499" type="curve" smooth="yes"/>
      <point x="773" y="499"/>
      <point x="847" y="417"/>
      <point x="847" y="236" type="curve" smooth="yes"/>
      <point x="847" y="125"/>
      <point x="827" y="61"/>
      <point x="752" y="61" type="curve" smooth="yes"/>
    </contour>
    <component base="iiMatra-tamil.alt01" xOffset="972"/>
  </outline>
</glyph>
